<?xml version="1.0" encoding="utf-8" standalone="no"?>
<!DOCTYPE svg PUBLIC "-//W3C//DTD SVG 1.1//EN"
  "http://www.w3.org/Graphics/SVG/1.1/DTD/svg11.dtd">
<!-- Created with matplotlib (https://matplotlib.org/) -->
<svg height="360pt" version="1.1" viewBox="0 0 1080 360" width="1080pt" xmlns="http://www.w3.org/2000/svg" xmlns:xlink="http://www.w3.org/1999/xlink">
 <defs>
  <style type="text/css">
*{stroke-linecap:butt;stroke-linejoin:round;}
  </style>
 </defs>
 <g id="figure_1">
  <g id="patch_1">
   <path d="M 0 360 
L 1080 360 
L 1080 0 
L 0 0 
z
" style="fill:#ffffff;"/>
  </g>
  <g id="axes_1">
   <g id="patch_2">
    <path d="M 135 315 
L 972 315 
L 972 43.2 
L 135 43.2 
z
" style="fill:#ffffff;"/>
   </g>
   <g id="patch_3">
    <path clip-path="url(#pff376a9122)" d="M 173.045455 315 
L 176.703671 315 
L 176.703671 312.491044 
L 173.045455 312.491044 
z
"/>
   </g>
   <g id="patch_4">
    <path clip-path="url(#pff376a9122)" d="M 209.627622 315 
L 213.285839 315 
L 213.285839 312.382551 
L 209.627622 312.382551 
z
"/>
   </g>
   <g id="patch_5">
    <path clip-path="url(#pff376a9122)" d="M 246.20979 315 
L 249.868007 315 
L 249.868007 311.905163 
L 246.20979 311.905163 
z
"/>
   </g>
   <g id="patch_6">
    <path clip-path="url(#pff376a9122)" d="M 282.791958 315 
L 286.450175 315 
L 286.450175 311.475453 
L 282.791958 311.475453 
z
"/>
   </g>
   <g id="patch_7">
    <path clip-path="url(#pff376a9122)" d="M 319.374126 315 
L 323.032343 315 
L 323.032343 311.065489 
L 319.374126 311.065489 
z
"/>
   </g>
   <g id="patch_8">
    <path clip-path="url(#pff376a9122)" d="M 355.956294 315 
L 359.61451 315 
L 359.61451 309.960684 
L 355.956294 309.960684 
z
"/>
   </g>
   <g id="patch_9">
    <path clip-path="url(#pff376a9122)" d="M 392.538462 315 
L 396.196678 315 
L 396.196678 309.061042 
L 392.538462 309.061042 
z
"/>
   </g>
   <g id="patch_10">
    <path clip-path="url(#pff376a9122)" d="M 429.120629 315 
L 432.778846 315 
L 432.778846 306.636434 
L 429.120629 306.636434 
z
"/>
   </g>
   <g id="patch_11">
    <path clip-path="url(#pff376a9122)" d="M 465.702797 315 
L 469.361014 315 
L 469.361014 302.123236 
L 465.702797 302.123236 
z
"/>
   </g>
   <g id="patch_12">
    <path clip-path="url(#pff376a9122)" d="M 502.284965 315 
L 505.943182 315 
L 505.943182 292.316303 
L 502.284965 292.316303 
z
"/>
   </g>
   <g id="patch_13">
    <path clip-path="url(#pff376a9122)" d="M 538.867133 315 
L 542.52535 315 
L 542.52535 264.502074 
L 538.867133 264.502074 
z
"/>
   </g>
   <g id="patch_14">
    <path clip-path="url(#pff376a9122)" d="M 575.449301 315 
L 579.107517 315 
L 579.107517 292.430538 
L 575.449301 292.430538 
z
"/>
   </g>
   <g id="patch_15">
    <path clip-path="url(#pff376a9122)" d="M 612.031469 315 
L 615.689685 315 
L 615.689685 302.194259 
L 612.031469 302.194259 
z
"/>
   </g>
   <g id="patch_16">
    <path clip-path="url(#pff376a9122)" d="M 648.613636 315 
L 652.271853 315 
L 652.271853 306.720682 
L 648.613636 306.720682 
z
"/>
   </g>
   <g id="patch_17">
    <path clip-path="url(#pff376a9122)" d="M 685.195804 315 
L 688.854021 315 
L 688.854021 309.170909 
L 685.195804 309.170909 
z
"/>
   </g>
   <g id="patch_18">
    <path clip-path="url(#pff376a9122)" d="M 721.777972 315 
L 725.436189 315 
L 725.436189 310.135573 
L 721.777972 310.135573 
z
"/>
   </g>
   <g id="patch_19">
    <path clip-path="url(#pff376a9122)" d="M 758.36014 315 
L 762.018357 315 
L 762.018357 311.25532 
L 758.36014 311.25532 
z
"/>
   </g>
   <g id="patch_20">
    <path clip-path="url(#pff376a9122)" d="M 794.942308 315 
L 798.600524 315 
L 798.600524 311.665395 
L 794.942308 311.665395 
z
"/>
   </g>
   <g id="patch_21">
    <path clip-path="url(#pff376a9122)" d="M 831.524476 315 
L 835.182692 315 
L 835.182692 312.068096 
L 831.524476 312.068096 
z
"/>
   </g>
   <g id="patch_22">
    <path clip-path="url(#pff376a9122)" d="M 868.106643 315 
L 871.76486 315 
L 871.76486 312.511541 
L 868.106643 312.511541 
z
"/>
   </g>
   <g id="patch_23">
    <path clip-path="url(#pff376a9122)" d="M 904.688811 315 
L 908.347028 315 
L 908.347028 312.600928 
L 904.688811 312.600928 
z
"/>
   </g>
   <g id="patch_24">
    <path clip-path="url(#pff376a9122)" d="M 176.703671 315 
L 180.361888 315 
L 180.361888 314.460898 
L 176.703671 314.460898 
z
" style="fill:#1a1a1a;"/>
   </g>
   <g id="patch_25">
    <path clip-path="url(#pff376a9122)" d="M 213.285839 315 
L 216.944056 315 
L 216.944056 314.322198 
L 213.285839 314.322198 
z
" style="fill:#1a1a1a;"/>
   </g>
   <g id="patch_26">
    <path clip-path="url(#pff376a9122)" d="M 249.868007 315 
L 253.526224 315 
L 253.526224 314.126179 
L 249.868007 314.126179 
z
" style="fill:#1a1a1a;"/>
   </g>
   <g id="patch_27">
    <path clip-path="url(#pff376a9122)" d="M 286.450175 315 
L 290.108392 315 
L 290.108392 313.879436 
L 286.450175 313.879436 
z
" style="fill:#1a1a1a;"/>
   </g>
   <g id="patch_28">
    <path clip-path="url(#pff376a9122)" d="M 323.032343 315 
L 326.690559 315 
L 326.690559 313.540997 
L 323.032343 313.540997 
z
" style="fill:#1a1a1a;"/>
   </g>
   <g id="patch_29">
    <path clip-path="url(#pff376a9122)" d="M 359.61451 315 
L 363.272727 315 
L 363.272727 312.962794 
L 359.61451 312.962794 
z
" style="fill:#1a1a1a;"/>
   </g>
   <g id="patch_30">
    <path clip-path="url(#pff376a9122)" d="M 396.196678 315 
L 399.854895 315 
L 399.854895 312.144353 
L 396.196678 312.144353 
z
" style="fill:#1a1a1a;"/>
   </g>
   <g id="patch_31">
    <path clip-path="url(#pff376a9122)" d="M 432.778846 315 
L 436.437063 315 
L 436.437063 310.596304 
L 432.778846 310.596304 
z
" style="fill:#1a1a1a;"/>
   </g>
   <g id="patch_32">
    <path clip-path="url(#pff376a9122)" d="M 469.361014 315 
L 473.019231 315 
L 473.019231 306.720885 
L 469.361014 306.720885 
z
" style="fill:#1a1a1a;"/>
   </g>
   <g id="patch_33">
    <path clip-path="url(#pff376a9122)" d="M 505.943182 315 
L 509.601399 315 
L 509.601399 292.136713 
L 505.943182 292.136713 
z
" style="fill:#1a1a1a;"/>
   </g>
   <g id="patch_34">
    <path clip-path="url(#pff376a9122)" d="M 542.52535 315 
L 546.183566 315 
L 546.183566 167.427441 
L 542.52535 167.427441 
z
" style="fill:#1a1a1a;"/>
   </g>
   <g id="patch_35">
    <path clip-path="url(#pff376a9122)" d="M 579.107517 315 
L 582.765734 315 
L 582.765734 279.715397 
L 579.107517 279.715397 
z
" style="fill:#1a1a1a;"/>
   </g>
   <g id="patch_36">
    <path clip-path="url(#pff376a9122)" d="M 615.689685 315 
L 619.347902 315 
L 619.347902 301.262769 
L 615.689685 301.262769 
z
" style="fill:#1a1a1a;"/>
   </g>
   <g id="patch_37">
    <path clip-path="url(#pff376a9122)" d="M 652.271853 315 
L 655.93007 315 
L 655.93007 307.690607 
L 652.271853 307.690607 
z
" style="fill:#1a1a1a;"/>
   </g>
   <g id="patch_38">
    <path clip-path="url(#pff376a9122)" d="M 688.854021 315 
L 692.512238 315 
L 692.512238 310.580345 
L 688.854021 310.580345 
z
" style="fill:#1a1a1a;"/>
   </g>
   <g id="patch_39">
    <path clip-path="url(#pff376a9122)" d="M 725.436189 315 
L 729.094406 315 
L 729.094406 312.159943 
L 725.436189 312.159943 
z
" style="fill:#1a1a1a;"/>
   </g>
   <g id="patch_40">
    <path clip-path="url(#pff376a9122)" d="M 762.018357 315 
L 765.676573 315 
L 765.676573 313.060896 
L 762.018357 313.060896 
z
" style="fill:#1a1a1a;"/>
   </g>
   <g id="patch_41">
    <path clip-path="url(#pff376a9122)" d="M 798.600524 315 
L 802.258741 315 
L 802.258741 313.635642 
L 798.600524 313.635642 
z
" style="fill:#1a1a1a;"/>
   </g>
   <g id="patch_42">
    <path clip-path="url(#pff376a9122)" d="M 835.182692 315 
L 838.840909 315 
L 838.840909 314.014958 
L 835.182692 314.014958 
z
" style="fill:#1a1a1a;"/>
   </g>
   <g id="patch_43">
    <path clip-path="url(#pff376a9122)" d="M 871.76486 315 
L 875.423077 315 
L 875.423077 314.289403 
L 871.76486 314.289403 
z
" style="fill:#1a1a1a;"/>
   </g>
   <g id="patch_44">
    <path clip-path="url(#pff376a9122)" d="M 908.347028 315 
L 912.005245 315 
L 912.005245 314.465221 
L 908.347028 314.465221 
z
" style="fill:#1a1a1a;"/>
   </g>
   <g id="patch_45">
    <path clip-path="url(#pff376a9122)" d="M 180.361888 315 
L 184.020105 315 
L 184.020105 314.685269 
L 180.361888 314.685269 
z
" style="fill:#333333;"/>
   </g>
   <g id="patch_46">
    <path clip-path="url(#pff376a9122)" d="M 216.944056 315 
L 220.602273 315 
L 220.602273 314.575526 
L 216.944056 314.575526 
z
" style="fill:#333333;"/>
   </g>
   <g id="patch_47">
    <path clip-path="url(#pff376a9122)" d="M 253.526224 315 
L 257.184441 315 
L 257.184441 314.413012 
L 253.526224 314.413012 
z
" style="fill:#333333;"/>
   </g>
   <g id="patch_48">
    <path clip-path="url(#pff376a9122)" d="M 290.108392 315 
L 293.766608 315 
L 293.766608 314.14659 
L 290.108392 314.14659 
z
" style="fill:#333333;"/>
   </g>
   <g id="patch_49">
    <path clip-path="url(#pff376a9122)" d="M 326.690559 315 
L 330.348776 315 
L 330.348776 313.718864 
L 326.690559 313.718864 
z
" style="fill:#333333;"/>
   </g>
   <g id="patch_50">
    <path clip-path="url(#pff376a9122)" d="M 363.272727 315 
L 366.930944 315 
L 366.930944 313.064632 
L 363.272727 313.064632 
z
" style="fill:#333333;"/>
   </g>
   <g id="patch_51">
    <path clip-path="url(#pff376a9122)" d="M 399.854895 315 
L 403.513112 315 
L 403.513112 311.767715 
L 399.854895 311.767715 
z
" style="fill:#333333;"/>
   </g>
   <g id="patch_52">
    <path clip-path="url(#pff376a9122)" d="M 436.437063 315 
L 440.09528 315 
L 440.09528 309.193292 
L 436.437063 309.193292 
z
" style="fill:#333333;"/>
   </g>
   <g id="patch_53">
    <path clip-path="url(#pff376a9122)" d="M 473.019231 315 
L 476.677448 315 
L 476.677448 302.78109 
L 473.019231 302.78109 
z
" style="fill:#333333;"/>
   </g>
   <g id="patch_54">
    <path clip-path="url(#pff376a9122)" d="M 509.601399 315 
L 513.259615 315 
L 513.259615 278.71998 
L 509.601399 278.71998 
z
" style="fill:#333333;"/>
   </g>
   <g id="patch_55">
    <path clip-path="url(#pff376a9122)" d="M 546.183566 315 
L 549.841783 315 
L 549.841783 162.975176 
L 546.183566 162.975176 
z
" style="fill:#333333;"/>
   </g>
   <g id="patch_56">
    <path clip-path="url(#pff376a9122)" d="M 582.765734 315 
L 586.423951 315 
L 586.423951 290.99052 
L 582.765734 290.99052 
z
" style="fill:#333333;"/>
   </g>
   <g id="patch_57">
    <path clip-path="url(#pff376a9122)" d="M 619.347902 315 
L 623.006119 315 
L 623.006119 304.726462 
L 619.347902 304.726462 
z
" style="fill:#333333;"/>
   </g>
   <g id="patch_58">
    <path clip-path="url(#pff376a9122)" d="M 655.93007 315 
L 659.588287 315 
L 659.588287 309.409081 
L 655.93007 309.409081 
z
" style="fill:#333333;"/>
   </g>
   <g id="patch_59">
    <path clip-path="url(#pff376a9122)" d="M 692.512238 315 
L 696.170455 315 
L 696.170455 311.636143 
L 692.512238 311.636143 
z
" style="fill:#333333;"/>
   </g>
   <g id="patch_60">
    <path clip-path="url(#pff376a9122)" d="M 729.094406 315 
L 732.752622 315 
L 732.752622 312.851346 
L 729.094406 312.851346 
z
" style="fill:#333333;"/>
   </g>
   <g id="patch_61">
    <path clip-path="url(#pff376a9122)" d="M 765.676573 315 
L 769.33479 315 
L 769.33479 313.557352 
L 765.676573 313.557352 
z
" style="fill:#333333;"/>
   </g>
   <g id="patch_62">
    <path clip-path="url(#pff376a9122)" d="M 802.258741 315 
L 805.916958 315 
L 805.916958 313.991548 
L 802.258741 313.991548 
z
" style="fill:#333333;"/>
   </g>
   <g id="patch_63">
    <path clip-path="url(#pff376a9122)" d="M 838.840909 315 
L 842.499126 315 
L 842.499126 314.282745 
L 838.840909 314.282745 
z
" style="fill:#333333;"/>
   </g>
   <g id="patch_64">
    <path clip-path="url(#pff376a9122)" d="M 875.423077 315 
L 879.081294 315 
L 879.081294 314.480044 
L 875.423077 314.480044 
z
" style="fill:#333333;"/>
   </g>
   <g id="patch_65">
    <path clip-path="url(#pff376a9122)" d="M 912.005245 315 
L 915.663462 315 
L 915.663462 314.616056 
L 912.005245 314.616056 
z
" style="fill:#333333;"/>
   </g>
   <g id="patch_66">
    <path clip-path="url(#pff376a9122)" d="M 184.020105 315 
L 187.678322 315 
L 187.678322 314.898108 
L 184.020105 314.898108 
z
" style="fill:#4d4d4d;"/>
   </g>
   <g id="patch_67">
    <path clip-path="url(#pff376a9122)" d="M 220.602273 315 
L 224.26049 315 
L 224.26049 314.847943 
L 220.602273 314.847943 
z
" style="fill:#4d4d4d;"/>
   </g>
   <g id="patch_68">
    <path clip-path="url(#pff376a9122)" d="M 257.184441 315 
L 260.842657 315 
L 260.842657 314.767595 
L 257.184441 314.767595 
z
" style="fill:#4d4d4d;"/>
   </g>
   <g id="patch_69">
    <path clip-path="url(#pff376a9122)" d="M 293.766608 315 
L 297.424825 315 
L 297.424825 314.631733 
L 293.766608 314.631733 
z
" style="fill:#4d4d4d;"/>
   </g>
   <g id="patch_70">
    <path clip-path="url(#pff376a9122)" d="M 330.348776 315 
L 334.006993 315 
L 334.006993 314.399539 
L 330.348776 314.399539 
z
" style="fill:#4d4d4d;"/>
   </g>
   <g id="patch_71">
    <path clip-path="url(#pff376a9122)" d="M 366.930944 315 
L 370.589161 315 
L 370.589161 313.976549 
L 366.930944 313.976549 
z
" style="fill:#4d4d4d;"/>
   </g>
   <g id="patch_72">
    <path clip-path="url(#pff376a9122)" d="M 403.513112 315 
L 407.171329 315 
L 407.171329 313.13996 
L 403.513112 313.13996 
z
" style="fill:#4d4d4d;"/>
   </g>
   <g id="patch_73">
    <path clip-path="url(#pff376a9122)" d="M 440.09528 315 
L 443.753497 315 
L 443.753497 311.292059 
L 440.09528 311.292059 
z
" style="fill:#4d4d4d;"/>
   </g>
   <g id="patch_74">
    <path clip-path="url(#pff376a9122)" d="M 476.677448 315 
L 480.335664 315 
L 480.335664 306.491017 
L 476.677448 306.491017 
z
" style="fill:#4d4d4d;"/>
   </g>
   <g id="patch_75">
    <path clip-path="url(#pff376a9122)" d="M 513.259615 315 
L 516.917832 315 
L 516.917832 290.56918 
L 513.259615 290.56918 
z
" style="fill:#4d4d4d;"/>
   </g>
   <g id="patch_76">
    <path clip-path="url(#pff376a9122)" d="M 549.841783 315 
L 553.5 315 
L 553.5 134.168508 
L 549.841783 134.168508 
z
" style="fill:#4d4d4d;"/>
   </g>
   <g id="patch_77">
    <path clip-path="url(#pff376a9122)" d="M 586.423951 315 
L 590.082168 315 
L 590.082168 291.433931 
L 586.423951 291.433931 
z
" style="fill:#4d4d4d;"/>
   </g>
   <g id="patch_78">
    <path clip-path="url(#pff376a9122)" d="M 623.006119 315 
L 626.664336 315 
L 626.664336 305.768703 
L 623.006119 305.768703 
z
" style="fill:#4d4d4d;"/>
   </g>
   <g id="patch_79">
    <path clip-path="url(#pff376a9122)" d="M 659.588287 315 
L 663.246503 315 
L 663.246503 310.466303 
L 659.588287 310.466303 
z
" style="fill:#4d4d4d;"/>
   </g>
   <g id="patch_80">
    <path clip-path="url(#pff376a9122)" d="M 696.170455 315 
L 699.828671 315 
L 699.828671 312.435883 
L 696.170455 312.435883 
z
" style="fill:#4d4d4d;"/>
   </g>
   <g id="patch_81">
    <path clip-path="url(#pff376a9122)" d="M 732.752622 315 
L 736.410839 315 
L 736.410839 313.432155 
L 732.752622 313.432155 
z
" style="fill:#4d4d4d;"/>
   </g>
   <g id="patch_82">
    <path clip-path="url(#pff376a9122)" d="M 769.33479 315 
L 772.993007 315 
L 772.993007 313.999354 
L 769.33479 313.999354 
z
" style="fill:#4d4d4d;"/>
   </g>
   <g id="patch_83">
    <path clip-path="url(#pff376a9122)" d="M 805.916958 315 
L 809.575175 315 
L 809.575175 314.338512 
L 805.916958 314.338512 
z
" style="fill:#4d4d4d;"/>
   </g>
   <g id="patch_84">
    <path clip-path="url(#pff376a9122)" d="M 842.499126 315 
L 846.157343 315 
L 846.157343 314.549452 
L 842.499126 314.549452 
z
" style="fill:#4d4d4d;"/>
   </g>
   <g id="patch_85">
    <path clip-path="url(#pff376a9122)" d="M 879.081294 315 
L 882.73951 315 
L 882.73951 314.685554 
L 879.081294 314.685554 
z
" style="fill:#4d4d4d;"/>
   </g>
   <g id="patch_86">
    <path clip-path="url(#pff376a9122)" d="M 915.663462 315 
L 919.321678 315 
L 919.321678 314.776696 
L 915.663462 314.776696 
z
" style="fill:#4d4d4d;"/>
   </g>
   <g id="patch_87">
    <path clip-path="url(#pff376a9122)" d="M 187.678322 315 
L 191.336538 315 
L 191.336538 314.98441 
L 187.678322 314.98441 
z
" style="fill:#666666;"/>
   </g>
   <g id="patch_88">
    <path clip-path="url(#pff376a9122)" d="M 224.26049 315 
L 227.918706 315 
L 227.918706 314.974935 
L 224.26049 314.974935 
z
" style="fill:#666666;"/>
   </g>
   <g id="patch_89">
    <path clip-path="url(#pff376a9122)" d="M 260.842657 315 
L 264.500874 315 
L 264.500874 314.956627 
L 260.842657 314.956627 
z
" style="fill:#666666;"/>
   </g>
   <g id="patch_90">
    <path clip-path="url(#pff376a9122)" d="M 297.424825 315 
L 301.083042 315 
L 301.083042 314.923162 
L 297.424825 314.923162 
z
" style="fill:#666666;"/>
   </g>
   <g id="patch_91">
    <path clip-path="url(#pff376a9122)" d="M 334.006993 315 
L 337.66521 315 
L 337.66521 314.855975 
L 334.006993 314.855975 
z
" style="fill:#666666;"/>
   </g>
   <g id="patch_92">
    <path clip-path="url(#pff376a9122)" d="M 370.589161 315 
L 374.247378 315 
L 374.247378 314.706067 
L 370.589161 314.706067 
z
" style="fill:#666666;"/>
   </g>
   <g id="patch_93">
    <path clip-path="url(#pff376a9122)" d="M 407.171329 315 
L 410.829545 315 
L 410.829545 314.375533 
L 407.171329 314.375533 
z
" style="fill:#666666;"/>
   </g>
   <g id="patch_94">
    <path clip-path="url(#pff376a9122)" d="M 443.753497 315 
L 447.411713 315 
L 447.411713 313.590161 
L 443.753497 313.590161 
z
" style="fill:#666666;"/>
   </g>
   <g id="patch_95">
    <path clip-path="url(#pff376a9122)" d="M 480.335664 315 
L 483.993881 315 
L 483.993881 311.774347 
L 480.335664 311.774347 
z
" style="fill:#666666;"/>
   </g>
   <g id="patch_96">
    <path clip-path="url(#pff376a9122)" d="M 516.917832 315 
L 520.576049 315 
L 520.576049 307.633808 
L 516.917832 307.633808 
z
" style="fill:#666666;"/>
   </g>
   <g id="patch_97">
    <path clip-path="url(#pff376a9122)" d="M 553.5 315 
L 557.158217 315 
L 557.158217 73.832854 
L 553.5 73.832854 
z
" style="fill:#666666;"/>
   </g>
   <g id="patch_98">
    <path clip-path="url(#pff376a9122)" d="M 590.082168 315 
L 593.740385 315 
L 593.740385 309.874908 
L 590.082168 309.874908 
z
" style="fill:#666666;"/>
   </g>
   <g id="patch_99">
    <path clip-path="url(#pff376a9122)" d="M 626.664336 315 
L 630.322552 315 
L 630.322552 312.364217 
L 626.664336 312.364217 
z
" style="fill:#666666;"/>
   </g>
   <g id="patch_100">
    <path clip-path="url(#pff376a9122)" d="M 663.246503 315 
L 666.90472 315 
L 666.90472 313.454489 
L 663.246503 313.454489 
z
" style="fill:#666666;"/>
   </g>
   <g id="patch_101">
    <path clip-path="url(#pff376a9122)" d="M 699.828671 315 
L 703.486888 315 
L 703.486888 314.02469 
L 699.828671 314.02469 
z
" style="fill:#666666;"/>
   </g>
   <g id="patch_102">
    <path clip-path="url(#pff376a9122)" d="M 736.410839 315 
L 740.069056 315 
L 740.069056 314.355886 
L 736.410839 314.355886 
z
" style="fill:#666666;"/>
   </g>
   <g id="patch_103">
    <path clip-path="url(#pff376a9122)" d="M 772.993007 315 
L 776.651224 315 
L 776.651224 314.570591 
L 772.993007 314.570591 
z
" style="fill:#666666;"/>
   </g>
   <g id="patch_104">
    <path clip-path="url(#pff376a9122)" d="M 809.575175 315 
L 813.233392 315 
L 813.233392 314.705581 
L 809.575175 314.705581 
z
" style="fill:#666666;"/>
   </g>
   <g id="patch_105">
    <path clip-path="url(#pff376a9122)" d="M 846.157343 315 
L 849.815559 315 
L 849.815559 314.795347 
L 846.157343 314.795347 
z
" style="fill:#666666;"/>
   </g>
   <g id="patch_106">
    <path clip-path="url(#pff376a9122)" d="M 882.73951 315 
L 886.397727 315 
L 886.397727 314.855884 
L 882.73951 314.855884 
z
" style="fill:#666666;"/>
   </g>
   <g id="patch_107">
    <path clip-path="url(#pff376a9122)" d="M 919.321678 315 
L 922.979895 315 
L 922.979895 314.89544 
L 919.321678 314.89544 
z
" style="fill:#666666;"/>
   </g>
   <g id="patch_108">
    <path clip-path="url(#pff376a9122)" d="M 191.336538 315 
L 194.994755 315 
L 194.994755 314.9984 
L 191.336538 314.9984 
z
" style="fill:#808080;"/>
   </g>
   <g id="patch_109">
    <path clip-path="url(#pff376a9122)" d="M 227.918706 315 
L 231.576923 315 
L 231.576923 314.997161 
L 227.918706 314.997161 
z
" style="fill:#808080;"/>
   </g>
   <g id="patch_110">
    <path clip-path="url(#pff376a9122)" d="M 264.500874 315 
L 268.159091 315 
L 268.159091 314.994954 
L 264.500874 314.994954 
z
" style="fill:#808080;"/>
   </g>
   <g id="patch_111">
    <path clip-path="url(#pff376a9122)" d="M 301.083042 315 
L 304.741259 315 
L 304.741259 314.990098 
L 301.083042 314.990098 
z
" style="fill:#808080;"/>
   </g>
   <g id="patch_112">
    <path clip-path="url(#pff376a9122)" d="M 337.66521 315 
L 341.323427 315 
L 341.323427 314.979298 
L 337.66521 314.979298 
z
" style="fill:#808080;"/>
   </g>
   <g id="patch_113">
    <path clip-path="url(#pff376a9122)" d="M 374.247378 315 
L 377.905594 315 
L 377.905594 314.955368 
L 374.247378 314.955368 
z
" style="fill:#808080;"/>
   </g>
   <g id="patch_114">
    <path clip-path="url(#pff376a9122)" d="M 410.829545 315 
L 414.487762 315 
L 414.487762 314.892395 
L 410.829545 314.892395 
z
" style="fill:#808080;"/>
   </g>
   <g id="patch_115">
    <path clip-path="url(#pff376a9122)" d="M 447.411713 315 
L 451.06993 315 
L 451.06993 314.687515 
L 447.411713 314.687515 
z
" style="fill:#808080;"/>
   </g>
   <g id="patch_116">
    <path clip-path="url(#pff376a9122)" d="M 483.993881 315 
L 487.652098 315 
L 487.652098 313.816047 
L 483.993881 313.816047 
z
" style="fill:#808080;"/>
   </g>
   <g id="patch_117">
    <path clip-path="url(#pff376a9122)" d="M 520.576049 315 
L 524.234266 315 
L 524.234266 307.664612 
L 520.576049 307.664612 
z
" style="fill:#808080;"/>
   </g>
   <g id="patch_118">
    <path clip-path="url(#pff376a9122)" d="M 557.158217 315 
L 560.816434 315 
L 560.816434 84.820753 
L 557.158217 84.820753 
z
" style="fill:#808080;"/>
   </g>
   <g id="patch_119">
    <path clip-path="url(#pff376a9122)" d="M 593.740385 315 
L 597.398601 315 
L 597.398601 295.048181 
L 593.740385 295.048181 
z
" style="fill:#808080;"/>
   </g>
   <g id="patch_120">
    <path clip-path="url(#pff376a9122)" d="M 630.322552 315 
L 633.980769 315 
L 633.980769 310.261433 
L 630.322552 310.261433 
z
" style="fill:#808080;"/>
   </g>
   <g id="patch_121">
    <path clip-path="url(#pff376a9122)" d="M 666.90472 315 
L 670.562937 315 
L 670.562937 313.433844 
L 666.90472 313.433844 
z
" style="fill:#808080;"/>
   </g>
   <g id="patch_122">
    <path clip-path="url(#pff376a9122)" d="M 703.486888 315 
L 707.145105 315 
L 707.145105 314.351101 
L 703.486888 314.351101 
z
" style="fill:#808080;"/>
   </g>
   <g id="patch_123">
    <path clip-path="url(#pff376a9122)" d="M 740.069056 315 
L 743.727273 315 
L 743.727273 314.691283 
L 740.069056 314.691283 
z
" style="fill:#808080;"/>
   </g>
   <g id="patch_124">
    <path clip-path="url(#pff376a9122)" d="M 776.651224 315 
L 780.309441 315 
L 780.309441 314.836467 
L 776.651224 314.836467 
z
" style="fill:#808080;"/>
   </g>
   <g id="patch_125">
    <path clip-path="url(#pff376a9122)" d="M 813.233392 315 
L 816.891608 315 
L 816.891608 314.907701 
L 813.233392 314.907701 
z
" style="fill:#808080;"/>
   </g>
   <g id="patch_126">
    <path clip-path="url(#pff376a9122)" d="M 849.815559 315 
L 853.473776 315 
L 853.473776 314.944154 
L 849.815559 314.944154 
z
" style="fill:#808080;"/>
   </g>
   <g id="patch_127">
    <path clip-path="url(#pff376a9122)" d="M 886.397727 315 
L 890.055944 315 
L 890.055944 314.965351 
L 886.397727 314.965351 
z
" style="fill:#808080;"/>
   </g>
   <g id="patch_128">
    <path clip-path="url(#pff376a9122)" d="M 922.979895 315 
L 926.638112 315 
L 926.638112 314.977211 
L 922.979895 314.977211 
z
" style="fill:#808080;"/>
   </g>
   <g id="patch_129">
    <path clip-path="url(#pff376a9122)" d="M 194.994755 315 
L 198.652972 315 
L 198.652972 314.999296 
L 194.994755 314.999296 
z
" style="fill:#999999;"/>
   </g>
   <g id="patch_130">
    <path clip-path="url(#pff376a9122)" d="M 231.576923 315 
L 235.23514 315 
L 235.23514 314.998915 
L 231.576923 314.998915 
z
" style="fill:#999999;"/>
   </g>
   <g id="patch_131">
    <path clip-path="url(#pff376a9122)" d="M 268.159091 315 
L 271.817308 315 
L 271.817308 314.99826 
L 268.159091 314.99826 
z
" style="fill:#999999;"/>
   </g>
   <g id="patch_132">
    <path clip-path="url(#pff376a9122)" d="M 304.741259 315 
L 308.399476 315 
L 308.399476 314.9965 
L 304.741259 314.9965 
z
" style="fill:#999999;"/>
   </g>
   <g id="patch_133">
    <path clip-path="url(#pff376a9122)" d="M 341.323427 315 
L 344.981643 315 
L 344.981643 314.994086 
L 341.323427 314.994086 
z
" style="fill:#999999;"/>
   </g>
   <g id="patch_134">
    <path clip-path="url(#pff376a9122)" d="M 377.905594 315 
L 381.563811 315 
L 381.563811 314.987888 
L 377.905594 314.987888 
z
" style="fill:#999999;"/>
   </g>
   <g id="patch_135">
    <path clip-path="url(#pff376a9122)" d="M 414.487762 315 
L 418.145979 315 
L 418.145979 314.97473 
L 414.487762 314.97473 
z
" style="fill:#999999;"/>
   </g>
   <g id="patch_136">
    <path clip-path="url(#pff376a9122)" d="M 451.06993 315 
L 454.728147 315 
L 454.728147 314.940543 
L 451.06993 314.940543 
z
" style="fill:#999999;"/>
   </g>
   <g id="patch_137">
    <path clip-path="url(#pff376a9122)" d="M 487.652098 315 
L 491.310315 315 
L 491.310315 314.808863 
L 487.652098 314.808863 
z
" style="fill:#999999;"/>
   </g>
   <g id="patch_138">
    <path clip-path="url(#pff376a9122)" d="M 524.234266 315 
L 527.892483 315 
L 527.892483 313.791216 
L 524.234266 313.791216 
z
" style="fill:#999999;"/>
   </g>
   <g id="patch_139">
    <path clip-path="url(#pff376a9122)" d="M 560.816434 315 
L 564.47465 315 
L 564.47465 56.142857 
L 560.816434 56.142857 
z
" style="fill:#999999;"/>
   </g>
   <g id="patch_140">
    <path clip-path="url(#pff376a9122)" d="M 597.398601 315 
L 601.056818 315 
L 601.056818 311.078474 
L 597.398601 311.078474 
z
" style="fill:#999999;"/>
   </g>
   <g id="patch_141">
    <path clip-path="url(#pff376a9122)" d="M 633.980769 315 
L 637.638986 315 
L 637.638986 313.82506 
L 633.980769 313.82506 
z
" style="fill:#999999;"/>
   </g>
   <g id="patch_142">
    <path clip-path="url(#pff376a9122)" d="M 670.562937 315 
L 674.221154 315 
L 674.221154 314.479895 
L 670.562937 314.479895 
z
" style="fill:#999999;"/>
   </g>
   <g id="patch_143">
    <path clip-path="url(#pff376a9122)" d="M 707.145105 315 
L 710.803322 315 
L 710.803322 314.71605 
L 707.145105 314.71605 
z
" style="fill:#999999;"/>
   </g>
   <g id="patch_144">
    <path clip-path="url(#pff376a9122)" d="M 743.727273 315 
L 747.38549 315 
L 747.38549 314.827847 
L 743.727273 314.827847 
z
" style="fill:#999999;"/>
   </g>
   <g id="patch_145">
    <path clip-path="url(#pff376a9122)" d="M 780.309441 315 
L 783.967657 315 
L 783.967657 314.887558 
L 780.309441 314.887558 
z
" style="fill:#999999;"/>
   </g>
   <g id="patch_146">
    <path clip-path="url(#pff376a9122)" d="M 816.891608 315 
L 820.549825 315 
L 820.549825 314.92367 
L 816.891608 314.92367 
z
" style="fill:#999999;"/>
   </g>
   <g id="patch_147">
    <path clip-path="url(#pff376a9122)" d="M 853.473776 315 
L 857.131993 315 
L 857.131993 314.944806 
L 853.473776 314.944806 
z
" style="fill:#999999;"/>
   </g>
   <g id="patch_148">
    <path clip-path="url(#pff376a9122)" d="M 890.055944 315 
L 893.714161 315 
L 893.714161 314.959978 
L 890.055944 314.959978 
z
" style="fill:#999999;"/>
   </g>
   <g id="patch_149">
    <path clip-path="url(#pff376a9122)" d="M 926.638112 315 
L 930.296329 315 
L 930.296329 314.971376 
L 926.638112 314.971376 
z
" style="fill:#999999;"/>
   </g>
   <g id="patch_150">
    <path clip-path="url(#pff376a9122)" d="M 198.652972 315 
L 202.311189 315 
L 202.311189 314.995894 
L 198.652972 314.995894 
z
" style="fill:#b3b3b3;"/>
   </g>
   <g id="patch_151">
    <path clip-path="url(#pff376a9122)" d="M 235.23514 315 
L 238.893357 315 
L 238.893357 314.993255 
L 235.23514 314.993255 
z
" style="fill:#b3b3b3;"/>
   </g>
   <g id="patch_152">
    <path clip-path="url(#pff376a9122)" d="M 271.817308 315 
L 275.475524 315 
L 275.475524 314.989403 
L 271.817308 314.989403 
z
" style="fill:#b3b3b3;"/>
   </g>
   <g id="patch_153">
    <path clip-path="url(#pff376a9122)" d="M 308.399476 315 
L 312.057692 315 
L 312.057692 314.984114 
L 308.399476 314.984114 
z
" style="fill:#b3b3b3;"/>
   </g>
   <g id="patch_154">
    <path clip-path="url(#pff376a9122)" d="M 344.981643 315 
L 348.63986 315 
L 348.63986 314.974114 
L 344.981643 314.974114 
z
" style="fill:#b3b3b3;"/>
   </g>
   <g id="patch_155">
    <path clip-path="url(#pff376a9122)" d="M 381.563811 315 
L 385.222028 315 
L 385.222028 314.959694 
L 381.563811 314.959694 
z
" style="fill:#b3b3b3;"/>
   </g>
   <g id="patch_156">
    <path clip-path="url(#pff376a9122)" d="M 418.145979 315 
L 421.804196 315 
L 421.804196 314.935206 
L 418.145979 314.935206 
z
" style="fill:#b3b3b3;"/>
   </g>
   <g id="patch_157">
    <path clip-path="url(#pff376a9122)" d="M 454.728147 315 
L 458.386364 315 
L 458.386364 314.886825 
L 454.728147 314.886825 
z
" style="fill:#b3b3b3;"/>
   </g>
   <g id="patch_158">
    <path clip-path="url(#pff376a9122)" d="M 491.310315 315 
L 494.968531 315 
L 494.968531 314.677006 
L 491.310315 314.677006 
z
" style="fill:#b3b3b3;"/>
   </g>
   <g id="patch_159">
    <path clip-path="url(#pff376a9122)" d="M 527.892483 315 
L 531.550699 315 
L 531.550699 310.082794 
L 527.892483 310.082794 
z
" style="fill:#b3b3b3;"/>
   </g>
   <g id="patch_160">
    <path clip-path="url(#pff376a9122)" d="M 564.47465 315 
L 568.132867 315 
L 568.132867 68.226117 
L 564.47465 68.226117 
z
" style="fill:#b3b3b3;"/>
   </g>
   <g id="patch_161">
    <path clip-path="url(#pff376a9122)" d="M 601.056818 315 
L 604.715035 315 
L 604.715035 302.584732 
L 601.056818 302.584732 
z
" style="fill:#b3b3b3;"/>
   </g>
   <g id="patch_162">
    <path clip-path="url(#pff376a9122)" d="M 637.638986 315 
L 641.297203 315 
L 641.297203 313.875562 
L 637.638986 313.875562 
z
" style="fill:#b3b3b3;"/>
   </g>
   <g id="patch_163">
    <path clip-path="url(#pff376a9122)" d="M 674.221154 315 
L 677.879371 315 
L 677.879371 314.633835 
L 674.221154 314.633835 
z
" style="fill:#b3b3b3;"/>
   </g>
   <g id="patch_164">
    <path clip-path="url(#pff376a9122)" d="M 710.803322 315 
L 714.461538 315 
L 714.461538 314.80374 
L 710.803322 314.80374 
z
" style="fill:#b3b3b3;"/>
   </g>
   <g id="patch_165">
    <path clip-path="url(#pff376a9122)" d="M 747.38549 315 
L 751.043706 315 
L 751.043706 314.870304 
L 747.38549 314.870304 
z
" style="fill:#b3b3b3;"/>
   </g>
   <g id="patch_166">
    <path clip-path="url(#pff376a9122)" d="M 783.967657 315 
L 787.625874 315 
L 787.625874 314.911069 
L 783.967657 314.911069 
z
" style="fill:#b3b3b3;"/>
   </g>
   <g id="patch_167">
    <path clip-path="url(#pff376a9122)" d="M 820.549825 315 
L 824.208042 315 
L 824.208042 314.937014 
L 820.549825 314.937014 
z
" style="fill:#b3b3b3;"/>
   </g>
   <g id="patch_168">
    <path clip-path="url(#pff376a9122)" d="M 857.131993 315 
L 860.79021 315 
L 860.79021 314.95597 
L 857.131993 314.95597 
z
" style="fill:#b3b3b3;"/>
   </g>
   <g id="patch_169">
    <path clip-path="url(#pff376a9122)" d="M 893.714161 315 
L 897.372378 315 
L 897.372378 314.968707 
L 893.714161 314.968707 
z
" style="fill:#b3b3b3;"/>
   </g>
   <g id="patch_170">
    <path clip-path="url(#pff376a9122)" d="M 930.296329 315 
L 933.954545 315 
L 933.954545 314.978063 
L 930.296329 314.978063 
z
" style="fill:#b3b3b3;"/>
   </g>
   <g id="matplotlib.axis_1">
    <g id="xtick_1">
     <g id="line2d_1">
      <defs>
       <path d="M 0 0 
L 0 3.5 
" id="mb16316279b" style="stroke:#000000;stroke-width:0.8;"/>
      </defs>
      <g>
       <use style="stroke:#000000;stroke-width:0.8;" x="156.583479" xlink:href="#mb16316279b" y="315"/>
      </g>
     </g>
     <g id="text_1">
      <!-- −11 -->
      <defs>
       <path d="M 10.59375 35.5 
L 73.1875 35.5 
L 73.1875 27.203125 
L 10.59375 27.203125 
z
" id="DejaVuSans-8722"/>
       <path d="M 12.40625 8.296875 
L 28.515625 8.296875 
L 28.515625 63.921875 
L 10.984375 60.40625 
L 10.984375 69.390625 
L 28.421875 72.90625 
L 38.28125 72.90625 
L 38.28125 8.296875 
L 54.390625 8.296875 
L 54.390625 0 
L 12.40625 0 
z
" id="DejaVuSans-49"/>
      </defs>
      <g transform="translate(146.031135 329.598437)scale(0.1 -0.1)">
       <use xlink:href="#DejaVuSans-8722"/>
       <use x="83.789062" xlink:href="#DejaVuSans-49"/>
       <use x="147.412109" xlink:href="#DejaVuSans-49"/>
      </g>
     </g>
    </g>
    <g id="xtick_2">
     <g id="line2d_2">
      <g>
       <use style="stroke:#000000;stroke-width:0.8;" x="193.165647" xlink:href="#mb16316279b" y="315"/>
      </g>
     </g>
     <g id="text_2">
      <!-- −10 -->
      <defs>
       <path d="M 31.78125 66.40625 
Q 24.171875 66.40625 20.328125 58.90625 
Q 16.5 51.421875 16.5 36.375 
Q 16.5 21.390625 20.328125 13.890625 
Q 24.171875 6.390625 31.78125 6.390625 
Q 39.453125 6.390625 43.28125 13.890625 
Q 47.125 21.390625 47.125 36.375 
Q 47.125 51.421875 43.28125 58.90625 
Q 39.453125 66.40625 31.78125 66.40625 
z
M 31.78125 74.21875 
Q 44.046875 74.21875 50.515625 64.515625 
Q 56.984375 54.828125 56.984375 36.375 
Q 56.984375 17.96875 50.515625 8.265625 
Q 44.046875 -1.421875 31.78125 -1.421875 
Q 19.53125 -1.421875 13.0625 8.265625 
Q 6.59375 17.96875 6.59375 36.375 
Q 6.59375 54.828125 13.0625 64.515625 
Q 19.53125 74.21875 31.78125 74.21875 
z
" id="DejaVuSans-48"/>
      </defs>
      <g transform="translate(182.613303 329.598437)scale(0.1 -0.1)">
       <use xlink:href="#DejaVuSans-8722"/>
       <use x="83.789062" xlink:href="#DejaVuSans-49"/>
       <use x="147.412109" xlink:href="#DejaVuSans-48"/>
      </g>
     </g>
    </g>
    <g id="xtick_3">
     <g id="line2d_3">
      <g>
       <use style="stroke:#000000;stroke-width:0.8;" x="229.747815" xlink:href="#mb16316279b" y="315"/>
      </g>
     </g>
     <g id="text_3">
      <!-- −9 -->
      <defs>
       <path d="M 10.984375 1.515625 
L 10.984375 10.5 
Q 14.703125 8.734375 18.5 7.8125 
Q 22.3125 6.890625 25.984375 6.890625 
Q 35.75 6.890625 40.890625 13.453125 
Q 46.046875 20.015625 46.78125 33.40625 
Q 43.953125 29.203125 39.59375 26.953125 
Q 35.25 24.703125 29.984375 24.703125 
Q 19.046875 24.703125 12.671875 31.3125 
Q 6.296875 37.9375 6.296875 49.421875 
Q 6.296875 60.640625 12.9375 67.421875 
Q 19.578125 74.21875 30.609375 74.21875 
Q 43.265625 74.21875 49.921875 64.515625 
Q 56.59375 54.828125 56.59375 36.375 
Q 56.59375 19.140625 48.40625 8.859375 
Q 40.234375 -1.421875 26.421875 -1.421875 
Q 22.703125 -1.421875 18.890625 -0.6875 
Q 15.09375 0.046875 10.984375 1.515625 
z
M 30.609375 32.421875 
Q 37.25 32.421875 41.125 36.953125 
Q 45.015625 41.5 45.015625 49.421875 
Q 45.015625 57.28125 41.125 61.84375 
Q 37.25 66.40625 30.609375 66.40625 
Q 23.96875 66.40625 20.09375 61.84375 
Q 16.21875 57.28125 16.21875 49.421875 
Q 16.21875 41.5 20.09375 36.953125 
Q 23.96875 32.421875 30.609375 32.421875 
z
" id="DejaVuSans-57"/>
      </defs>
      <g transform="translate(222.376721 329.598437)scale(0.1 -0.1)">
       <use xlink:href="#DejaVuSans-8722"/>
       <use x="83.789062" xlink:href="#DejaVuSans-57"/>
      </g>
     </g>
    </g>
    <g id="xtick_4">
     <g id="line2d_4">
      <g>
       <use style="stroke:#000000;stroke-width:0.8;" x="266.329983" xlink:href="#mb16316279b" y="315"/>
      </g>
     </g>
     <g id="text_4">
      <!-- −8 -->
      <defs>
       <path d="M 31.78125 34.625 
Q 24.75 34.625 20.71875 30.859375 
Q 16.703125 27.09375 16.703125 20.515625 
Q 16.703125 13.921875 20.71875 10.15625 
Q 24.75 6.390625 31.78125 6.390625 
Q 38.8125 6.390625 42.859375 10.171875 
Q 46.921875 13.96875 46.921875 20.515625 
Q 46.921875 27.09375 42.890625 30.859375 
Q 38.875 34.625 31.78125 34.625 
z
M 21.921875 38.8125 
Q 15.578125 40.375 12.03125 44.71875 
Q 8.5 49.078125 8.5 55.328125 
Q 8.5 64.0625 14.71875 69.140625 
Q 20.953125 74.21875 31.78125 74.21875 
Q 42.671875 74.21875 48.875 69.140625 
Q 55.078125 64.0625 55.078125 55.328125 
Q 55.078125 49.078125 51.53125 44.71875 
Q 48 40.375 41.703125 38.8125 
Q 48.828125 37.15625 52.796875 32.3125 
Q 56.78125 27.484375 56.78125 20.515625 
Q 56.78125 9.90625 50.3125 4.234375 
Q 43.84375 -1.421875 31.78125 -1.421875 
Q 19.734375 -1.421875 13.25 4.234375 
Q 6.78125 9.90625 6.78125 20.515625 
Q 6.78125 27.484375 10.78125 32.3125 
Q 14.796875 37.15625 21.921875 38.8125 
z
M 18.3125 54.390625 
Q 18.3125 48.734375 21.84375 45.5625 
Q 25.390625 42.390625 31.78125 42.390625 
Q 38.140625 42.390625 41.71875 45.5625 
Q 45.3125 48.734375 45.3125 54.390625 
Q 45.3125 60.0625 41.71875 63.234375 
Q 38.140625 66.40625 31.78125 66.40625 
Q 25.390625 66.40625 21.84375 63.234375 
Q 18.3125 60.0625 18.3125 54.390625 
z
" id="DejaVuSans-56"/>
      </defs>
      <g transform="translate(258.958889 329.598437)scale(0.1 -0.1)">
       <use xlink:href="#DejaVuSans-8722"/>
       <use x="83.789062" xlink:href="#DejaVuSans-56"/>
      </g>
     </g>
    </g>
    <g id="xtick_5">
     <g id="line2d_5">
      <g>
       <use style="stroke:#000000;stroke-width:0.8;" x="302.91215" xlink:href="#mb16316279b" y="315"/>
      </g>
     </g>
     <g id="text_5">
      <!-- −7 -->
      <defs>
       <path d="M 8.203125 72.90625 
L 55.078125 72.90625 
L 55.078125 68.703125 
L 28.609375 0 
L 18.3125 0 
L 43.21875 64.59375 
L 8.203125 64.59375 
z
" id="DejaVuSans-55"/>
      </defs>
      <g transform="translate(295.541057 329.598437)scale(0.1 -0.1)">
       <use xlink:href="#DejaVuSans-8722"/>
       <use x="83.789062" xlink:href="#DejaVuSans-55"/>
      </g>
     </g>
    </g>
    <g id="xtick_6">
     <g id="line2d_6">
      <g>
       <use style="stroke:#000000;stroke-width:0.8;" x="339.494318" xlink:href="#mb16316279b" y="315"/>
      </g>
     </g>
     <g id="text_6">
      <!-- −6 -->
      <defs>
       <path d="M 33.015625 40.375 
Q 26.375 40.375 22.484375 35.828125 
Q 18.609375 31.296875 18.609375 23.390625 
Q 18.609375 15.53125 22.484375 10.953125 
Q 26.375 6.390625 33.015625 6.390625 
Q 39.65625 6.390625 43.53125 10.953125 
Q 47.40625 15.53125 47.40625 23.390625 
Q 47.40625 31.296875 43.53125 35.828125 
Q 39.65625 40.375 33.015625 40.375 
z
M 52.59375 71.296875 
L 52.59375 62.3125 
Q 48.875 64.0625 45.09375 64.984375 
Q 41.3125 65.921875 37.59375 65.921875 
Q 27.828125 65.921875 22.671875 59.328125 
Q 17.53125 52.734375 16.796875 39.40625 
Q 19.671875 43.65625 24.015625 45.921875 
Q 28.375 48.1875 33.59375 48.1875 
Q 44.578125 48.1875 50.953125 41.515625 
Q 57.328125 34.859375 57.328125 23.390625 
Q 57.328125 12.15625 50.6875 5.359375 
Q 44.046875 -1.421875 33.015625 -1.421875 
Q 20.359375 -1.421875 13.671875 8.265625 
Q 6.984375 17.96875 6.984375 36.375 
Q 6.984375 53.65625 15.1875 63.9375 
Q 23.390625 74.21875 37.203125 74.21875 
Q 40.921875 74.21875 44.703125 73.484375 
Q 48.484375 72.75 52.59375 71.296875 
z
" id="DejaVuSans-54"/>
      </defs>
      <g transform="translate(332.123224 329.598437)scale(0.1 -0.1)">
       <use xlink:href="#DejaVuSans-8722"/>
       <use x="83.789062" xlink:href="#DejaVuSans-54"/>
      </g>
     </g>
    </g>
    <g id="xtick_7">
     <g id="line2d_7">
      <g>
       <use style="stroke:#000000;stroke-width:0.8;" x="376.076486" xlink:href="#mb16316279b" y="315"/>
      </g>
     </g>
     <g id="text_7">
      <!-- −5 -->
      <defs>
       <path d="M 10.796875 72.90625 
L 49.515625 72.90625 
L 49.515625 64.59375 
L 19.828125 64.59375 
L 19.828125 46.734375 
Q 21.96875 47.46875 24.109375 47.828125 
Q 26.265625 48.1875 28.421875 48.1875 
Q 40.625 48.1875 47.75 41.5 
Q 54.890625 34.8125 54.890625 23.390625 
Q 54.890625 11.625 47.5625 5.09375 
Q 40.234375 -1.421875 26.90625 -1.421875 
Q 22.3125 -1.421875 17.546875 -0.640625 
Q 12.796875 0.140625 7.71875 1.703125 
L 7.71875 11.625 
Q 12.109375 9.234375 16.796875 8.0625 
Q 21.484375 6.890625 26.703125 6.890625 
Q 35.15625 6.890625 40.078125 11.328125 
Q 45.015625 15.765625 45.015625 23.390625 
Q 45.015625 31 40.078125 35.4375 
Q 35.15625 39.890625 26.703125 39.890625 
Q 22.75 39.890625 18.8125 39.015625 
Q 14.890625 38.140625 10.796875 36.28125 
z
" id="DejaVuSans-53"/>
      </defs>
      <g transform="translate(368.705392 329.598437)scale(0.1 -0.1)">
       <use xlink:href="#DejaVuSans-8722"/>
       <use x="83.789062" xlink:href="#DejaVuSans-53"/>
      </g>
     </g>
    </g>
    <g id="xtick_8">
     <g id="line2d_8">
      <g>
       <use style="stroke:#000000;stroke-width:0.8;" x="412.658654" xlink:href="#mb16316279b" y="315"/>
      </g>
     </g>
     <g id="text_8">
      <!-- −4 -->
      <defs>
       <path d="M 37.796875 64.3125 
L 12.890625 25.390625 
L 37.796875 25.390625 
z
M 35.203125 72.90625 
L 47.609375 72.90625 
L 47.609375 25.390625 
L 58.015625 25.390625 
L 58.015625 17.1875 
L 47.609375 17.1875 
L 47.609375 0 
L 37.796875 0 
L 37.796875 17.1875 
L 4.890625 17.1875 
L 4.890625 26.703125 
z
" id="DejaVuSans-52"/>
      </defs>
      <g transform="translate(405.28756 329.598437)scale(0.1 -0.1)">
       <use xlink:href="#DejaVuSans-8722"/>
       <use x="83.789062" xlink:href="#DejaVuSans-52"/>
      </g>
     </g>
    </g>
    <g id="xtick_9">
     <g id="line2d_9">
      <g>
       <use style="stroke:#000000;stroke-width:0.8;" x="449.240822" xlink:href="#mb16316279b" y="315"/>
      </g>
     </g>
     <g id="text_9">
      <!-- −3 -->
      <defs>
       <path d="M 40.578125 39.3125 
Q 47.65625 37.796875 51.625 33 
Q 55.609375 28.21875 55.609375 21.1875 
Q 55.609375 10.40625 48.1875 4.484375 
Q 40.765625 -1.421875 27.09375 -1.421875 
Q 22.515625 -1.421875 17.65625 -0.515625 
Q 12.796875 0.390625 7.625 2.203125 
L 7.625 11.71875 
Q 11.71875 9.328125 16.59375 8.109375 
Q 21.484375 6.890625 26.8125 6.890625 
Q 36.078125 6.890625 40.9375 10.546875 
Q 45.796875 14.203125 45.796875 21.1875 
Q 45.796875 27.640625 41.28125 31.265625 
Q 36.765625 34.90625 28.71875 34.90625 
L 20.21875 34.90625 
L 20.21875 43.015625 
L 29.109375 43.015625 
Q 36.375 43.015625 40.234375 45.921875 
Q 44.09375 48.828125 44.09375 54.296875 
Q 44.09375 59.90625 40.109375 62.90625 
Q 36.140625 65.921875 28.71875 65.921875 
Q 24.65625 65.921875 20.015625 65.03125 
Q 15.375 64.15625 9.8125 62.3125 
L 9.8125 71.09375 
Q 15.4375 72.65625 20.34375 73.4375 
Q 25.25 74.21875 29.59375 74.21875 
Q 40.828125 74.21875 47.359375 69.109375 
Q 53.90625 64.015625 53.90625 55.328125 
Q 53.90625 49.265625 50.4375 45.09375 
Q 46.96875 40.921875 40.578125 39.3125 
z
" id="DejaVuSans-51"/>
      </defs>
      <g transform="translate(441.869728 329.598437)scale(0.1 -0.1)">
       <use xlink:href="#DejaVuSans-8722"/>
       <use x="83.789062" xlink:href="#DejaVuSans-51"/>
      </g>
     </g>
    </g>
    <g id="xtick_10">
     <g id="line2d_10">
      <g>
       <use style="stroke:#000000;stroke-width:0.8;" x="485.82299" xlink:href="#mb16316279b" y="315"/>
      </g>
     </g>
     <g id="text_10">
      <!-- −2 -->
      <defs>
       <path d="M 19.1875 8.296875 
L 53.609375 8.296875 
L 53.609375 0 
L 7.328125 0 
L 7.328125 8.296875 
Q 12.9375 14.109375 22.625 23.890625 
Q 32.328125 33.6875 34.8125 36.53125 
Q 39.546875 41.84375 41.421875 45.53125 
Q 43.3125 49.21875 43.3125 52.78125 
Q 43.3125 58.59375 39.234375 62.25 
Q 35.15625 65.921875 28.609375 65.921875 
Q 23.96875 65.921875 18.8125 64.3125 
Q 13.671875 62.703125 7.8125 59.421875 
L 7.8125 69.390625 
Q 13.765625 71.78125 18.9375 73 
Q 24.125 74.21875 28.421875 74.21875 
Q 39.75 74.21875 46.484375 68.546875 
Q 53.21875 62.890625 53.21875 53.421875 
Q 53.21875 48.921875 51.53125 44.890625 
Q 49.859375 40.875 45.40625 35.40625 
Q 44.1875 33.984375 37.640625 27.21875 
Q 31.109375 20.453125 19.1875 8.296875 
z
" id="DejaVuSans-50"/>
      </defs>
      <g transform="translate(478.451896 329.598437)scale(0.1 -0.1)">
       <use xlink:href="#DejaVuSans-8722"/>
       <use x="83.789062" xlink:href="#DejaVuSans-50"/>
      </g>
     </g>
    </g>
    <g id="xtick_11">
     <g id="line2d_11">
      <g>
       <use style="stroke:#000000;stroke-width:0.8;" x="522.405157" xlink:href="#mb16316279b" y="315"/>
      </g>
     </g>
     <g id="text_11">
      <!-- −1 -->
      <g transform="translate(515.034064 329.598437)scale(0.1 -0.1)">
       <use xlink:href="#DejaVuSans-8722"/>
       <use x="83.789062" xlink:href="#DejaVuSans-49"/>
      </g>
     </g>
    </g>
    <g id="xtick_12">
     <g id="line2d_12">
      <g>
       <use style="stroke:#000000;stroke-width:0.8;" x="558.987325" xlink:href="#mb16316279b" y="315"/>
      </g>
     </g>
     <g id="text_12">
      <!-- 0 -->
      <g transform="translate(555.806075 329.598437)scale(0.1 -0.1)">
       <use xlink:href="#DejaVuSans-48"/>
      </g>
     </g>
    </g>
    <g id="xtick_13">
     <g id="line2d_13">
      <g>
       <use style="stroke:#000000;stroke-width:0.8;" x="595.569493" xlink:href="#mb16316279b" y="315"/>
      </g>
     </g>
     <g id="text_13">
      <!-- 1 -->
      <g transform="translate(592.388243 329.598437)scale(0.1 -0.1)">
       <use xlink:href="#DejaVuSans-49"/>
      </g>
     </g>
    </g>
    <g id="xtick_14">
     <g id="line2d_14">
      <g>
       <use style="stroke:#000000;stroke-width:0.8;" x="632.151661" xlink:href="#mb16316279b" y="315"/>
      </g>
     </g>
     <g id="text_14">
      <!-- 2 -->
      <g transform="translate(628.970411 329.598437)scale(0.1 -0.1)">
       <use xlink:href="#DejaVuSans-50"/>
      </g>
     </g>
    </g>
    <g id="xtick_15">
     <g id="line2d_15">
      <g>
       <use style="stroke:#000000;stroke-width:0.8;" x="668.733829" xlink:href="#mb16316279b" y="315"/>
      </g>
     </g>
     <g id="text_15">
      <!-- 3 -->
      <g transform="translate(665.552579 329.598437)scale(0.1 -0.1)">
       <use xlink:href="#DejaVuSans-51"/>
      </g>
     </g>
    </g>
    <g id="xtick_16">
     <g id="line2d_16">
      <g>
       <use style="stroke:#000000;stroke-width:0.8;" x="705.315997" xlink:href="#mb16316279b" y="315"/>
      </g>
     </g>
     <g id="text_16">
      <!-- 4 -->
      <g transform="translate(702.134747 329.598437)scale(0.1 -0.1)">
       <use xlink:href="#DejaVuSans-52"/>
      </g>
     </g>
    </g>
    <g id="xtick_17">
     <g id="line2d_17">
      <g>
       <use style="stroke:#000000;stroke-width:0.8;" x="741.898164" xlink:href="#mb16316279b" y="315"/>
      </g>
     </g>
     <g id="text_17">
      <!-- 5 -->
      <g transform="translate(738.716914 329.598437)scale(0.1 -0.1)">
       <use xlink:href="#DejaVuSans-53"/>
      </g>
     </g>
    </g>
    <g id="xtick_18">
     <g id="line2d_18">
      <g>
       <use style="stroke:#000000;stroke-width:0.8;" x="778.480332" xlink:href="#mb16316279b" y="315"/>
      </g>
     </g>
     <g id="text_18">
      <!-- 6 -->
      <g transform="translate(775.299082 329.598437)scale(0.1 -0.1)">
       <use xlink:href="#DejaVuSans-54"/>
      </g>
     </g>
    </g>
    <g id="xtick_19">
     <g id="line2d_19">
      <g>
       <use style="stroke:#000000;stroke-width:0.8;" x="815.0625" xlink:href="#mb16316279b" y="315"/>
      </g>
     </g>
     <g id="text_19">
      <!-- 7 -->
      <g transform="translate(811.88125 329.598437)scale(0.1 -0.1)">
       <use xlink:href="#DejaVuSans-55"/>
      </g>
     </g>
    </g>
    <g id="xtick_20">
     <g id="line2d_20">
      <g>
       <use style="stroke:#000000;stroke-width:0.8;" x="851.644668" xlink:href="#mb16316279b" y="315"/>
      </g>
     </g>
     <g id="text_20">
      <!-- 8 -->
      <g transform="translate(848.463418 329.598437)scale(0.1 -0.1)">
       <use xlink:href="#DejaVuSans-56"/>
      </g>
     </g>
    </g>
    <g id="xtick_21">
     <g id="line2d_21">
      <g>
       <use style="stroke:#000000;stroke-width:0.8;" x="888.226836" xlink:href="#mb16316279b" y="315"/>
      </g>
     </g>
     <g id="text_21">
      <!-- 9 -->
      <g transform="translate(885.045586 329.598437)scale(0.1 -0.1)">
       <use xlink:href="#DejaVuSans-57"/>
      </g>
     </g>
    </g>
    <g id="xtick_22">
     <g id="line2d_22">
      <g>
       <use style="stroke:#000000;stroke-width:0.8;" x="924.809003" xlink:href="#mb16316279b" y="315"/>
      </g>
     </g>
     <g id="text_22">
      <!-- 10 -->
      <g transform="translate(918.446503 329.598437)scale(0.1 -0.1)">
       <use xlink:href="#DejaVuSans-49"/>
       <use x="63.623047" xlink:href="#DejaVuSans-48"/>
      </g>
     </g>
    </g>
    <g id="xtick_23">
     <g id="line2d_23">
      <g>
       <use style="stroke:#000000;stroke-width:0.8;" x="961.391171" xlink:href="#mb16316279b" y="315"/>
      </g>
     </g>
     <g id="text_23">
      <!-- 11 -->
      <g transform="translate(955.028671 329.598437)scale(0.1 -0.1)">
       <use xlink:href="#DejaVuSans-49"/>
       <use x="63.623047" xlink:href="#DejaVuSans-49"/>
      </g>
     </g>
    </g>
    <g id="text_24">
     <!-- Threshold -->
     <defs>
      <path d="M -0.296875 72.90625 
L 61.375 72.90625 
L 61.375 64.59375 
L 35.5 64.59375 
L 35.5 0 
L 25.59375 0 
L 25.59375 64.59375 
L -0.296875 64.59375 
z
" id="DejaVuSans-84"/>
      <path d="M 54.890625 33.015625 
L 54.890625 0 
L 45.90625 0 
L 45.90625 32.71875 
Q 45.90625 40.484375 42.875 44.328125 
Q 39.84375 48.1875 33.796875 48.1875 
Q 26.515625 48.1875 22.3125 43.546875 
Q 18.109375 38.921875 18.109375 30.90625 
L 18.109375 0 
L 9.078125 0 
L 9.078125 75.984375 
L 18.109375 75.984375 
L 18.109375 46.1875 
Q 21.34375 51.125 25.703125 53.5625 
Q 30.078125 56 35.796875 56 
Q 45.21875 56 50.046875 50.171875 
Q 54.890625 44.34375 54.890625 33.015625 
z
" id="DejaVuSans-104"/>
      <path d="M 41.109375 46.296875 
Q 39.59375 47.171875 37.8125 47.578125 
Q 36.03125 48 33.890625 48 
Q 26.265625 48 22.1875 43.046875 
Q 18.109375 38.09375 18.109375 28.8125 
L 18.109375 0 
L 9.078125 0 
L 9.078125 54.6875 
L 18.109375 54.6875 
L 18.109375 46.1875 
Q 20.953125 51.171875 25.484375 53.578125 
Q 30.03125 56 36.53125 56 
Q 37.453125 56 38.578125 55.875 
Q 39.703125 55.765625 41.0625 55.515625 
z
" id="DejaVuSans-114"/>
      <path d="M 56.203125 29.59375 
L 56.203125 25.203125 
L 14.890625 25.203125 
Q 15.484375 15.921875 20.484375 11.0625 
Q 25.484375 6.203125 34.421875 6.203125 
Q 39.59375 6.203125 44.453125 7.46875 
Q 49.3125 8.734375 54.109375 11.28125 
L 54.109375 2.78125 
Q 49.265625 0.734375 44.1875 -0.34375 
Q 39.109375 -1.421875 33.890625 -1.421875 
Q 20.796875 -1.421875 13.15625 6.1875 
Q 5.515625 13.8125 5.515625 26.8125 
Q 5.515625 40.234375 12.765625 48.109375 
Q 20.015625 56 32.328125 56 
Q 43.359375 56 49.78125 48.890625 
Q 56.203125 41.796875 56.203125 29.59375 
z
M 47.21875 32.234375 
Q 47.125 39.59375 43.09375 43.984375 
Q 39.0625 48.390625 32.421875 48.390625 
Q 24.90625 48.390625 20.390625 44.140625 
Q 15.875 39.890625 15.1875 32.171875 
z
" id="DejaVuSans-101"/>
      <path d="M 44.28125 53.078125 
L 44.28125 44.578125 
Q 40.484375 46.53125 36.375 47.5 
Q 32.28125 48.484375 27.875 48.484375 
Q 21.1875 48.484375 17.84375 46.4375 
Q 14.5 44.390625 14.5 40.28125 
Q 14.5 37.15625 16.890625 35.375 
Q 19.28125 33.59375 26.515625 31.984375 
L 29.59375 31.296875 
Q 39.15625 29.25 43.1875 25.515625 
Q 47.21875 21.78125 47.21875 15.09375 
Q 47.21875 7.46875 41.1875 3.015625 
Q 35.15625 -1.421875 24.609375 -1.421875 
Q 20.21875 -1.421875 15.453125 -0.5625 
Q 10.6875 0.296875 5.421875 2 
L 5.421875 11.28125 
Q 10.40625 8.6875 15.234375 7.390625 
Q 20.0625 6.109375 24.8125 6.109375 
Q 31.15625 6.109375 34.5625 8.28125 
Q 37.984375 10.453125 37.984375 14.40625 
Q 37.984375 18.0625 35.515625 20.015625 
Q 33.0625 21.96875 24.703125 23.78125 
L 21.578125 24.515625 
Q 13.234375 26.265625 9.515625 29.90625 
Q 5.8125 33.546875 5.8125 39.890625 
Q 5.8125 47.609375 11.28125 51.796875 
Q 16.75 56 26.8125 56 
Q 31.78125 56 36.171875 55.265625 
Q 40.578125 54.546875 44.28125 53.078125 
z
" id="DejaVuSans-115"/>
      <path d="M 30.609375 48.390625 
Q 23.390625 48.390625 19.1875 42.75 
Q 14.984375 37.109375 14.984375 27.296875 
Q 14.984375 17.484375 19.15625 11.84375 
Q 23.34375 6.203125 30.609375 6.203125 
Q 37.796875 6.203125 41.984375 11.859375 
Q 46.1875 17.53125 46.1875 27.296875 
Q 46.1875 37.015625 41.984375 42.703125 
Q 37.796875 48.390625 30.609375 48.390625 
z
M 30.609375 56 
Q 42.328125 56 49.015625 48.375 
Q 55.71875 40.765625 55.71875 27.296875 
Q 55.71875 13.875 49.015625 6.21875 
Q 42.328125 -1.421875 30.609375 -1.421875 
Q 18.84375 -1.421875 12.171875 6.21875 
Q 5.515625 13.875 5.515625 27.296875 
Q 5.515625 40.765625 12.171875 48.375 
Q 18.84375 56 30.609375 56 
z
" id="DejaVuSans-111"/>
      <path d="M 9.421875 75.984375 
L 18.40625 75.984375 
L 18.40625 0 
L 9.421875 0 
z
" id="DejaVuSans-108"/>
      <path d="M 45.40625 46.390625 
L 45.40625 75.984375 
L 54.390625 75.984375 
L 54.390625 0 
L 45.40625 0 
L 45.40625 8.203125 
Q 42.578125 3.328125 38.25 0.953125 
Q 33.9375 -1.421875 27.875 -1.421875 
Q 17.96875 -1.421875 11.734375 6.484375 
Q 5.515625 14.40625 5.515625 27.296875 
Q 5.515625 40.1875 11.734375 48.09375 
Q 17.96875 56 27.875 56 
Q 33.9375 56 38.25 53.625 
Q 42.578125 51.265625 45.40625 46.390625 
z
M 14.796875 27.296875 
Q 14.796875 17.390625 18.875 11.75 
Q 22.953125 6.109375 30.078125 6.109375 
Q 37.203125 6.109375 41.296875 11.75 
Q 45.40625 17.390625 45.40625 27.296875 
Q 45.40625 37.203125 41.296875 42.84375 
Q 37.203125 48.484375 30.078125 48.484375 
Q 22.953125 48.484375 18.875 42.84375 
Q 14.796875 37.203125 14.796875 27.296875 
z
" id="DejaVuSans-100"/>
     </defs>
     <g transform="translate(513.90125 347.835625)scale(0.16 -0.16)">
      <use xlink:href="#DejaVuSans-84"/>
      <use x="61.083984" xlink:href="#DejaVuSans-104"/>
      <use x="124.462891" xlink:href="#DejaVuSans-114"/>
      <use x="165.544922" xlink:href="#DejaVuSans-101"/>
      <use x="227.068359" xlink:href="#DejaVuSans-115"/>
      <use x="279.167969" xlink:href="#DejaVuSans-104"/>
      <use x="342.546875" xlink:href="#DejaVuSans-111"/>
      <use x="403.728516" xlink:href="#DejaVuSans-108"/>
      <use x="431.511719" xlink:href="#DejaVuSans-100"/>
     </g>
    </g>
   </g>
   <g id="matplotlib.axis_2">
    <g id="ytick_1">
     <g id="line2d_24">
      <defs>
       <path d="M 0 0 
L -3.5 0 
" id="mab4b2d0212" style="stroke:#000000;stroke-width:0.8;"/>
      </defs>
      <g>
       <use style="stroke:#000000;stroke-width:0.8;" x="135" xlink:href="#mab4b2d0212" y="315"/>
      </g>
     </g>
     <g id="text_25">
      <!-- 0 -->
      <g transform="translate(121.6375 318.799219)scale(0.1 -0.1)">
       <use xlink:href="#DejaVuSans-48"/>
      </g>
     </g>
    </g>
    <g id="ytick_2">
     <g id="line2d_25">
      <g>
       <use style="stroke:#000000;stroke-width:0.8;" x="135" xlink:href="#mab4b2d0212" y="288.316076"/>
      </g>
     </g>
     <g id="text_26">
      <!-- 10 -->
      <g transform="translate(115.275 292.115295)scale(0.1 -0.1)">
       <use xlink:href="#DejaVuSans-49"/>
       <use x="63.623047" xlink:href="#DejaVuSans-48"/>
      </g>
     </g>
    </g>
    <g id="ytick_3">
     <g id="line2d_26">
      <g>
       <use style="stroke:#000000;stroke-width:0.8;" x="135" xlink:href="#mab4b2d0212" y="261.632153"/>
      </g>
     </g>
     <g id="text_27">
      <!-- 20 -->
      <g transform="translate(115.275 265.431372)scale(0.1 -0.1)">
       <use xlink:href="#DejaVuSans-50"/>
       <use x="63.623047" xlink:href="#DejaVuSans-48"/>
      </g>
     </g>
    </g>
    <g id="ytick_4">
     <g id="line2d_27">
      <g>
       <use style="stroke:#000000;stroke-width:0.8;" x="135" xlink:href="#mab4b2d0212" y="234.948229"/>
      </g>
     </g>
     <g id="text_28">
      <!-- 30 -->
      <g transform="translate(115.275 238.747448)scale(0.1 -0.1)">
       <use xlink:href="#DejaVuSans-51"/>
       <use x="63.623047" xlink:href="#DejaVuSans-48"/>
      </g>
     </g>
    </g>
    <g id="ytick_5">
     <g id="line2d_28">
      <g>
       <use style="stroke:#000000;stroke-width:0.8;" x="135" xlink:href="#mab4b2d0212" y="208.264306"/>
      </g>
     </g>
     <g id="text_29">
      <!-- 40 -->
      <g transform="translate(115.275 212.063524)scale(0.1 -0.1)">
       <use xlink:href="#DejaVuSans-52"/>
       <use x="63.623047" xlink:href="#DejaVuSans-48"/>
      </g>
     </g>
    </g>
    <g id="ytick_6">
     <g id="line2d_29">
      <g>
       <use style="stroke:#000000;stroke-width:0.8;" x="135" xlink:href="#mab4b2d0212" y="181.580382"/>
      </g>
     </g>
     <g id="text_30">
      <!-- 50 -->
      <g transform="translate(115.275 185.379601)scale(0.1 -0.1)">
       <use xlink:href="#DejaVuSans-53"/>
       <use x="63.623047" xlink:href="#DejaVuSans-48"/>
      </g>
     </g>
    </g>
    <g id="ytick_7">
     <g id="line2d_30">
      <g>
       <use style="stroke:#000000;stroke-width:0.8;" x="135" xlink:href="#mab4b2d0212" y="154.896458"/>
      </g>
     </g>
     <g id="text_31">
      <!-- 60 -->
      <g transform="translate(115.275 158.695677)scale(0.1 -0.1)">
       <use xlink:href="#DejaVuSans-54"/>
       <use x="63.623047" xlink:href="#DejaVuSans-48"/>
      </g>
     </g>
    </g>
    <g id="ytick_8">
     <g id="line2d_31">
      <g>
       <use style="stroke:#000000;stroke-width:0.8;" x="135" xlink:href="#mab4b2d0212" y="128.212535"/>
      </g>
     </g>
     <g id="text_32">
      <!-- 70 -->
      <g transform="translate(115.275 132.011754)scale(0.1 -0.1)">
       <use xlink:href="#DejaVuSans-55"/>
       <use x="63.623047" xlink:href="#DejaVuSans-48"/>
      </g>
     </g>
    </g>
    <g id="ytick_9">
     <g id="line2d_32">
      <g>
       <use style="stroke:#000000;stroke-width:0.8;" x="135" xlink:href="#mab4b2d0212" y="101.528611"/>
      </g>
     </g>
     <g id="text_33">
      <!-- 80 -->
      <g transform="translate(115.275 105.32783)scale(0.1 -0.1)">
       <use xlink:href="#DejaVuSans-56"/>
       <use x="63.623047" xlink:href="#DejaVuSans-48"/>
      </g>
     </g>
    </g>
    <g id="ytick_10">
     <g id="line2d_33">
      <g>
       <use style="stroke:#000000;stroke-width:0.8;" x="135" xlink:href="#mab4b2d0212" y="74.844688"/>
      </g>
     </g>
     <g id="text_34">
      <!-- 90 -->
      <g transform="translate(115.275 78.643906)scale(0.1 -0.1)">
       <use xlink:href="#DejaVuSans-57"/>
       <use x="63.623047" xlink:href="#DejaVuSans-48"/>
      </g>
     </g>
    </g>
    <g id="ytick_11">
     <g id="line2d_34">
      <g>
       <use style="stroke:#000000;stroke-width:0.8;" x="135" xlink:href="#mab4b2d0212" y="48.160764"/>
      </g>
     </g>
     <g id="text_35">
      <!-- 100 -->
      <g transform="translate(108.9125 51.959983)scale(0.1 -0.1)">
       <use xlink:href="#DejaVuSans-49"/>
       <use x="63.623047" xlink:href="#DejaVuSans-48"/>
       <use x="127.246094" xlink:href="#DejaVuSans-48"/>
      </g>
     </g>
    </g>
    <g id="text_36">
     <!-- Proportion /% -->
     <defs>
      <path d="M 19.671875 64.796875 
L 19.671875 37.40625 
L 32.078125 37.40625 
Q 38.96875 37.40625 42.71875 40.96875 
Q 46.484375 44.53125 46.484375 51.125 
Q 46.484375 57.671875 42.71875 61.234375 
Q 38.96875 64.796875 32.078125 64.796875 
z
M 9.8125 72.90625 
L 32.078125 72.90625 
Q 44.34375 72.90625 50.609375 67.359375 
Q 56.890625 61.8125 56.890625 51.125 
Q 56.890625 40.328125 50.609375 34.8125 
Q 44.34375 29.296875 32.078125 29.296875 
L 19.671875 29.296875 
L 19.671875 0 
L 9.8125 0 
z
" id="DejaVuSans-80"/>
      <path d="M 18.109375 8.203125 
L 18.109375 -20.796875 
L 9.078125 -20.796875 
L 9.078125 54.6875 
L 18.109375 54.6875 
L 18.109375 46.390625 
Q 20.953125 51.265625 25.265625 53.625 
Q 29.59375 56 35.59375 56 
Q 45.5625 56 51.78125 48.09375 
Q 58.015625 40.1875 58.015625 27.296875 
Q 58.015625 14.40625 51.78125 6.484375 
Q 45.5625 -1.421875 35.59375 -1.421875 
Q 29.59375 -1.421875 25.265625 0.953125 
Q 20.953125 3.328125 18.109375 8.203125 
z
M 48.6875 27.296875 
Q 48.6875 37.203125 44.609375 42.84375 
Q 40.53125 48.484375 33.40625 48.484375 
Q 26.265625 48.484375 22.1875 42.84375 
Q 18.109375 37.203125 18.109375 27.296875 
Q 18.109375 17.390625 22.1875 11.75 
Q 26.265625 6.109375 33.40625 6.109375 
Q 40.53125 6.109375 44.609375 11.75 
Q 48.6875 17.390625 48.6875 27.296875 
z
" id="DejaVuSans-112"/>
      <path d="M 18.3125 70.21875 
L 18.3125 54.6875 
L 36.8125 54.6875 
L 36.8125 47.703125 
L 18.3125 47.703125 
L 18.3125 18.015625 
Q 18.3125 11.328125 20.140625 9.421875 
Q 21.96875 7.515625 27.59375 7.515625 
L 36.8125 7.515625 
L 36.8125 0 
L 27.59375 0 
Q 17.1875 0 13.234375 3.875 
Q 9.28125 7.765625 9.28125 18.015625 
L 9.28125 47.703125 
L 2.6875 47.703125 
L 2.6875 54.6875 
L 9.28125 54.6875 
L 9.28125 70.21875 
z
" id="DejaVuSans-116"/>
      <path d="M 9.421875 54.6875 
L 18.40625 54.6875 
L 18.40625 0 
L 9.421875 0 
z
M 9.421875 75.984375 
L 18.40625 75.984375 
L 18.40625 64.59375 
L 9.421875 64.59375 
z
" id="DejaVuSans-105"/>
      <path d="M 54.890625 33.015625 
L 54.890625 0 
L 45.90625 0 
L 45.90625 32.71875 
Q 45.90625 40.484375 42.875 44.328125 
Q 39.84375 48.1875 33.796875 48.1875 
Q 26.515625 48.1875 22.3125 43.546875 
Q 18.109375 38.921875 18.109375 30.90625 
L 18.109375 0 
L 9.078125 0 
L 9.078125 54.6875 
L 18.109375 54.6875 
L 18.109375 46.1875 
Q 21.34375 51.125 25.703125 53.5625 
Q 30.078125 56 35.796875 56 
Q 45.21875 56 50.046875 50.171875 
Q 54.890625 44.34375 54.890625 33.015625 
z
" id="DejaVuSans-110"/>
      <path id="DejaVuSans-32"/>
      <path d="M 25.390625 72.90625 
L 33.6875 72.90625 
L 8.296875 -9.28125 
L 0 -9.28125 
z
" id="DejaVuSans-47"/>
      <path d="M 72.703125 32.078125 
Q 68.453125 32.078125 66.03125 28.46875 
Q 63.625 24.859375 63.625 18.40625 
Q 63.625 12.0625 66.03125 8.421875 
Q 68.453125 4.78125 72.703125 4.78125 
Q 76.859375 4.78125 79.265625 8.421875 
Q 81.6875 12.0625 81.6875 18.40625 
Q 81.6875 24.8125 79.265625 28.4375 
Q 76.859375 32.078125 72.703125 32.078125 
z
M 72.703125 38.28125 
Q 80.421875 38.28125 84.953125 32.90625 
Q 89.5 27.546875 89.5 18.40625 
Q 89.5 9.28125 84.9375 3.921875 
Q 80.375 -1.421875 72.703125 -1.421875 
Q 64.890625 -1.421875 60.34375 3.921875 
Q 55.8125 9.28125 55.8125 18.40625 
Q 55.8125 27.59375 60.375 32.9375 
Q 64.9375 38.28125 72.703125 38.28125 
z
M 22.3125 68.015625 
Q 18.109375 68.015625 15.6875 64.375 
Q 13.28125 60.75 13.28125 54.390625 
Q 13.28125 47.953125 15.671875 44.328125 
Q 18.0625 40.71875 22.3125 40.71875 
Q 26.5625 40.71875 28.96875 44.328125 
Q 31.390625 47.953125 31.390625 54.390625 
Q 31.390625 60.6875 28.953125 64.34375 
Q 26.515625 68.015625 22.3125 68.015625 
z
M 66.40625 74.21875 
L 74.21875 74.21875 
L 28.609375 -1.421875 
L 20.796875 -1.421875 
z
M 22.3125 74.21875 
Q 30.03125 74.21875 34.609375 68.875 
Q 39.203125 63.53125 39.203125 54.390625 
Q 39.203125 45.171875 34.640625 39.84375 
Q 30.078125 34.515625 22.3125 34.515625 
Q 14.546875 34.515625 10.03125 39.859375 
Q 5.515625 45.21875 5.515625 54.390625 
Q 5.515625 63.484375 10.046875 68.84375 
Q 14.59375 74.21875 22.3125 74.21875 
z
" id="DejaVuSans-37"/>
     </defs>
     <g transform="translate(101.585 233.52875)rotate(-90)scale(0.16 -0.16)">
      <use xlink:href="#DejaVuSans-80"/>
      <use x="60.287109" xlink:href="#DejaVuSans-114"/>
      <use x="101.369141" xlink:href="#DejaVuSans-111"/>
      <use x="162.550781" xlink:href="#DejaVuSans-112"/>
      <use x="226.027344" xlink:href="#DejaVuSans-111"/>
      <use x="287.208984" xlink:href="#DejaVuSans-114"/>
      <use x="328.322266" xlink:href="#DejaVuSans-116"/>
      <use x="367.53125" xlink:href="#DejaVuSans-105"/>
      <use x="395.314453" xlink:href="#DejaVuSans-111"/>
      <use x="456.496094" xlink:href="#DejaVuSans-110"/>
      <use x="519.875" xlink:href="#DejaVuSans-32"/>
      <use x="551.662109" xlink:href="#DejaVuSans-47"/>
      <use x="585.353516" xlink:href="#DejaVuSans-37"/>
     </g>
    </g>
   </g>
   <g id="patch_171">
    <path d="M 135 315 
L 135 43.2 
" style="fill:none;stroke:#000000;stroke-linecap:square;stroke-linejoin:miter;stroke-width:0.8;"/>
   </g>
   <g id="patch_172">
    <path d="M 972 315 
L 972 43.2 
" style="fill:none;stroke:#000000;stroke-linecap:square;stroke-linejoin:miter;stroke-width:0.8;"/>
   </g>
   <g id="patch_173">
    <path d="M 135 315 
L 972 315 
" style="fill:none;stroke:#000000;stroke-linecap:square;stroke-linejoin:miter;stroke-width:0.8;"/>
   </g>
   <g id="patch_174">
    <path d="M 135 43.2 
L 972 43.2 
" style="fill:none;stroke:#000000;stroke-linecap:square;stroke-linejoin:miter;stroke-width:0.8;"/>
   </g>
   <g id="text_37">
    <!-- c3d_tdvd_branch_sigmoid_sp2th_baseframe_fixththentrain_uniformth_extract.csv -->
    <defs>
     <path d="M 48.78125 52.59375 
L 48.78125 44.1875 
Q 44.96875 46.296875 41.140625 47.34375 
Q 37.3125 48.390625 33.40625 48.390625 
Q 24.65625 48.390625 19.8125 42.84375 
Q 14.984375 37.3125 14.984375 27.296875 
Q 14.984375 17.28125 19.8125 11.734375 
Q 24.65625 6.203125 33.40625 6.203125 
Q 37.3125 6.203125 41.140625 7.25 
Q 44.96875 8.296875 48.78125 10.40625 
L 48.78125 2.09375 
Q 45.015625 0.34375 40.984375 -0.53125 
Q 36.96875 -1.421875 32.421875 -1.421875 
Q 20.0625 -1.421875 12.78125 6.34375 
Q 5.515625 14.109375 5.515625 27.296875 
Q 5.515625 40.671875 12.859375 48.328125 
Q 20.21875 56 33.015625 56 
Q 37.15625 56 41.109375 55.140625 
Q 45.0625 54.296875 48.78125 52.59375 
z
" id="DejaVuSans-99"/>
     <path d="M 50.984375 -16.609375 
L 50.984375 -23.578125 
L -0.984375 -23.578125 
L -0.984375 -16.609375 
z
" id="DejaVuSans-95"/>
     <path d="M 2.984375 54.6875 
L 12.5 54.6875 
L 29.59375 8.796875 
L 46.6875 54.6875 
L 56.203125 54.6875 
L 35.6875 0 
L 23.484375 0 
z
" id="DejaVuSans-118"/>
     <path d="M 48.6875 27.296875 
Q 48.6875 37.203125 44.609375 42.84375 
Q 40.53125 48.484375 33.40625 48.484375 
Q 26.265625 48.484375 22.1875 42.84375 
Q 18.109375 37.203125 18.109375 27.296875 
Q 18.109375 17.390625 22.1875 11.75 
Q 26.265625 6.109375 33.40625 6.109375 
Q 40.53125 6.109375 44.609375 11.75 
Q 48.6875 17.390625 48.6875 27.296875 
z
M 18.109375 46.390625 
Q 20.953125 51.265625 25.265625 53.625 
Q 29.59375 56 35.59375 56 
Q 45.5625 56 51.78125 48.09375 
Q 58.015625 40.1875 58.015625 27.296875 
Q 58.015625 14.40625 51.78125 6.484375 
Q 45.5625 -1.421875 35.59375 -1.421875 
Q 29.59375 -1.421875 25.265625 0.953125 
Q 20.953125 3.328125 18.109375 8.203125 
L 18.109375 0 
L 9.078125 0 
L 9.078125 75.984375 
L 18.109375 75.984375 
z
" id="DejaVuSans-98"/>
     <path d="M 34.28125 27.484375 
Q 23.390625 27.484375 19.1875 25 
Q 14.984375 22.515625 14.984375 16.5 
Q 14.984375 11.71875 18.140625 8.90625 
Q 21.296875 6.109375 26.703125 6.109375 
Q 34.1875 6.109375 38.703125 11.40625 
Q 43.21875 16.703125 43.21875 25.484375 
L 43.21875 27.484375 
z
M 52.203125 31.203125 
L 52.203125 0 
L 43.21875 0 
L 43.21875 8.296875 
Q 40.140625 3.328125 35.546875 0.953125 
Q 30.953125 -1.421875 24.3125 -1.421875 
Q 15.921875 -1.421875 10.953125 3.296875 
Q 6 8.015625 6 15.921875 
Q 6 25.140625 12.171875 29.828125 
Q 18.359375 34.515625 30.609375 34.515625 
L 43.21875 34.515625 
L 43.21875 35.40625 
Q 43.21875 41.609375 39.140625 45 
Q 35.0625 48.390625 27.6875 48.390625 
Q 23 48.390625 18.546875 47.265625 
Q 14.109375 46.140625 10.015625 43.890625 
L 10.015625 52.203125 
Q 14.9375 54.109375 19.578125 55.046875 
Q 24.21875 56 28.609375 56 
Q 40.484375 56 46.34375 49.84375 
Q 52.203125 43.703125 52.203125 31.203125 
z
" id="DejaVuSans-97"/>
     <path d="M 45.40625 27.984375 
Q 45.40625 37.75 41.375 43.109375 
Q 37.359375 48.484375 30.078125 48.484375 
Q 22.859375 48.484375 18.828125 43.109375 
Q 14.796875 37.75 14.796875 27.984375 
Q 14.796875 18.265625 18.828125 12.890625 
Q 22.859375 7.515625 30.078125 7.515625 
Q 37.359375 7.515625 41.375 12.890625 
Q 45.40625 18.265625 45.40625 27.984375 
z
M 54.390625 6.78125 
Q 54.390625 -7.171875 48.1875 -13.984375 
Q 42 -20.796875 29.203125 -20.796875 
Q 24.46875 -20.796875 20.265625 -20.09375 
Q 16.0625 -19.390625 12.109375 -17.921875 
L 12.109375 -9.1875 
Q 16.0625 -11.328125 19.921875 -12.34375 
Q 23.78125 -13.375 27.78125 -13.375 
Q 36.625 -13.375 41.015625 -8.765625 
Q 45.40625 -4.15625 45.40625 5.171875 
L 45.40625 9.625 
Q 42.625 4.78125 38.28125 2.390625 
Q 33.9375 0 27.875 0 
Q 17.828125 0 11.671875 7.65625 
Q 5.515625 15.328125 5.515625 27.984375 
Q 5.515625 40.671875 11.671875 48.328125 
Q 17.828125 56 27.875 56 
Q 33.9375 56 38.28125 53.609375 
Q 42.625 51.21875 45.40625 46.390625 
L 45.40625 54.6875 
L 54.390625 54.6875 
z
" id="DejaVuSans-103"/>
     <path d="M 52 44.1875 
Q 55.375 50.25 60.0625 53.125 
Q 64.75 56 71.09375 56 
Q 79.640625 56 84.28125 50.015625 
Q 88.921875 44.046875 88.921875 33.015625 
L 88.921875 0 
L 79.890625 0 
L 79.890625 32.71875 
Q 79.890625 40.578125 77.09375 44.375 
Q 74.3125 48.1875 68.609375 48.1875 
Q 61.625 48.1875 57.5625 43.546875 
Q 53.515625 38.921875 53.515625 30.90625 
L 53.515625 0 
L 44.484375 0 
L 44.484375 32.71875 
Q 44.484375 40.625 41.703125 44.40625 
Q 38.921875 48.1875 33.109375 48.1875 
Q 26.21875 48.1875 22.15625 43.53125 
Q 18.109375 38.875 18.109375 30.90625 
L 18.109375 0 
L 9.078125 0 
L 9.078125 54.6875 
L 18.109375 54.6875 
L 18.109375 46.1875 
Q 21.1875 51.21875 25.484375 53.609375 
Q 29.78125 56 35.6875 56 
Q 41.65625 56 45.828125 52.96875 
Q 50 49.953125 52 44.1875 
z
" id="DejaVuSans-109"/>
     <path d="M 37.109375 75.984375 
L 37.109375 68.5 
L 28.515625 68.5 
Q 23.6875 68.5 21.796875 66.546875 
Q 19.921875 64.59375 19.921875 59.515625 
L 19.921875 54.6875 
L 34.71875 54.6875 
L 34.71875 47.703125 
L 19.921875 47.703125 
L 19.921875 0 
L 10.890625 0 
L 10.890625 47.703125 
L 2.296875 47.703125 
L 2.296875 54.6875 
L 10.890625 54.6875 
L 10.890625 58.5 
Q 10.890625 67.625 15.140625 71.796875 
Q 19.390625 75.984375 28.609375 75.984375 
z
" id="DejaVuSans-102"/>
     <path d="M 54.890625 54.6875 
L 35.109375 28.078125 
L 55.90625 0 
L 45.3125 0 
L 29.390625 21.484375 
L 13.484375 0 
L 2.875 0 
L 24.125 28.609375 
L 4.6875 54.6875 
L 15.28125 54.6875 
L 29.78125 35.203125 
L 44.28125 54.6875 
z
" id="DejaVuSans-120"/>
     <path d="M 8.5 21.578125 
L 8.5 54.6875 
L 17.484375 54.6875 
L 17.484375 21.921875 
Q 17.484375 14.15625 20.5 10.265625 
Q 23.53125 6.390625 29.59375 6.390625 
Q 36.859375 6.390625 41.078125 11.03125 
Q 45.3125 15.671875 45.3125 23.6875 
L 45.3125 54.6875 
L 54.296875 54.6875 
L 54.296875 0 
L 45.3125 0 
L 45.3125 8.40625 
Q 42.046875 3.421875 37.71875 1 
Q 33.40625 -1.421875 27.6875 -1.421875 
Q 18.265625 -1.421875 13.375 4.4375 
Q 8.5 10.296875 8.5 21.578125 
z
M 31.109375 56 
z
" id="DejaVuSans-117"/>
     <path d="M 10.6875 12.40625 
L 21 12.40625 
L 21 0 
L 10.6875 0 
z
" id="DejaVuSans-46"/>
    </defs>
    <g transform="translate(307.71 37.2)scale(0.12 -0.12)">
     <use xlink:href="#DejaVuSans-99"/>
     <use x="54.980469" xlink:href="#DejaVuSans-51"/>
     <use x="118.603516" xlink:href="#DejaVuSans-100"/>
     <use x="182.080078" xlink:href="#DejaVuSans-95"/>
     <use x="232.080078" xlink:href="#DejaVuSans-116"/>
     <use x="271.289062" xlink:href="#DejaVuSans-100"/>
     <use x="334.765625" xlink:href="#DejaVuSans-118"/>
     <use x="393.945312" xlink:href="#DejaVuSans-100"/>
     <use x="457.421875" xlink:href="#DejaVuSans-95"/>
     <use x="507.421875" xlink:href="#DejaVuSans-98"/>
     <use x="570.898438" xlink:href="#DejaVuSans-114"/>
     <use x="612.011719" xlink:href="#DejaVuSans-97"/>
     <use x="673.291016" xlink:href="#DejaVuSans-110"/>
     <use x="736.669922" xlink:href="#DejaVuSans-99"/>
     <use x="791.650391" xlink:href="#DejaVuSans-104"/>
     <use x="855.029297" xlink:href="#DejaVuSans-95"/>
     <use x="905.029297" xlink:href="#DejaVuSans-115"/>
     <use x="957.128906" xlink:href="#DejaVuSans-105"/>
     <use x="984.912109" xlink:href="#DejaVuSans-103"/>
     <use x="1048.388672" xlink:href="#DejaVuSans-109"/>
     <use x="1145.800781" xlink:href="#DejaVuSans-111"/>
     <use x="1206.982422" xlink:href="#DejaVuSans-105"/>
     <use x="1234.765625" xlink:href="#DejaVuSans-100"/>
     <use x="1298.242188" xlink:href="#DejaVuSans-95"/>
     <use x="1348.242188" xlink:href="#DejaVuSans-115"/>
     <use x="1400.341797" xlink:href="#DejaVuSans-112"/>
     <use x="1463.818359" xlink:href="#DejaVuSans-50"/>
     <use x="1527.441406" xlink:href="#DejaVuSans-116"/>
     <use x="1566.650391" xlink:href="#DejaVuSans-104"/>
     <use x="1630.029297" xlink:href="#DejaVuSans-95"/>
     <use x="1680.029297" xlink:href="#DejaVuSans-98"/>
     <use x="1743.505859" xlink:href="#DejaVuSans-97"/>
     <use x="1804.785156" xlink:href="#DejaVuSans-115"/>
     <use x="1856.884766" xlink:href="#DejaVuSans-101"/>
     <use x="1918.408203" xlink:href="#DejaVuSans-102"/>
     <use x="1953.613281" xlink:href="#DejaVuSans-114"/>
     <use x="1994.726562" xlink:href="#DejaVuSans-97"/>
     <use x="2056.005859" xlink:href="#DejaVuSans-109"/>
     <use x="2153.417969" xlink:href="#DejaVuSans-101"/>
     <use x="2214.941406" xlink:href="#DejaVuSans-95"/>
     <use x="2264.941406" xlink:href="#DejaVuSans-102"/>
     <use x="2300.146484" xlink:href="#DejaVuSans-105"/>
     <use x="2327.929688" xlink:href="#DejaVuSans-120"/>
     <use x="2387.109375" xlink:href="#DejaVuSans-116"/>
     <use x="2426.318359" xlink:href="#DejaVuSans-104"/>
     <use x="2489.697266" xlink:href="#DejaVuSans-116"/>
     <use x="2528.90625" xlink:href="#DejaVuSans-104"/>
     <use x="2592.285156" xlink:href="#DejaVuSans-101"/>
     <use x="2653.808594" xlink:href="#DejaVuSans-110"/>
     <use x="2717.1875" xlink:href="#DejaVuSans-116"/>
     <use x="2756.396484" xlink:href="#DejaVuSans-114"/>
     <use x="2797.509766" xlink:href="#DejaVuSans-97"/>
     <use x="2858.789062" xlink:href="#DejaVuSans-105"/>
     <use x="2886.572266" xlink:href="#DejaVuSans-110"/>
     <use x="2949.951172" xlink:href="#DejaVuSans-95"/>
     <use x="2999.951172" xlink:href="#DejaVuSans-117"/>
     <use x="3063.330078" xlink:href="#DejaVuSans-110"/>
     <use x="3126.708984" xlink:href="#DejaVuSans-105"/>
     <use x="3154.492188" xlink:href="#DejaVuSans-102"/>
     <use x="3189.697266" xlink:href="#DejaVuSans-111"/>
     <use x="3250.878906" xlink:href="#DejaVuSans-114"/>
     <use x="3291.976562" xlink:href="#DejaVuSans-109"/>
     <use x="3389.388672" xlink:href="#DejaVuSans-116"/>
     <use x="3428.597656" xlink:href="#DejaVuSans-104"/>
     <use x="3491.976562" xlink:href="#DejaVuSans-95"/>
     <use x="3541.976562" xlink:href="#DejaVuSans-101"/>
     <use x="3603.484375" xlink:href="#DejaVuSans-120"/>
     <use x="3662.664062" xlink:href="#DejaVuSans-116"/>
     <use x="3701.873047" xlink:href="#DejaVuSans-114"/>
     <use x="3742.986328" xlink:href="#DejaVuSans-97"/>
     <use x="3804.265625" xlink:href="#DejaVuSans-99"/>
     <use x="3859.246094" xlink:href="#DejaVuSans-116"/>
     <use x="3898.455078" xlink:href="#DejaVuSans-46"/>
     <use x="3930.242188" xlink:href="#DejaVuSans-99"/>
     <use x="3985.222656" xlink:href="#DejaVuSans-115"/>
     <use x="4037.322266" xlink:href="#DejaVuSans-118"/>
    </g>
   </g>
   <g id="legend_1">
    <g id="patch_175">
     <path d="M 865.007187 218.795 
L 962.2 218.795 
Q 965 218.795 965 215.995 
L 965 53 
Q 965 50.2 962.2 50.2 
L 865.007187 50.2 
Q 862.207188 50.2 862.207188 53 
L 862.207188 215.995 
Q 862.207188 218.795 865.007187 218.795 
z
" style="fill:#ffffff;opacity:0.8;stroke:#cccccc;stroke-linejoin:miter;"/>
    </g>
    <g id="patch_176">
     <path d="M 867.807188 66.437812 
L 895.807188 66.437812 
L 895.807188 56.637812 
L 867.807188 56.637812 
z
"/>
    </g>
    <g id="text_38">
     <!-- Layer 1 -->
     <defs>
      <path d="M 9.8125 72.90625 
L 19.671875 72.90625 
L 19.671875 8.296875 
L 55.171875 8.296875 
L 55.171875 0 
L 9.8125 0 
z
" id="DejaVuSans-76"/>
      <path d="M 32.171875 -5.078125 
Q 28.375 -14.84375 24.75 -17.8125 
Q 21.140625 -20.796875 15.09375 -20.796875 
L 7.90625 -20.796875 
L 7.90625 -13.28125 
L 13.1875 -13.28125 
Q 16.890625 -13.28125 18.9375 -11.515625 
Q 21 -9.765625 23.484375 -3.21875 
L 25.09375 0.875 
L 2.984375 54.6875 
L 12.5 54.6875 
L 29.59375 11.921875 
L 46.6875 54.6875 
L 56.203125 54.6875 
z
" id="DejaVuSans-121"/>
     </defs>
     <g transform="translate(907.007188 66.437812)scale(0.14 -0.14)">
      <use xlink:href="#DejaVuSans-76"/>
      <use x="55.712891" xlink:href="#DejaVuSans-97"/>
      <use x="116.992188" xlink:href="#DejaVuSans-121"/>
      <use x="176.171875" xlink:href="#DejaVuSans-101"/>
      <use x="237.695312" xlink:href="#DejaVuSans-114"/>
      <use x="278.808594" xlink:href="#DejaVuSans-32"/>
      <use x="310.595703" xlink:href="#DejaVuSans-49"/>
     </g>
    </g>
    <g id="patch_177">
     <path d="M 867.807188 86.987187 
L 895.807188 86.987187 
L 895.807188 77.187187 
L 867.807188 77.187187 
z
" style="fill:#1a1a1a;"/>
    </g>
    <g id="text_39">
     <!-- Layer 2 -->
     <g transform="translate(907.007188 86.987187)scale(0.14 -0.14)">
      <use xlink:href="#DejaVuSans-76"/>
      <use x="55.712891" xlink:href="#DejaVuSans-97"/>
      <use x="116.992188" xlink:href="#DejaVuSans-121"/>
      <use x="176.171875" xlink:href="#DejaVuSans-101"/>
      <use x="237.695312" xlink:href="#DejaVuSans-114"/>
      <use x="278.808594" xlink:href="#DejaVuSans-32"/>
      <use x="310.595703" xlink:href="#DejaVuSans-50"/>
     </g>
    </g>
    <g id="patch_178">
     <path d="M 867.807188 107.536562 
L 895.807188 107.536562 
L 895.807188 97.736562 
L 867.807188 97.736562 
z
" style="fill:#333333;"/>
    </g>
    <g id="text_40">
     <!-- Layer 3 -->
     <g transform="translate(907.007188 107.536562)scale(0.14 -0.14)">
      <use xlink:href="#DejaVuSans-76"/>
      <use x="55.712891" xlink:href="#DejaVuSans-97"/>
      <use x="116.992188" xlink:href="#DejaVuSans-121"/>
      <use x="176.171875" xlink:href="#DejaVuSans-101"/>
      <use x="237.695312" xlink:href="#DejaVuSans-114"/>
      <use x="278.808594" xlink:href="#DejaVuSans-32"/>
      <use x="310.595703" xlink:href="#DejaVuSans-51"/>
     </g>
    </g>
    <g id="patch_179">
     <path d="M 867.807188 128.085937 
L 895.807188 128.085937 
L 895.807188 118.285937 
L 867.807188 118.285937 
z
" style="fill:#4d4d4d;"/>
    </g>
    <g id="text_41">
     <!-- Layer 4 -->
     <g transform="translate(907.007188 128.085937)scale(0.14 -0.14)">
      <use xlink:href="#DejaVuSans-76"/>
      <use x="55.712891" xlink:href="#DejaVuSans-97"/>
      <use x="116.992188" xlink:href="#DejaVuSans-121"/>
      <use x="176.171875" xlink:href="#DejaVuSans-101"/>
      <use x="237.695312" xlink:href="#DejaVuSans-114"/>
      <use x="278.808594" xlink:href="#DejaVuSans-32"/>
      <use x="310.595703" xlink:href="#DejaVuSans-52"/>
     </g>
    </g>
    <g id="patch_180">
     <path d="M 867.807188 148.635312 
L 895.807188 148.635312 
L 895.807188 138.835312 
L 867.807188 138.835312 
z
" style="fill:#666666;"/>
    </g>
    <g id="text_42">
     <!-- Layer 5 -->
     <g transform="translate(907.007188 148.635312)scale(0.14 -0.14)">
      <use xlink:href="#DejaVuSans-76"/>
      <use x="55.712891" xlink:href="#DejaVuSans-97"/>
      <use x="116.992188" xlink:href="#DejaVuSans-121"/>
      <use x="176.171875" xlink:href="#DejaVuSans-101"/>
      <use x="237.695312" xlink:href="#DejaVuSans-114"/>
      <use x="278.808594" xlink:href="#DejaVuSans-32"/>
      <use x="310.595703" xlink:href="#DejaVuSans-53"/>
     </g>
    </g>
    <g id="patch_181">
     <path d="M 867.807188 169.184687 
L 895.807188 169.184687 
L 895.807188 159.384687 
L 867.807188 159.384687 
z
" style="fill:#808080;"/>
    </g>
    <g id="text_43">
     <!-- Layer 6 -->
     <g transform="translate(907.007188 169.184687)scale(0.14 -0.14)">
      <use xlink:href="#DejaVuSans-76"/>
      <use x="55.712891" xlink:href="#DejaVuSans-97"/>
      <use x="116.992188" xlink:href="#DejaVuSans-121"/>
      <use x="176.171875" xlink:href="#DejaVuSans-101"/>
      <use x="237.695312" xlink:href="#DejaVuSans-114"/>
      <use x="278.808594" xlink:href="#DejaVuSans-32"/>
      <use x="310.595703" xlink:href="#DejaVuSans-54"/>
     </g>
    </g>
    <g id="patch_182">
     <path d="M 867.807188 189.734062 
L 895.807188 189.734062 
L 895.807188 179.934062 
L 867.807188 179.934062 
z
" style="fill:#999999;"/>
    </g>
    <g id="text_44">
     <!-- Layer 7 -->
     <g transform="translate(907.007188 189.734062)scale(0.14 -0.14)">
      <use xlink:href="#DejaVuSans-76"/>
      <use x="55.712891" xlink:href="#DejaVuSans-97"/>
      <use x="116.992188" xlink:href="#DejaVuSans-121"/>
      <use x="176.171875" xlink:href="#DejaVuSans-101"/>
      <use x="237.695312" xlink:href="#DejaVuSans-114"/>
      <use x="278.808594" xlink:href="#DejaVuSans-32"/>
      <use x="310.595703" xlink:href="#DejaVuSans-55"/>
     </g>
    </g>
    <g id="patch_183">
     <path d="M 867.807188 210.283437 
L 895.807188 210.283437 
L 895.807188 200.483437 
L 867.807188 200.483437 
z
" style="fill:#b3b3b3;"/>
    </g>
    <g id="text_45">
     <!-- Layer 8 -->
     <g transform="translate(907.007188 210.283437)scale(0.14 -0.14)">
      <use xlink:href="#DejaVuSans-76"/>
      <use x="55.712891" xlink:href="#DejaVuSans-97"/>
      <use x="116.992188" xlink:href="#DejaVuSans-121"/>
      <use x="176.171875" xlink:href="#DejaVuSans-101"/>
      <use x="237.695312" xlink:href="#DejaVuSans-114"/>
      <use x="278.808594" xlink:href="#DejaVuSans-32"/>
      <use x="310.595703" xlink:href="#DejaVuSans-56"/>
     </g>
    </g>
   </g>
  </g>
 </g>
 <defs>
  <clipPath id="pff376a9122">
   <rect height="271.8" width="837" x="135" y="43.2"/>
  </clipPath>
 </defs>
</svg>
