<?xml version="1.0" encoding="utf-8" standalone="no"?>
<!DOCTYPE svg PUBLIC "-//W3C//DTD SVG 1.1//EN"
  "http://www.w3.org/Graphics/SVG/1.1/DTD/svg11.dtd">
<!-- Created with matplotlib (https://matplotlib.org/) -->
<svg height="360pt" version="1.1" viewBox="0 0 360 360" width="360pt" xmlns="http://www.w3.org/2000/svg" xmlns:xlink="http://www.w3.org/1999/xlink">
 <defs>
  <style type="text/css">
*{stroke-linecap:butt;stroke-linejoin:round;}
  </style>
 </defs>
 <g id="figure_1">
  <g id="patch_1">
   <path d="M 0 360 
L 360 360 
L 360 0 
L 0 0 
z
" style="fill:#ffffff;"/>
  </g>
  <g id="axes_1">
   <g id="patch_2">
    <path d="M 284.441222 95.239357 
C 274.609212 83.522023 262.79272 73.624554 249.532619 65.999983 
C 236.272519 58.375413 221.774261 53.141876 206.701471 50.538925 
L 184.5 179.1 
L 284.441222 95.239357 
z
" style="fill:#ffb47b;stroke:#ffffff;stroke-linejoin:miter;stroke-width:0.1;"/>
   </g>
   <g id="patch_3">
    <path d="M 206.701471 50.538925 
C 206.399858 50.486839 206.098063 50.435814 205.796091 50.385852 
C 205.494119 50.33589 205.191971 50.286991 204.889655 50.239155 
L 184.5 179.1 
L 206.701471 50.538925 
z
" style="fill:#b466b6;stroke:#ffffff;stroke-linejoin:miter;stroke-width:0.1;"/>
   </g>
   <g id="patch_4">
    <path d="M 204.889655 50.239155 
C 186.096736 47.265551 166.878828 48.438737 148.587167 53.676223 
C 130.295506 58.91371 113.369085 68.0898 98.998024 80.559311 
C 84.626962 93.028822 73.156159 108.492491 65.392142 125.863045 
C 57.628125 143.2336 53.757227 162.094154 54.051617 181.118598 
L 184.5 179.1 
L 204.889655 50.239155 
z
" style="fill:#ff6464;stroke:#ffffff;stroke-linejoin:miter;stroke-width:0.1;"/>
   </g>
   <g id="patch_5">
    <path d="M 54.051617 181.118598 
C 54.089262 183.551297 54.194949 185.982468 54.368555 188.409257 
C 54.542161 190.836047 54.783618 193.257505 55.092642 195.670791 
L 184.5 179.1 
L 54.051617 181.118598 
z
" style="fill:#bfbfbf;stroke:#ffffff;stroke-linejoin:miter;stroke-width:0.1;"/>
   </g>
   <g id="patch_6">
    <path d="M 55.092642 195.670791 
C 57.643926 215.594695 64.762384 234.662843 75.8915 251.3845 
C 87.020615 268.106156 101.862607 282.033899 119.257136 292.078865 
C 136.651666 302.123832 156.133307 308.017249 176.178999 309.298373 
C 196.22469 310.579496 216.298067 307.214048 234.829807 299.465135 
C 253.361546 291.716223 269.855794 279.791185 283.023039 264.622314 
C 296.190284 249.453442 305.67821 231.446611 310.745058 212.009582 
C 315.811906 192.572554 316.322101 172.225406 312.235757 152.558866 
C 308.149412 132.892326 299.575867 114.432612 287.185396 98.622893 
L 184.5 179.1 
L 55.092642 195.670791 
z
" style="fill:#719bcb;stroke:#ffffff;stroke-linejoin:miter;stroke-width:0.1;"/>
   </g>
   <g id="patch_7">
    <path d="M 287.185396 98.622893 
C 286.737492 98.051387 286.284825 97.48363 285.827442 96.919682 
C 285.370059 96.355734 284.907977 95.795614 284.441242 95.239381 
L 184.5 179.1 
L 287.185396 98.622893 
z
" style="fill:#00adba;stroke:#ffffff;stroke-linejoin:miter;stroke-width:0.1;"/>
   </g>
   <g id="matplotlib.axis_1"/>
   <g id="matplotlib.axis_2"/>
  </g>
 </g>
</svg>
