<?xml version="1.0" encoding="utf-8" standalone="no"?>
<!DOCTYPE svg PUBLIC "-//W3C//DTD SVG 1.1//EN"
  "http://www.w3.org/Graphics/SVG/1.1/DTD/svg11.dtd">
<!-- Created with matplotlib (https://matplotlib.org/) -->
<svg height="360pt" version="1.1" viewBox="0 0 360 360" width="360pt" xmlns="http://www.w3.org/2000/svg" xmlns:xlink="http://www.w3.org/1999/xlink">
 <defs>
  <style type="text/css">
*{stroke-linecap:butt;stroke-linejoin:round;}
  </style>
 </defs>
 <g id="figure_1">
  <g id="patch_1">
   <path d="M 0 360 
L 360 360 
L 360 0 
L 0 0 
z
" style="fill:#ffffff;"/>
  </g>
  <g id="axes_1">
   <g id="patch_2">
    <path d="M 314.964 179.1 
C 314.964 174.45963 314.716426 169.822564 314.222333 165.208574 
C 313.72824 160.594584 312.988331 156.01024 312.005763 151.475089 
L 184.5 179.1 
L 314.964 179.1 
z
" style="fill:#ffb47b;stroke:#ffffff;stroke-linejoin:miter;stroke-width:0.1;"/>
   </g>
   <g id="patch_3">
    <path d="M 312.005763 151.475089 
C 311.988229 151.394161 311.970619 151.313249 311.952931 151.232354 
C 311.935243 151.151459 311.917478 151.07058 311.899637 150.989719 
L 184.5 179.1 
L 312.005763 151.475089 
z
" style="fill:#b466b6;stroke:#ffffff;stroke-linejoin:miter;stroke-width:0.1;"/>
   </g>
   <g id="patch_4">
    <path d="M 311.899637 150.989719 
C 307.274594 130.028394 297.547033 110.528929 283.582647 94.226657 
C 269.61826 77.924384 251.84396 65.317688 231.841547 57.528485 
C 211.839134 49.739283 190.220113 47.005701 168.908441 49.571013 
C 147.596769 52.136324 127.243975 59.922103 109.661332 72.235464 
C 92.078689 84.548824 77.803724 101.013329 68.106819 120.16374 
C 58.409915 139.31415 53.587519 160.56501 54.068796 182.025126 
C 54.550073 203.485241 60.320309 224.498545 70.865989 243.194984 
C 81.41167 261.891422 96.410397 277.699418 114.527378 289.212158 
L 184.5 179.1 
L 311.899637 150.989719 
z
" style="fill:#ff6464;stroke:#ffffff;stroke-linejoin:miter;stroke-width:0.1;"/>
   </g>
   <g id="patch_5">
    <path d="M 114.527378 289.212158 
C 115.404419 289.769489 116.288087 290.316321 117.178193 290.852537 
C 118.0683 291.388754 118.964781 291.914317 119.867444 292.429114 
L 184.5 179.1 
L 114.527378 289.212158 
z
" style="fill:#bfbfbf;stroke:#ffffff;stroke-linejoin:miter;stroke-width:0.1;"/>
   </g>
   <g id="patch_6">
    <path d="M 119.867444 292.429114 
C 138.984013 303.331455 160.551926 309.221671 182.556398 309.549522 
C 204.56087 309.877372 226.29469 304.63232 245.727575 294.304337 
C 265.16046 283.976355 281.667849 268.897376 293.70769 250.476016 
C 305.747531 232.054657 312.932872 210.882968 314.592486 188.938722 
L 184.5 179.1 
L 119.867444 292.429114 
z
" style="fill:#719bcb;stroke:#ffffff;stroke-linejoin:miter;stroke-width:0.1;"/>
   </g>
   <g id="patch_7">
    <path d="M 314.592486 188.938722 
C 314.716269 187.302004 314.809153 185.663095 314.871088 184.022872 
C 314.933024 182.382649 314.964 180.741403 314.964 179.100011 
L 184.5 179.1 
L 314.592486 188.938722 
z
" style="fill:#00adba;stroke:#ffffff;stroke-linejoin:miter;stroke-width:0.1;"/>
   </g>
   <g id="matplotlib.axis_1"/>
   <g id="matplotlib.axis_2"/>
  </g>
 </g>
</svg>
