<?xml version="1.0" encoding="utf-8" standalone="no"?>
<!DOCTYPE svg PUBLIC "-//W3C//DTD SVG 1.1//EN"
  "http://www.w3.org/Graphics/SVG/1.1/DTD/svg11.dtd">
<!-- Created with matplotlib (https://matplotlib.org/) -->
<svg height="216pt" version="1.1" viewBox="0 0 504 216" width="504pt" xmlns="http://www.w3.org/2000/svg" xmlns:xlink="http://www.w3.org/1999/xlink">
 <defs>
  <style type="text/css">
*{stroke-linecap:butt;stroke-linejoin:round;}
  </style>
 </defs>
 <g id="figure_1">
  <g id="patch_1">
   <path d="M 0 216 
L 504 216 
L 504 0 
L 0 0 
z
" style="fill:#ffffff;"/>
  </g>
  <g id="axes_1">
   <g id="patch_2">
    <path d="M 63 189 
L 453.6 189 
L 453.6 25.92 
L 63 25.92 
z
" style="fill:#ffffff;"/>
   </g>
   <g id="patch_3">
    <path clip-path="url(#p27d76916e8)" d="M 76.671 189 
L 81.5535 189 
L 81.5535 185.16762 
L 76.671 185.16762 
z
" style="fill:url(#hb339e9db9d);stroke:#004d90;stroke-linejoin:miter;stroke-width:2;"/>
   </g>
   <g id="patch_4">
    <path clip-path="url(#p27d76916e8)" d="M 96.201 189 
L 101.0835 189 
L 101.0835 179.883828 
L 96.201 179.883828 
z
" style="fill:url(#hb339e9db9d);stroke:#004d90;stroke-linejoin:miter;stroke-width:2;"/>
   </g>
   <g id="patch_5">
    <path clip-path="url(#p27d76916e8)" d="M 115.731 189 
L 120.6135 189 
L 120.6135 177.731172 
L 115.731 177.731172 
z
" style="fill:url(#hb339e9db9d);stroke:#004d90;stroke-linejoin:miter;stroke-width:2;"/>
   </g>
   <g id="patch_6">
    <path clip-path="url(#p27d76916e8)" d="M 135.261 189 
L 140.1435 189 
L 140.1435 114.048432 
L 135.261 114.048432 
z
" style="fill:url(#hb339e9db9d);stroke:#004d90;stroke-linejoin:miter;stroke-width:2;"/>
   </g>
   <g id="patch_7">
    <path clip-path="url(#p27d76916e8)" d="M 154.791 189 
L 159.6735 189 
L 159.6735 171.338436 
L 154.791 171.338436 
z
" style="fill:url(#hb339e9db9d);stroke:#004d90;stroke-linejoin:miter;stroke-width:2;"/>
   </g>
   <g id="patch_8">
    <path clip-path="url(#p27d76916e8)" d="M 174.321 189 
L 179.2035 189 
L 179.2035 170.425188 
L 174.321 170.425188 
z
" style="fill:url(#hb339e9db9d);stroke:#004d90;stroke-linejoin:miter;stroke-width:2;"/>
   </g>
   <g id="patch_9">
    <path clip-path="url(#p27d76916e8)" d="M 193.851 189 
L 198.7335 189 
L 198.7335 102.225132 
L 193.851 102.225132 
z
" style="fill:url(#hb339e9db9d);stroke:#004d90;stroke-linejoin:miter;stroke-width:2;"/>
   </g>
   <g id="patch_10">
    <path clip-path="url(#p27d76916e8)" d="M 213.381 189 
L 218.2635 189 
L 218.2635 115.548768 
L 213.381 115.548768 
z
" style="fill:url(#hb339e9db9d);stroke:#004d90;stroke-linejoin:miter;stroke-width:2;"/>
   </g>
   <g id="patch_11">
    <path clip-path="url(#p27d76916e8)" d="M 232.911 189 
L 237.7935 189 
L 237.7935 116.233704 
L 232.911 116.233704 
z
" style="fill:url(#hb339e9db9d);stroke:#004d90;stroke-linejoin:miter;stroke-width:2;"/>
   </g>
   <g id="patch_12">
    <path clip-path="url(#p27d76916e8)" d="M 252.441 189 
L 257.3235 189 
L 257.3235 101.491272 
L 252.441 101.491272 
z
" style="fill:url(#hb339e9db9d);stroke:#004d90;stroke-linejoin:miter;stroke-width:2;"/>
   </g>
   <g id="patch_13">
    <path clip-path="url(#p27d76916e8)" d="M 271.971 189 
L 276.8535 189 
L 276.8535 105.144264 
L 271.971 105.144264 
z
" style="fill:url(#hb339e9db9d);stroke:#004d90;stroke-linejoin:miter;stroke-width:2;"/>
   </g>
   <g id="patch_14">
    <path clip-path="url(#p27d76916e8)" d="M 291.501 189 
L 296.3835 189 
L 296.3835 105.796584 
L 291.501 105.796584 
z
" style="fill:url(#hb339e9db9d);stroke:#004d90;stroke-linejoin:miter;stroke-width:2;"/>
   </g>
   <g id="patch_15">
    <path clip-path="url(#p27d76916e8)" d="M 311.031 189 
L 315.9135 189 
L 315.9135 92.733876 
L 311.031 92.733876 
z
" style="fill:url(#hb339e9db9d);stroke:#004d90;stroke-linejoin:miter;stroke-width:2;"/>
   </g>
   <g id="patch_16">
    <path clip-path="url(#p27d76916e8)" d="M 330.561 189 
L 335.4435 189 
L 335.4435 128.513628 
L 330.561 128.513628 
z
" style="fill:url(#hb339e9db9d);stroke:#004d90;stroke-linejoin:miter;stroke-width:2;"/>
   </g>
   <g id="patch_17">
    <path clip-path="url(#p27d76916e8)" d="M 350.091 189 
L 354.9735 189 
L 354.9735 93.1905 
L 350.091 93.1905 
z
" style="fill:url(#hb339e9db9d);stroke:#004d90;stroke-linejoin:miter;stroke-width:2;"/>
   </g>
   <g id="patch_18">
    <path clip-path="url(#p27d76916e8)" d="M 369.621 189 
L 374.5035 189 
L 374.5035 187.548588 
L 369.621 187.548588 
z
" style="fill:url(#hb339e9db9d);stroke:#004d90;stroke-linejoin:miter;stroke-width:2;"/>
   </g>
   <g id="patch_19">
    <path clip-path="url(#p27d76916e8)" d="M 389.151 189 
L 394.0335 189 
L 394.0335 78.774228 
L 389.151 78.774228 
z
" style="fill:url(#hb339e9db9d);stroke:#004d90;stroke-linejoin:miter;stroke-width:2;"/>
   </g>
   <g id="patch_20">
    <path clip-path="url(#p27d76916e8)" d="M 408.681 189 
L 413.5635 189 
L 413.5635 93.712356 
L 408.681 93.712356 
z
" style="fill:url(#hb339e9db9d);stroke:#004d90;stroke-linejoin:miter;stroke-width:2;"/>
   </g>
   <g id="patch_21">
    <path clip-path="url(#p27d76916e8)" d="M 428.211 189 
L 433.0935 189 
L 433.0935 123.60492 
L 428.211 123.60492 
z
" style="fill:url(#hb339e9db9d);stroke:#004d90;stroke-linejoin:miter;stroke-width:2;"/>
   </g>
   <g id="patch_22">
    <path clip-path="url(#p27d76916e8)" d="M 83.5065 189 
L 88.389 189 
L 88.389 185.16762 
L 83.5065 185.16762 
z
" style="fill:#ffffff;stroke:#004d90;stroke-linejoin:miter;stroke-width:2;"/>
   </g>
   <g id="patch_23">
    <path clip-path="url(#p27d76916e8)" d="M 103.0365 189 
L 107.919 189 
L 107.919 188.380296 
L 103.0365 188.380296 
z
" style="fill:#ffffff;stroke:#004d90;stroke-linejoin:miter;stroke-width:2;"/>
   </g>
   <g id="patch_24">
    <path clip-path="url(#p27d76916e8)" d="M 122.5665 189 
L 127.449 189 
L 127.449 188.10306 
L 122.5665 188.10306 
z
" style="fill:#ffffff;stroke:#004d90;stroke-linejoin:miter;stroke-width:2;"/>
   </g>
   <g id="patch_25">
    <path clip-path="url(#p27d76916e8)" d="M 142.0965 189 
L 146.979 189 
L 146.979 81.970596 
L 142.0965 81.970596 
z
" style="fill:#ffffff;stroke:#004d90;stroke-linejoin:miter;stroke-width:2;"/>
   </g>
   <g id="patch_26">
    <path clip-path="url(#p27d76916e8)" d="M 161.6265 189 
L 166.509 189 
L 166.509 64.16226 
L 161.6265 64.16226 
z
" style="fill:#ffffff;stroke:#004d90;stroke-linejoin:miter;stroke-width:2;"/>
   </g>
   <g id="patch_27">
    <path clip-path="url(#p27d76916e8)" d="M 181.1565 189 
L 186.039 189 
L 186.039 69.576516 
L 181.1565 69.576516 
z
" style="fill:#ffffff;stroke:#004d90;stroke-linejoin:miter;stroke-width:2;"/>
   </g>
   <g id="patch_28">
    <path clip-path="url(#p27d76916e8)" d="M 200.6865 189 
L 205.569 189 
L 205.569 74.974464 
L 200.6865 74.974464 
z
" style="fill:#ffffff;stroke:#004d90;stroke-linejoin:miter;stroke-width:2;"/>
   </g>
   <g id="patch_29">
    <path clip-path="url(#p27d76916e8)" d="M 220.2165 189 
L 225.099 189 
L 225.099 65.417976 
L 220.2165 65.417976 
z
" style="fill:#ffffff;stroke:#004d90;stroke-linejoin:miter;stroke-width:2;"/>
   </g>
   <g id="patch_30">
    <path clip-path="url(#p27d76916e8)" d="M 239.7465 189 
L 244.629 189 
L 244.629 68.15772 
L 239.7465 68.15772 
z
" style="fill:#ffffff;stroke:#004d90;stroke-linejoin:miter;stroke-width:2;"/>
   </g>
   <g id="patch_31">
    <path clip-path="url(#p27d76916e8)" d="M 259.2765 189 
L 264.159 189 
L 264.159 53.96976 
L 259.2765 53.96976 
z
" style="fill:#ffffff;stroke:#004d90;stroke-linejoin:miter;stroke-width:2;"/>
   </g>
   <g id="patch_32">
    <path clip-path="url(#p27d76916e8)" d="M 278.8065 189 
L 283.689 189 
L 283.689 37.384524 
L 278.8065 37.384524 
z
" style="fill:#ffffff;stroke:#004d90;stroke-linejoin:miter;stroke-width:2;"/>
   </g>
   <g id="patch_33">
    <path clip-path="url(#p27d76916e8)" d="M 298.3365 189 
L 303.219 189 
L 303.219 39.096864 
L 298.3365 39.096864 
z
" style="fill:#ffffff;stroke:#004d90;stroke-linejoin:miter;stroke-width:2;"/>
   </g>
   <g id="patch_34">
    <path clip-path="url(#p27d76916e8)" d="M 317.8665 189 
L 322.749 189 
L 322.749 52.469424 
L 317.8665 52.469424 
z
" style="fill:#ffffff;stroke:#004d90;stroke-linejoin:miter;stroke-width:2;"/>
   </g>
   <g id="patch_35">
    <path clip-path="url(#p27d76916e8)" d="M 337.3965 189 
L 342.279 189 
L 342.279 40.27104 
L 337.3965 40.27104 
z
" style="fill:#ffffff;stroke:#004d90;stroke-linejoin:miter;stroke-width:2;"/>
   </g>
   <g id="patch_36">
    <path clip-path="url(#p27d76916e8)" d="M 356.9265 189 
L 361.809 189 
L 361.809 44.119728 
L 356.9265 44.119728 
z
" style="fill:#ffffff;stroke:#004d90;stroke-linejoin:miter;stroke-width:2;"/>
   </g>
   <g id="patch_37">
    <path clip-path="url(#p27d76916e8)" d="M 376.4565 189 
L 381.339 189 
L 381.339 54.834084 
L 376.4565 54.834084 
z
" style="fill:#ffffff;stroke:#004d90;stroke-linejoin:miter;stroke-width:2;"/>
   </g>
   <g id="patch_38">
    <path clip-path="url(#p27d76916e8)" d="M 395.9865 189 
L 400.869 189 
L 400.869 36.569124 
L 395.9865 36.569124 
z
" style="fill:#ffffff;stroke:#004d90;stroke-linejoin:miter;stroke-width:2;"/>
   </g>
   <g id="patch_39">
    <path clip-path="url(#p27d76916e8)" d="M 415.5165 189 
L 420.399 189 
L 420.399 64.993968 
L 415.5165 64.993968 
z
" style="fill:#ffffff;stroke:#004d90;stroke-linejoin:miter;stroke-width:2;"/>
   </g>
   <g id="patch_40">
    <path clip-path="url(#p27d76916e8)" d="M 435.0465 189 
L 439.929 189 
L 439.929 79.312392 
L 435.0465 79.312392 
z
" style="fill:#ffffff;stroke:#004d90;stroke-linejoin:miter;stroke-width:2;"/>
   </g>
   <g id="matplotlib.axis_1">
    <g id="xtick_1">
     <g id="line2d_1">
      <defs>
       <path d="M 0 0 
L 0 6 
" id="m6c90e373ab" style="stroke:#000000;stroke-width:1.5;"/>
      </defs>
      <g>
       <use style="stroke:#000000;stroke-width:1.5;" x="82.53" xlink:href="#m6c90e373ab" y="189"/>
      </g>
     </g>
     <g id="text_1">
      <!-- S0C0 -->
      <defs>
       <path d="M 4.5 23 
L 13.421875 23.78125 
Q 14.0625 18.40625 16.375 14.96875 
Q 18.703125 11.53125 23.578125 9.40625 
Q 28.46875 7.28125 34.578125 7.28125 
Q 39.984375 7.28125 44.140625 8.890625 
Q 48.296875 10.5 50.3125 13.296875 
Q 52.34375 16.109375 52.34375 19.4375 
Q 52.34375 22.796875 50.390625 25.3125 
Q 48.4375 27.828125 43.953125 29.546875 
Q 41.0625 30.671875 31.203125 33.03125 
Q 21.34375 35.40625 17.390625 37.5 
Q 12.25 40.1875 9.734375 44.15625 
Q 7.234375 48.140625 7.234375 53.078125 
Q 7.234375 58.5 10.296875 63.203125 
Q 13.375 67.921875 19.28125 70.359375 
Q 25.203125 72.796875 32.421875 72.796875 
Q 40.375 72.796875 46.453125 70.234375 
Q 52.546875 67.671875 55.8125 62.6875 
Q 59.078125 57.71875 59.328125 51.421875 
L 50.25 50.734375 
Q 49.515625 57.515625 45.28125 60.984375 
Q 41.0625 64.453125 32.8125 64.453125 
Q 24.21875 64.453125 20.28125 61.296875 
Q 16.359375 58.15625 16.359375 53.71875 
Q 16.359375 49.859375 19.140625 47.359375 
Q 21.875 44.875 33.421875 42.265625 
Q 44.96875 39.65625 49.265625 37.703125 
Q 55.515625 34.8125 58.484375 30.390625 
Q 61.46875 25.984375 61.46875 20.21875 
Q 61.46875 14.5 58.203125 9.4375 
Q 54.9375 4.390625 48.796875 1.578125 
Q 42.671875 -1.21875 35.015625 -1.21875 
Q 25.296875 -1.21875 18.71875 1.609375 
Q 12.15625 4.4375 8.421875 10.125 
Q 4.6875 15.828125 4.5 23 
z
" id="ArialMT-83"/>
       <path d="M 4.15625 35.296875 
Q 4.15625 48 6.765625 55.734375 
Q 9.375 63.484375 14.515625 67.671875 
Q 19.671875 71.875 27.484375 71.875 
Q 33.25 71.875 37.59375 69.546875 
Q 41.9375 67.234375 44.765625 62.859375 
Q 47.609375 58.5 49.21875 52.21875 
Q 50.828125 45.953125 50.828125 35.296875 
Q 50.828125 22.703125 48.234375 14.96875 
Q 45.65625 7.234375 40.5 3 
Q 35.359375 -1.21875 27.484375 -1.21875 
Q 17.140625 -1.21875 11.234375 6.203125 
Q 4.15625 15.140625 4.15625 35.296875 
z
M 13.1875 35.296875 
Q 13.1875 17.671875 17.3125 11.828125 
Q 21.4375 6 27.484375 6 
Q 33.546875 6 37.671875 11.859375 
Q 41.796875 17.71875 41.796875 35.296875 
Q 41.796875 52.984375 37.671875 58.78125 
Q 33.546875 64.59375 27.390625 64.59375 
Q 21.34375 64.59375 17.71875 59.46875 
Q 13.1875 52.9375 13.1875 35.296875 
z
" id="ArialMT-48"/>
       <path d="M 58.796875 25.09375 
L 68.265625 22.703125 
Q 65.28125 11.03125 57.546875 4.90625 
Q 49.8125 -1.21875 38.625 -1.21875 
Q 27.046875 -1.21875 19.796875 3.484375 
Q 12.546875 8.203125 8.765625 17.140625 
Q 4.984375 26.078125 4.984375 36.328125 
Q 4.984375 47.515625 9.25 55.828125 
Q 13.53125 64.15625 21.40625 68.46875 
Q 29.296875 72.796875 38.765625 72.796875 
Q 49.515625 72.796875 56.828125 67.328125 
Q 64.15625 61.859375 67.046875 51.953125 
L 57.71875 49.75 
Q 55.21875 57.5625 50.484375 61.125 
Q 45.75 64.703125 38.578125 64.703125 
Q 30.328125 64.703125 24.78125 60.734375 
Q 19.234375 56.78125 16.984375 50.109375 
Q 14.75 43.453125 14.75 36.375 
Q 14.75 27.25 17.40625 20.4375 
Q 20.0625 13.625 25.671875 10.25 
Q 31.296875 6.890625 37.84375 6.890625 
Q 45.796875 6.890625 51.3125 11.46875 
Q 56.84375 16.0625 58.796875 25.09375 
z
" id="ArialMT-67"/>
      </defs>
      <g transform="translate(75.514175 221.248951)rotate(-45)scale(0.1 -0.1)">
       <use xlink:href="#ArialMT-83"/>
       <use x="66.699219" xlink:href="#ArialMT-48"/>
       <use x="122.314453" xlink:href="#ArialMT-67"/>
       <use x="194.53125" xlink:href="#ArialMT-48"/>
      </g>
     </g>
    </g>
    <g id="xtick_2">
     <g id="line2d_2">
      <g>
       <use style="stroke:#000000;stroke-width:1.5;" x="102.06" xlink:href="#m6c90e373ab" y="189"/>
      </g>
     </g>
     <g id="text_2">
      <!-- S1C0 -->
      <defs>
       <path d="M 37.25 0 
L 28.46875 0 
L 28.46875 56 
Q 25.296875 52.984375 20.140625 49.953125 
Q 14.984375 46.921875 10.890625 45.40625 
L 10.890625 53.90625 
Q 18.265625 57.375 23.78125 62.296875 
Q 29.296875 67.234375 31.59375 71.875 
L 37.25 71.875 
z
" id="ArialMT-49"/>
      </defs>
      <g transform="translate(95.044175 221.248951)rotate(-45)scale(0.1 -0.1)">
       <use xlink:href="#ArialMT-83"/>
       <use x="66.699219" xlink:href="#ArialMT-49"/>
       <use x="122.314453" xlink:href="#ArialMT-67"/>
       <use x="194.53125" xlink:href="#ArialMT-48"/>
      </g>
     </g>
    </g>
    <g id="xtick_3">
     <g id="line2d_3">
      <g>
       <use style="stroke:#000000;stroke-width:1.5;" x="121.59" xlink:href="#m6c90e373ab" y="189"/>
      </g>
     </g>
     <g id="text_3">
      <!-- S1C1 -->
      <g transform="translate(114.574175 221.248951)rotate(-45)scale(0.1 -0.1)">
       <use xlink:href="#ArialMT-83"/>
       <use x="66.699219" xlink:href="#ArialMT-49"/>
       <use x="122.314453" xlink:href="#ArialMT-67"/>
       <use x="194.53125" xlink:href="#ArialMT-49"/>
      </g>
     </g>
    </g>
    <g id="xtick_4">
     <g id="line2d_4">
      <g>
       <use style="stroke:#000000;stroke-width:1.5;" x="141.12" xlink:href="#m6c90e373ab" y="189"/>
      </g>
     </g>
     <g id="text_4">
      <!-- S1C2 -->
      <defs>
       <path d="M 50.34375 8.453125 
L 50.34375 0 
L 3.03125 0 
Q 2.9375 3.171875 4.046875 6.109375 
Q 5.859375 10.9375 9.828125 15.625 
Q 13.8125 20.3125 21.34375 26.46875 
Q 33.015625 36.03125 37.109375 41.625 
Q 41.21875 47.21875 41.21875 52.203125 
Q 41.21875 57.421875 37.46875 61 
Q 33.734375 64.59375 27.734375 64.59375 
Q 21.390625 64.59375 17.578125 60.78125 
Q 13.765625 56.984375 13.71875 50.25 
L 4.6875 51.171875 
Q 5.609375 61.28125 11.65625 66.578125 
Q 17.71875 71.875 27.9375 71.875 
Q 38.234375 71.875 44.234375 66.15625 
Q 50.25 60.453125 50.25 52 
Q 50.25 47.703125 48.484375 43.546875 
Q 46.734375 39.40625 42.65625 34.8125 
Q 38.578125 30.21875 29.109375 22.21875 
Q 21.1875 15.578125 18.9375 13.203125 
Q 16.703125 10.84375 15.234375 8.453125 
z
" id="ArialMT-50"/>
      </defs>
      <g transform="translate(134.104175 221.248951)rotate(-45)scale(0.1 -0.1)">
       <use xlink:href="#ArialMT-83"/>
       <use x="66.699219" xlink:href="#ArialMT-49"/>
       <use x="122.314453" xlink:href="#ArialMT-67"/>
       <use x="194.53125" xlink:href="#ArialMT-50"/>
      </g>
     </g>
    </g>
    <g id="xtick_5">
     <g id="line2d_5">
      <g>
       <use style="stroke:#000000;stroke-width:1.5;" x="160.65" xlink:href="#m6c90e373ab" y="189"/>
      </g>
     </g>
     <g id="text_5">
      <!-- S2C0 -->
      <g transform="translate(153.634175 221.248951)rotate(-45)scale(0.1 -0.1)">
       <use xlink:href="#ArialMT-83"/>
       <use x="66.699219" xlink:href="#ArialMT-50"/>
       <use x="122.314453" xlink:href="#ArialMT-67"/>
       <use x="194.53125" xlink:href="#ArialMT-48"/>
      </g>
     </g>
    </g>
    <g id="xtick_6">
     <g id="line2d_6">
      <g>
       <use style="stroke:#000000;stroke-width:1.5;" x="180.18" xlink:href="#m6c90e373ab" y="189"/>
      </g>
     </g>
     <g id="text_6">
      <!-- S2C1 -->
      <g transform="translate(173.164175 221.248951)rotate(-45)scale(0.1 -0.1)">
       <use xlink:href="#ArialMT-83"/>
       <use x="66.699219" xlink:href="#ArialMT-50"/>
       <use x="122.314453" xlink:href="#ArialMT-67"/>
       <use x="194.53125" xlink:href="#ArialMT-49"/>
      </g>
     </g>
    </g>
    <g id="xtick_7">
     <g id="line2d_7">
      <g>
       <use style="stroke:#000000;stroke-width:1.5;" x="199.71" xlink:href="#m6c90e373ab" y="189"/>
      </g>
     </g>
     <g id="text_7">
      <!-- S2C2 -->
      <g transform="translate(192.694175 221.248951)rotate(-45)scale(0.1 -0.1)">
       <use xlink:href="#ArialMT-83"/>
       <use x="66.699219" xlink:href="#ArialMT-50"/>
       <use x="122.314453" xlink:href="#ArialMT-67"/>
       <use x="194.53125" xlink:href="#ArialMT-50"/>
      </g>
     </g>
    </g>
    <g id="xtick_8">
     <g id="line2d_8">
      <g>
       <use style="stroke:#000000;stroke-width:1.5;" x="219.24" xlink:href="#m6c90e373ab" y="189"/>
      </g>
     </g>
     <g id="text_8">
      <!-- S3C0 -->
      <defs>
       <path d="M 4.203125 18.890625 
L 12.984375 20.0625 
Q 14.5 12.59375 18.140625 9.296875 
Q 21.78125 6 27 6 
Q 33.203125 6 37.46875 10.296875 
Q 41.75 14.59375 41.75 20.953125 
Q 41.75 27 37.796875 30.921875 
Q 33.84375 34.859375 27.734375 34.859375 
Q 25.25 34.859375 21.53125 33.890625 
L 22.515625 41.609375 
Q 23.390625 41.5 23.921875 41.5 
Q 29.546875 41.5 34.03125 44.421875 
Q 38.53125 47.359375 38.53125 53.46875 
Q 38.53125 58.296875 35.25 61.46875 
Q 31.984375 64.65625 26.8125 64.65625 
Q 21.6875 64.65625 18.265625 61.421875 
Q 14.84375 58.203125 13.875 51.765625 
L 5.078125 53.328125 
Q 6.6875 62.15625 12.390625 67.015625 
Q 18.109375 71.875 26.609375 71.875 
Q 32.46875 71.875 37.390625 69.359375 
Q 42.328125 66.84375 44.9375 62.5 
Q 47.5625 58.15625 47.5625 53.265625 
Q 47.5625 48.640625 45.0625 44.828125 
Q 42.578125 41.015625 37.703125 38.765625 
Q 44.046875 37.3125 47.5625 32.6875 
Q 51.078125 28.078125 51.078125 21.140625 
Q 51.078125 11.765625 44.234375 5.25 
Q 37.40625 -1.265625 26.953125 -1.265625 
Q 17.53125 -1.265625 11.296875 4.34375 
Q 5.078125 9.96875 4.203125 18.890625 
z
" id="ArialMT-51"/>
      </defs>
      <g transform="translate(212.224175 221.248951)rotate(-45)scale(0.1 -0.1)">
       <use xlink:href="#ArialMT-83"/>
       <use x="66.699219" xlink:href="#ArialMT-51"/>
       <use x="122.314453" xlink:href="#ArialMT-67"/>
       <use x="194.53125" xlink:href="#ArialMT-48"/>
      </g>
     </g>
    </g>
    <g id="xtick_9">
     <g id="line2d_9">
      <g>
       <use style="stroke:#000000;stroke-width:1.5;" x="238.77" xlink:href="#m6c90e373ab" y="189"/>
      </g>
     </g>
     <g id="text_9">
      <!-- S3C1 -->
      <g transform="translate(231.754175 221.248951)rotate(-45)scale(0.1 -0.1)">
       <use xlink:href="#ArialMT-83"/>
       <use x="66.699219" xlink:href="#ArialMT-51"/>
       <use x="122.314453" xlink:href="#ArialMT-67"/>
       <use x="194.53125" xlink:href="#ArialMT-49"/>
      </g>
     </g>
    </g>
    <g id="xtick_10">
     <g id="line2d_10">
      <g>
       <use style="stroke:#000000;stroke-width:1.5;" x="258.3" xlink:href="#m6c90e373ab" y="189"/>
      </g>
     </g>
     <g id="text_10">
      <!-- S3C2 -->
      <g transform="translate(251.284175 221.248951)rotate(-45)scale(0.1 -0.1)">
       <use xlink:href="#ArialMT-83"/>
       <use x="66.699219" xlink:href="#ArialMT-51"/>
       <use x="122.314453" xlink:href="#ArialMT-67"/>
       <use x="194.53125" xlink:href="#ArialMT-50"/>
      </g>
     </g>
    </g>
    <g id="xtick_11">
     <g id="line2d_11">
      <g>
       <use style="stroke:#000000;stroke-width:1.5;" x="277.83" xlink:href="#m6c90e373ab" y="189"/>
      </g>
     </g>
     <g id="text_11">
      <!-- S4C0 -->
      <defs>
       <path d="M 32.328125 0 
L 32.328125 17.140625 
L 1.265625 17.140625 
L 1.265625 25.203125 
L 33.9375 71.578125 
L 41.109375 71.578125 
L 41.109375 25.203125 
L 50.78125 25.203125 
L 50.78125 17.140625 
L 41.109375 17.140625 
L 41.109375 0 
z
M 32.328125 25.203125 
L 32.328125 57.46875 
L 9.90625 25.203125 
z
" id="ArialMT-52"/>
      </defs>
      <g transform="translate(270.814175 221.248951)rotate(-45)scale(0.1 -0.1)">
       <use xlink:href="#ArialMT-83"/>
       <use x="66.699219" xlink:href="#ArialMT-52"/>
       <use x="122.314453" xlink:href="#ArialMT-67"/>
       <use x="194.53125" xlink:href="#ArialMT-48"/>
      </g>
     </g>
    </g>
    <g id="xtick_12">
     <g id="line2d_12">
      <g>
       <use style="stroke:#000000;stroke-width:1.5;" x="297.36" xlink:href="#m6c90e373ab" y="189"/>
      </g>
     </g>
     <g id="text_12">
      <!-- S4C1 -->
      <g transform="translate(290.344175 221.248951)rotate(-45)scale(0.1 -0.1)">
       <use xlink:href="#ArialMT-83"/>
       <use x="66.699219" xlink:href="#ArialMT-52"/>
       <use x="122.314453" xlink:href="#ArialMT-67"/>
       <use x="194.53125" xlink:href="#ArialMT-49"/>
      </g>
     </g>
    </g>
    <g id="xtick_13">
     <g id="line2d_13">
      <g>
       <use style="stroke:#000000;stroke-width:1.5;" x="316.89" xlink:href="#m6c90e373ab" y="189"/>
      </g>
     </g>
     <g id="text_13">
      <!-- S4C2 -->
      <g transform="translate(309.874175 221.248951)rotate(-45)scale(0.1 -0.1)">
       <use xlink:href="#ArialMT-83"/>
       <use x="66.699219" xlink:href="#ArialMT-52"/>
       <use x="122.314453" xlink:href="#ArialMT-67"/>
       <use x="194.53125" xlink:href="#ArialMT-50"/>
      </g>
     </g>
    </g>
    <g id="xtick_14">
     <g id="line2d_14">
      <g>
       <use style="stroke:#000000;stroke-width:1.5;" x="336.42" xlink:href="#m6c90e373ab" y="189"/>
      </g>
     </g>
     <g id="text_14">
      <!-- S5C0 -->
      <defs>
       <path d="M 4.15625 18.75 
L 13.375 19.53125 
Q 14.40625 12.796875 18.140625 9.390625 
Q 21.875 6 27.15625 6 
Q 33.5 6 37.890625 10.78125 
Q 42.28125 15.578125 42.28125 23.484375 
Q 42.28125 31 38.0625 35.34375 
Q 33.84375 39.703125 27 39.703125 
Q 22.75 39.703125 19.328125 37.765625 
Q 15.921875 35.84375 13.96875 32.765625 
L 5.71875 33.84375 
L 12.640625 70.609375 
L 48.25 70.609375 
L 48.25 62.203125 
L 19.671875 62.203125 
L 15.828125 42.96875 
Q 22.265625 47.46875 29.34375 47.46875 
Q 38.71875 47.46875 45.15625 40.96875 
Q 51.609375 34.46875 51.609375 24.265625 
Q 51.609375 14.546875 45.953125 7.46875 
Q 39.0625 -1.21875 27.15625 -1.21875 
Q 17.390625 -1.21875 11.203125 4.25 
Q 5.03125 9.71875 4.15625 18.75 
z
" id="ArialMT-53"/>
      </defs>
      <g transform="translate(329.404175 221.248951)rotate(-45)scale(0.1 -0.1)">
       <use xlink:href="#ArialMT-83"/>
       <use x="66.699219" xlink:href="#ArialMT-53"/>
       <use x="122.314453" xlink:href="#ArialMT-67"/>
       <use x="194.53125" xlink:href="#ArialMT-48"/>
      </g>
     </g>
    </g>
    <g id="xtick_15">
     <g id="line2d_15">
      <g>
       <use style="stroke:#000000;stroke-width:1.5;" x="355.95" xlink:href="#m6c90e373ab" y="189"/>
      </g>
     </g>
     <g id="text_15">
      <!-- S5C1 -->
      <g transform="translate(348.934175 221.248951)rotate(-45)scale(0.1 -0.1)">
       <use xlink:href="#ArialMT-83"/>
       <use x="66.699219" xlink:href="#ArialMT-53"/>
       <use x="122.314453" xlink:href="#ArialMT-67"/>
       <use x="194.53125" xlink:href="#ArialMT-49"/>
      </g>
     </g>
    </g>
    <g id="xtick_16">
     <g id="line2d_16">
      <g>
       <use style="stroke:#000000;stroke-width:1.5;" x="375.48" xlink:href="#m6c90e373ab" y="189"/>
      </g>
     </g>
     <g id="text_16">
      <!-- FC0 -->
      <defs>
       <path d="M 8.203125 0 
L 8.203125 71.578125 
L 56.5 71.578125 
L 56.5 63.140625 
L 17.671875 63.140625 
L 17.671875 40.96875 
L 51.265625 40.96875 
L 51.265625 32.515625 
L 17.671875 32.515625 
L 17.671875 0 
z
" id="ArialMT-70"/>
      </defs>
      <g transform="translate(370.629137 216.919027)rotate(-45)scale(0.1 -0.1)">
       <use xlink:href="#ArialMT-70"/>
       <use x="61.083984" xlink:href="#ArialMT-67"/>
       <use x="133.300781" xlink:href="#ArialMT-48"/>
      </g>
     </g>
    </g>
    <g id="xtick_17">
     <g id="line2d_17">
      <g>
       <use style="stroke:#000000;stroke-width:1.5;" x="395.01" xlink:href="#m6c90e373ab" y="189"/>
      </g>
     </g>
     <g id="text_17">
      <!-- FC1 -->
      <g transform="translate(390.159137 216.919027)rotate(-45)scale(0.1 -0.1)">
       <use xlink:href="#ArialMT-70"/>
       <use x="61.083984" xlink:href="#ArialMT-67"/>
       <use x="133.300781" xlink:href="#ArialMT-49"/>
      </g>
     </g>
    </g>
    <g id="xtick_18">
     <g id="line2d_18">
      <g>
       <use style="stroke:#000000;stroke-width:1.5;" x="414.54" xlink:href="#m6c90e373ab" y="189"/>
      </g>
     </g>
     <g id="text_18">
      <!-- FC2 -->
      <g transform="translate(409.689137 216.919027)rotate(-45)scale(0.1 -0.1)">
       <use xlink:href="#ArialMT-70"/>
       <use x="61.083984" xlink:href="#ArialMT-67"/>
       <use x="133.300781" xlink:href="#ArialMT-50"/>
      </g>
     </g>
    </g>
    <g id="xtick_19">
     <g id="line2d_19">
      <g>
       <use style="stroke:#000000;stroke-width:1.5;" x="434.07" xlink:href="#m6c90e373ab" y="189"/>
      </g>
     </g>
     <g id="text_19">
      <!-- Total -->
      <defs>
       <path d="M 25.921875 0 
L 25.921875 63.140625 
L 2.34375 63.140625 
L 2.34375 71.578125 
L 59.078125 71.578125 
L 59.078125 63.140625 
L 35.40625 63.140625 
L 35.40625 0 
z
" id="ArialMT-84"/>
       <path d="M 3.328125 25.921875 
Q 3.328125 40.328125 11.328125 47.265625 
Q 18.015625 53.03125 27.640625 53.03125 
Q 38.328125 53.03125 45.109375 46.015625 
Q 51.90625 39.015625 51.90625 26.65625 
Q 51.90625 16.65625 48.90625 10.90625 
Q 45.90625 5.171875 40.15625 2 
Q 34.421875 -1.171875 27.640625 -1.171875 
Q 16.75 -1.171875 10.03125 5.8125 
Q 3.328125 12.796875 3.328125 25.921875 
z
M 12.359375 25.921875 
Q 12.359375 15.96875 16.703125 11.015625 
Q 21.046875 6.0625 27.640625 6.0625 
Q 34.1875 6.0625 38.53125 11.03125 
Q 42.875 16.015625 42.875 26.21875 
Q 42.875 35.84375 38.5 40.796875 
Q 34.125 45.75 27.640625 45.75 
Q 21.046875 45.75 16.703125 40.8125 
Q 12.359375 35.890625 12.359375 25.921875 
z
" id="ArialMT-111"/>
       <path d="M 25.78125 7.859375 
L 27.046875 0.09375 
Q 23.34375 -0.6875 20.40625 -0.6875 
Q 15.625 -0.6875 12.984375 0.828125 
Q 10.359375 2.34375 9.28125 4.8125 
Q 8.203125 7.28125 8.203125 15.1875 
L 8.203125 45.015625 
L 1.765625 45.015625 
L 1.765625 51.859375 
L 8.203125 51.859375 
L 8.203125 64.703125 
L 16.9375 69.96875 
L 16.9375 51.859375 
L 25.78125 51.859375 
L 25.78125 45.015625 
L 16.9375 45.015625 
L 16.9375 14.703125 
Q 16.9375 10.9375 17.40625 9.859375 
Q 17.875 8.796875 18.921875 8.15625 
Q 19.96875 7.515625 21.921875 7.515625 
Q 23.390625 7.515625 25.78125 7.859375 
z
" id="ArialMT-116"/>
       <path d="M 40.4375 6.390625 
Q 35.546875 2.25 31.03125 0.53125 
Q 26.515625 -1.171875 21.34375 -1.171875 
Q 12.796875 -1.171875 8.203125 3 
Q 3.609375 7.171875 3.609375 13.671875 
Q 3.609375 17.484375 5.34375 20.625 
Q 7.078125 23.78125 9.890625 25.6875 
Q 12.703125 27.59375 16.21875 28.5625 
Q 18.796875 29.25 24.03125 29.890625 
Q 34.671875 31.15625 39.703125 32.90625 
Q 39.75 34.71875 39.75 35.203125 
Q 39.75 40.578125 37.25 42.78125 
Q 33.890625 45.75 27.25 45.75 
Q 21.046875 45.75 18.09375 43.578125 
Q 15.140625 41.40625 13.71875 35.890625 
L 5.125 37.0625 
Q 6.296875 42.578125 8.984375 45.96875 
Q 11.671875 49.359375 16.75 51.1875 
Q 21.828125 53.03125 28.515625 53.03125 
Q 35.15625 53.03125 39.296875 51.46875 
Q 43.453125 49.90625 45.40625 47.53125 
Q 47.359375 45.171875 48.140625 41.546875 
Q 48.578125 39.3125 48.578125 33.453125 
L 48.578125 21.734375 
Q 48.578125 9.46875 49.140625 6.21875 
Q 49.703125 2.984375 51.375 0 
L 42.1875 0 
Q 40.828125 2.734375 40.4375 6.390625 
z
M 39.703125 26.03125 
Q 34.90625 24.078125 25.34375 22.703125 
Q 19.921875 21.921875 17.671875 20.9375 
Q 15.4375 19.96875 14.203125 18.09375 
Q 12.984375 16.21875 12.984375 13.921875 
Q 12.984375 10.40625 15.640625 8.0625 
Q 18.3125 5.71875 23.4375 5.71875 
Q 28.515625 5.71875 32.46875 7.9375 
Q 36.421875 10.15625 38.28125 14.015625 
Q 39.703125 17 39.703125 22.796875 
z
" id="ArialMT-97"/>
       <path d="M 6.390625 0 
L 6.390625 71.578125 
L 15.1875 71.578125 
L 15.1875 0 
z
" id="ArialMT-108"/>
      </defs>
      <g transform="translate(428.044677 219.267947)rotate(-45)scale(0.1 -0.1)">
       <use xlink:href="#ArialMT-84"/>
       <use x="60.912109" xlink:href="#ArialMT-111"/>
       <use x="116.527344" xlink:href="#ArialMT-116"/>
       <use x="144.310547" xlink:href="#ArialMT-97"/>
       <use x="199.925781" xlink:href="#ArialMT-108"/>
      </g>
     </g>
    </g>
   </g>
   <g id="matplotlib.axis_2">
    <g id="ytick_1">
     <g id="line2d_20">
      <defs>
       <path d="M 0 0 
L -6 0 
" id="m086b8e2bb1" style="stroke:#004d90;stroke-width:1.5;"/>
      </defs>
      <g>
       <use style="fill:#004d90;stroke:#004d90;stroke-width:1.5;" x="63" xlink:href="#m086b8e2bb1" y="189"/>
      </g>
     </g>
     <g id="text_20">
      <!-- 0% -->
      <defs>
       <path d="M 5.8125 54.390625 
Q 5.8125 62.0625 9.671875 67.421875 
Q 13.53125 72.796875 20.84375 72.796875 
Q 27.59375 72.796875 32 67.984375 
Q 36.421875 63.1875 36.421875 53.859375 
Q 36.421875 44.78125 31.953125 39.875 
Q 27.484375 34.96875 20.953125 34.96875 
Q 14.453125 34.96875 10.125 39.796875 
Q 5.8125 44.625 5.8125 54.390625 
z
M 21.09375 66.75 
Q 17.828125 66.75 15.65625 63.90625 
Q 13.484375 61.078125 13.484375 53.515625 
Q 13.484375 46.625 15.671875 43.8125 
Q 17.875 41.015625 21.09375 41.015625 
Q 24.421875 41.015625 26.59375 43.84375 
Q 28.765625 46.6875 28.765625 54.203125 
Q 28.765625 61.140625 26.5625 63.9375 
Q 24.359375 66.75 21.09375 66.75 
z
M 21.140625 -2.640625 
L 60.296875 72.796875 
L 67.4375 72.796875 
L 28.421875 -2.640625 
z
M 52.09375 16.796875 
Q 52.09375 24.515625 55.953125 29.859375 
Q 59.8125 35.203125 67.1875 35.203125 
Q 73.921875 35.203125 78.34375 30.390625 
Q 82.765625 25.59375 82.765625 16.265625 
Q 82.765625 7.171875 78.296875 2.265625 
Q 73.828125 -2.640625 67.234375 -2.640625 
Q 60.75 -2.640625 56.421875 2.21875 
Q 52.09375 7.078125 52.09375 16.796875 
z
M 67.4375 29.15625 
Q 64.109375 29.15625 61.9375 26.3125 
Q 59.765625 23.484375 59.765625 15.921875 
Q 59.765625 9.078125 61.953125 6.25 
Q 64.15625 3.421875 67.390625 3.421875 
Q 70.75 3.421875 72.921875 6.25 
Q 75.09375 9.078125 75.09375 16.609375 
Q 75.09375 23.53125 72.890625 26.34375 
Q 70.703125 29.15625 67.4375 29.15625 
z
" id="ArialMT-37"/>
      </defs>
      <g style="fill:#004d90;" transform="translate(39.046875 192.578906)scale(0.1 -0.1)">
       <use xlink:href="#ArialMT-48"/>
       <use x="55.615234" xlink:href="#ArialMT-37"/>
      </g>
     </g>
    </g>
    <g id="ytick_2">
     <g id="line2d_21">
      <g>
       <use style="fill:#004d90;stroke:#004d90;stroke-width:1.5;" x="63" xlink:href="#m086b8e2bb1" y="172.692"/>
      </g>
     </g>
     <g id="text_21">
      <!-- 10% -->
      <g style="fill:#004d90;" transform="translate(33.485937 176.270906)scale(0.1 -0.1)">
       <use xlink:href="#ArialMT-49"/>
       <use x="55.615234" xlink:href="#ArialMT-48"/>
       <use x="111.230469" xlink:href="#ArialMT-37"/>
      </g>
     </g>
    </g>
    <g id="ytick_3">
     <g id="line2d_22">
      <g>
       <use style="fill:#004d90;stroke:#004d90;stroke-width:1.5;" x="63" xlink:href="#m086b8e2bb1" y="156.384"/>
      </g>
     </g>
     <g id="text_22">
      <!-- 20% -->
      <g style="fill:#004d90;" transform="translate(33.485937 159.962906)scale(0.1 -0.1)">
       <use xlink:href="#ArialMT-50"/>
       <use x="55.615234" xlink:href="#ArialMT-48"/>
       <use x="111.230469" xlink:href="#ArialMT-37"/>
      </g>
     </g>
    </g>
    <g id="ytick_4">
     <g id="line2d_23">
      <g>
       <use style="fill:#004d90;stroke:#004d90;stroke-width:1.5;" x="63" xlink:href="#m086b8e2bb1" y="140.076"/>
      </g>
     </g>
     <g id="text_23">
      <!-- 30% -->
      <g style="fill:#004d90;" transform="translate(33.485937 143.654906)scale(0.1 -0.1)">
       <use xlink:href="#ArialMT-51"/>
       <use x="55.615234" xlink:href="#ArialMT-48"/>
       <use x="111.230469" xlink:href="#ArialMT-37"/>
      </g>
     </g>
    </g>
    <g id="ytick_5">
     <g id="line2d_24">
      <g>
       <use style="fill:#004d90;stroke:#004d90;stroke-width:1.5;" x="63" xlink:href="#m086b8e2bb1" y="123.768"/>
      </g>
     </g>
     <g id="text_24">
      <!-- 40% -->
      <g style="fill:#004d90;" transform="translate(33.485937 127.346906)scale(0.1 -0.1)">
       <use xlink:href="#ArialMT-52"/>
       <use x="55.615234" xlink:href="#ArialMT-48"/>
       <use x="111.230469" xlink:href="#ArialMT-37"/>
      </g>
     </g>
    </g>
    <g id="ytick_6">
     <g id="line2d_25">
      <g>
       <use style="fill:#004d90;stroke:#004d90;stroke-width:1.5;" x="63" xlink:href="#m086b8e2bb1" y="107.46"/>
      </g>
     </g>
     <g id="text_25">
      <!-- 50% -->
      <g style="fill:#004d90;" transform="translate(33.485937 111.038906)scale(0.1 -0.1)">
       <use xlink:href="#ArialMT-53"/>
       <use x="55.615234" xlink:href="#ArialMT-48"/>
       <use x="111.230469" xlink:href="#ArialMT-37"/>
      </g>
     </g>
    </g>
    <g id="ytick_7">
     <g id="line2d_26">
      <g>
       <use style="fill:#004d90;stroke:#004d90;stroke-width:1.5;" x="63" xlink:href="#m086b8e2bb1" y="91.152"/>
      </g>
     </g>
     <g id="text_26">
      <!-- 60% -->
      <defs>
       <path d="M 49.75 54.046875 
L 41.015625 53.375 
Q 39.84375 58.546875 37.703125 60.890625 
Q 34.125 64.65625 28.90625 64.65625 
Q 24.703125 64.65625 21.53125 62.3125 
Q 17.390625 59.28125 14.984375 53.46875 
Q 12.59375 47.65625 12.5 36.921875 
Q 15.671875 41.75 20.265625 44.09375 
Q 24.859375 46.4375 29.890625 46.4375 
Q 38.671875 46.4375 44.84375 39.96875 
Q 51.03125 33.5 51.03125 23.25 
Q 51.03125 16.5 48.125 10.71875 
Q 45.21875 4.9375 40.140625 1.859375 
Q 35.0625 -1.21875 28.609375 -1.21875 
Q 17.625 -1.21875 10.6875 6.859375 
Q 3.765625 14.9375 3.765625 33.5 
Q 3.765625 54.25 11.421875 63.671875 
Q 18.109375 71.875 29.4375 71.875 
Q 37.890625 71.875 43.28125 67.140625 
Q 48.6875 62.40625 49.75 54.046875 
z
M 13.875 23.1875 
Q 13.875 18.65625 15.796875 14.5 
Q 17.71875 10.359375 21.1875 8.171875 
Q 24.65625 6 28.46875 6 
Q 34.03125 6 38.03125 10.484375 
Q 42.046875 14.984375 42.046875 22.703125 
Q 42.046875 30.125 38.078125 34.390625 
Q 34.125 38.671875 28.125 38.671875 
Q 22.171875 38.671875 18.015625 34.390625 
Q 13.875 30.125 13.875 23.1875 
z
" id="ArialMT-54"/>
      </defs>
      <g style="fill:#004d90;" transform="translate(33.485937 94.730906)scale(0.1 -0.1)">
       <use xlink:href="#ArialMT-54"/>
       <use x="55.615234" xlink:href="#ArialMT-48"/>
       <use x="111.230469" xlink:href="#ArialMT-37"/>
      </g>
     </g>
    </g>
    <g id="ytick_8">
     <g id="line2d_27">
      <g>
       <use style="fill:#004d90;stroke:#004d90;stroke-width:1.5;" x="63" xlink:href="#m086b8e2bb1" y="74.844"/>
      </g>
     </g>
     <g id="text_27">
      <!-- 70% -->
      <defs>
       <path d="M 4.734375 62.203125 
L 4.734375 70.65625 
L 51.078125 70.65625 
L 51.078125 63.8125 
Q 44.234375 56.546875 37.515625 44.484375 
Q 30.8125 32.421875 27.15625 19.671875 
Q 24.515625 10.6875 23.78125 0 
L 14.75 0 
Q 14.890625 8.453125 18.0625 20.40625 
Q 21.234375 32.375 27.171875 43.484375 
Q 33.109375 54.59375 39.796875 62.203125 
z
" id="ArialMT-55"/>
      </defs>
      <g style="fill:#004d90;" transform="translate(33.485937 78.422906)scale(0.1 -0.1)">
       <use xlink:href="#ArialMT-55"/>
       <use x="55.615234" xlink:href="#ArialMT-48"/>
       <use x="111.230469" xlink:href="#ArialMT-37"/>
      </g>
     </g>
    </g>
    <g id="ytick_9">
     <g id="line2d_28">
      <g>
       <use style="fill:#004d90;stroke:#004d90;stroke-width:1.5;" x="63" xlink:href="#m086b8e2bb1" y="58.536"/>
      </g>
     </g>
     <g id="text_28">
      <!-- 80% -->
      <defs>
       <path d="M 17.671875 38.8125 
Q 12.203125 40.828125 9.5625 44.53125 
Q 6.9375 48.25 6.9375 53.421875 
Q 6.9375 61.234375 12.546875 66.546875 
Q 18.171875 71.875 27.484375 71.875 
Q 36.859375 71.875 42.578125 66.421875 
Q 48.296875 60.984375 48.296875 53.171875 
Q 48.296875 48.1875 45.671875 44.5 
Q 43.0625 40.828125 37.75 38.8125 
Q 44.34375 36.671875 47.78125 31.875 
Q 51.21875 27.09375 51.21875 20.453125 
Q 51.21875 11.28125 44.71875 5.03125 
Q 38.234375 -1.21875 27.640625 -1.21875 
Q 17.046875 -1.21875 10.546875 5.046875 
Q 4.046875 11.328125 4.046875 20.703125 
Q 4.046875 27.6875 7.59375 32.390625 
Q 11.140625 37.109375 17.671875 38.8125 
z
M 15.921875 53.71875 
Q 15.921875 48.640625 19.1875 45.40625 
Q 22.46875 42.1875 27.6875 42.1875 
Q 32.765625 42.1875 36.015625 45.375 
Q 39.265625 48.578125 39.265625 53.21875 
Q 39.265625 58.0625 35.90625 61.359375 
Q 32.5625 64.65625 27.59375 64.65625 
Q 22.5625 64.65625 19.234375 61.421875 
Q 15.921875 58.203125 15.921875 53.71875 
z
M 13.09375 20.65625 
Q 13.09375 16.890625 14.875 13.375 
Q 16.65625 9.859375 20.171875 7.921875 
Q 23.6875 6 27.734375 6 
Q 34.03125 6 38.125 10.046875 
Q 42.234375 14.109375 42.234375 20.359375 
Q 42.234375 26.703125 38.015625 30.859375 
Q 33.796875 35.015625 27.4375 35.015625 
Q 21.234375 35.015625 17.15625 30.90625 
Q 13.09375 26.8125 13.09375 20.65625 
z
" id="ArialMT-56"/>
      </defs>
      <g style="fill:#004d90;" transform="translate(33.485937 62.114906)scale(0.1 -0.1)">
       <use xlink:href="#ArialMT-56"/>
       <use x="55.615234" xlink:href="#ArialMT-48"/>
       <use x="111.230469" xlink:href="#ArialMT-37"/>
      </g>
     </g>
    </g>
    <g id="ytick_10">
     <g id="line2d_29">
      <g>
       <use style="fill:#004d90;stroke:#004d90;stroke-width:1.5;" x="63" xlink:href="#m086b8e2bb1" y="42.228"/>
      </g>
     </g>
     <g id="text_29">
      <!-- 90% -->
      <defs>
       <path d="M 5.46875 16.546875 
L 13.921875 17.328125 
Q 14.984375 11.375 18.015625 8.6875 
Q 21.046875 6 25.78125 6 
Q 29.828125 6 32.875 7.859375 
Q 35.9375 9.71875 37.890625 12.8125 
Q 39.84375 15.921875 41.15625 21.1875 
Q 42.484375 26.46875 42.484375 31.9375 
Q 42.484375 32.515625 42.4375 33.6875 
Q 39.796875 29.5 35.234375 26.875 
Q 30.671875 24.265625 25.34375 24.265625 
Q 16.453125 24.265625 10.296875 30.703125 
Q 4.15625 37.15625 4.15625 47.703125 
Q 4.15625 58.59375 10.578125 65.234375 
Q 17 71.875 26.65625 71.875 
Q 33.640625 71.875 39.421875 68.109375 
Q 45.21875 64.359375 48.21875 57.390625 
Q 51.21875 50.4375 51.21875 37.25 
Q 51.21875 23.53125 48.234375 15.40625 
Q 45.265625 7.28125 39.375 3.03125 
Q 33.5 -1.21875 25.59375 -1.21875 
Q 17.1875 -1.21875 11.859375 3.4375 
Q 6.546875 8.109375 5.46875 16.546875 
z
M 41.453125 48.140625 
Q 41.453125 55.71875 37.421875 60.15625 
Q 33.40625 64.59375 27.734375 64.59375 
Q 21.875 64.59375 17.53125 59.8125 
Q 13.1875 55.03125 13.1875 47.40625 
Q 13.1875 40.578125 17.3125 36.296875 
Q 21.4375 32.03125 27.484375 32.03125 
Q 33.59375 32.03125 37.515625 36.296875 
Q 41.453125 40.578125 41.453125 48.140625 
z
" id="ArialMT-57"/>
      </defs>
      <g style="fill:#004d90;" transform="translate(33.485937 45.806906)scale(0.1 -0.1)">
       <use xlink:href="#ArialMT-57"/>
       <use x="55.615234" xlink:href="#ArialMT-48"/>
       <use x="111.230469" xlink:href="#ArialMT-37"/>
      </g>
     </g>
    </g>
    <g id="ytick_11">
     <g id="line2d_30">
      <g>
       <use style="fill:#004d90;stroke:#004d90;stroke-width:1.5;" x="63" xlink:href="#m086b8e2bb1" y="25.92"/>
      </g>
     </g>
     <g id="text_30">
      <!-- 100% -->
      <g style="fill:#004d90;" transform="translate(27.925 29.498906)scale(0.1 -0.1)">
       <use xlink:href="#ArialMT-49"/>
       <use x="55.615234" xlink:href="#ArialMT-48"/>
       <use x="111.230469" xlink:href="#ArialMT-48"/>
       <use x="166.845703" xlink:href="#ArialMT-37"/>
      </g>
     </g>
    </g>
    <g id="text_31">
     <!-- $\bf{Sparsity\ of\ Activations}$ -->
     <defs>
      <path d="M 59.90625 70.609375 
L 59.90625 55.171875 
Q 53.90625 57.859375 48.1875 59.21875 
Q 42.484375 60.59375 37.40625 60.59375 
Q 30.671875 60.59375 27.4375 58.734375 
Q 24.21875 56.890625 24.21875 52.984375 
Q 24.21875 50.046875 26.390625 48.40625 
Q 28.5625 46.78125 34.28125 45.609375 
L 42.28125 44 
Q 54.4375 41.546875 59.5625 36.5625 
Q 64.703125 31.59375 64.703125 22.40625 
Q 64.703125 10.359375 57.546875 4.46875 
Q 50.390625 -1.421875 35.6875 -1.421875 
Q 28.765625 -1.421875 21.78125 -0.09375 
Q 14.796875 1.21875 7.8125 3.8125 
L 7.8125 19.671875 
Q 14.796875 15.96875 21.3125 14.078125 
Q 27.828125 12.203125 33.890625 12.203125 
Q 40.046875 12.203125 43.3125 14.25 
Q 46.578125 16.3125 46.578125 20.125 
Q 46.578125 23.53125 44.359375 25.390625 
Q 42.140625 27.25 35.5 28.71875 
L 28.21875 30.328125 
Q 17.28125 32.671875 12.21875 37.796875 
Q 7.171875 42.921875 7.171875 51.609375 
Q 7.171875 62.5 14.203125 68.359375 
Q 21.234375 74.21875 34.421875 74.21875 
Q 40.4375 74.21875 46.78125 73.3125 
Q 53.125 72.40625 59.90625 70.609375 
z
" id="DejaVuSans-Bold-83"/>
      <path d="M 25.875 7.90625 
L 25.875 -20.796875 
L 8.40625 -20.796875 
L 8.40625 54.6875 
L 25.875 54.6875 
L 25.875 46.6875 
Q 29.5 51.46875 33.890625 53.734375 
Q 38.28125 56 44 56 
Q 54.109375 56 60.59375 47.96875 
Q 67.09375 39.9375 67.09375 27.296875 
Q 67.09375 14.65625 60.59375 6.609375 
Q 54.109375 -1.421875 44 -1.421875 
Q 38.28125 -1.421875 33.890625 0.84375 
Q 29.5 3.125 25.875 7.90625 
z
M 37.5 43.3125 
Q 31.890625 43.3125 28.875 39.1875 
Q 25.875 35.0625 25.875 27.296875 
Q 25.875 19.53125 28.875 15.40625 
Q 31.890625 11.28125 37.5 11.28125 
Q 43.109375 11.28125 46.0625 15.375 
Q 49.03125 19.484375 49.03125 27.296875 
Q 49.03125 35.109375 46.0625 39.203125 
Q 43.109375 43.3125 37.5 43.3125 
z
" id="DejaVuSans-Bold-112"/>
      <path d="M 32.90625 24.609375 
Q 27.4375 24.609375 24.671875 22.75 
Q 21.921875 20.90625 21.921875 17.28125 
Q 21.921875 13.96875 24.140625 12.078125 
Q 26.375 10.203125 30.328125 10.203125 
Q 35.25 10.203125 38.625 13.734375 
Q 42 17.28125 42 22.609375 
L 42 24.609375 
z
M 59.625 31.203125 
L 59.625 0 
L 42 0 
L 42 8.109375 
Q 38.484375 3.125 34.078125 0.84375 
Q 29.6875 -1.421875 23.390625 -1.421875 
Q 14.890625 -1.421875 9.59375 3.53125 
Q 4.296875 8.5 4.296875 16.40625 
Q 4.296875 26.03125 10.90625 30.515625 
Q 17.53125 35.015625 31.6875 35.015625 
L 42 35.015625 
L 42 36.375 
Q 42 40.53125 38.71875 42.453125 
Q 35.453125 44.390625 28.515625 44.390625 
Q 22.90625 44.390625 18.0625 43.265625 
Q 13.234375 42.140625 9.078125 39.890625 
L 9.078125 53.21875 
Q 14.703125 54.59375 20.359375 55.296875 
Q 26.03125 56 31.6875 56 
Q 46.484375 56 53.046875 50.171875 
Q 59.625 44.34375 59.625 31.203125 
z
" id="DejaVuSans-Bold-97"/>
      <path d="M 49.03125 39.796875 
Q 46.734375 40.875 44.453125 41.375 
Q 42.1875 41.890625 39.890625 41.890625 
Q 33.15625 41.890625 29.515625 37.5625 
Q 25.875 33.25 25.875 25.203125 
L 25.875 0 
L 8.40625 0 
L 8.40625 54.6875 
L 25.875 54.6875 
L 25.875 45.703125 
Q 29.25 51.078125 33.609375 53.53125 
Q 37.984375 56 44.09375 56 
Q 44.96875 56 45.984375 55.921875 
Q 47.015625 55.859375 48.96875 55.609375 
z
" id="DejaVuSans-Bold-114"/>
      <path d="M 51.125 52.984375 
L 51.125 39.703125 
Q 45.515625 42.046875 40.28125 43.21875 
Q 35.0625 44.390625 30.421875 44.390625 
Q 25.4375 44.390625 23.015625 43.140625 
Q 20.609375 41.890625 20.609375 39.3125 
Q 20.609375 37.203125 22.4375 36.078125 
Q 24.265625 34.96875 29 34.421875 
L 32.078125 33.984375 
Q 45.515625 32.28125 50.140625 28.375 
Q 54.78125 24.46875 54.78125 16.109375 
Q 54.78125 7.375 48.328125 2.96875 
Q 41.890625 -1.421875 29.109375 -1.421875 
Q 23.6875 -1.421875 17.890625 -0.5625 
Q 12.109375 0.296875 6 2 
L 6 15.28125 
Q 11.234375 12.75 16.71875 11.46875 
Q 22.21875 10.203125 27.875 10.203125 
Q 33.015625 10.203125 35.59375 11.609375 
Q 38.1875 13.03125 38.1875 15.828125 
Q 38.1875 18.171875 36.40625 19.3125 
Q 34.625 20.453125 29.296875 21.09375 
L 26.21875 21.484375 
Q 14.546875 22.953125 9.859375 26.90625 
Q 5.171875 30.859375 5.171875 38.921875 
Q 5.171875 47.609375 11.125 51.796875 
Q 17.09375 56 29.390625 56 
Q 34.234375 56 39.546875 55.265625 
Q 44.875 54.546875 51.125 52.984375 
z
" id="DejaVuSans-Bold-115"/>
      <path d="M 8.40625 54.6875 
L 25.875 54.6875 
L 25.875 0 
L 8.40625 0 
z
M 8.40625 75.984375 
L 25.875 75.984375 
L 25.875 61.71875 
L 8.40625 61.71875 
z
" id="DejaVuSans-Bold-105"/>
      <path d="M 27.484375 70.21875 
L 27.484375 54.6875 
L 45.515625 54.6875 
L 45.515625 42.1875 
L 27.484375 42.1875 
L 27.484375 19 
Q 27.484375 15.1875 29 13.84375 
Q 30.515625 12.5 35.015625 12.5 
L 44 12.5 
L 44 0 
L 29 0 
Q 18.65625 0 14.328125 4.3125 
Q 10.015625 8.640625 10.015625 19 
L 10.015625 42.1875 
L 1.3125 42.1875 
L 1.3125 54.6875 
L 10.015625 54.6875 
L 10.015625 70.21875 
z
" id="DejaVuSans-Bold-116"/>
      <path d="M 1.21875 54.6875 
L 18.703125 54.6875 
L 33.40625 17.578125 
L 45.90625 54.6875 
L 63.375 54.6875 
L 40.375 -5.171875 
Q 36.921875 -14.3125 32.296875 -17.9375 
Q 27.6875 -21.578125 20.125 -21.578125 
L 10.015625 -21.578125 
L 10.015625 -10.109375 
L 15.484375 -10.109375 
Q 19.921875 -10.109375 21.9375 -8.6875 
Q 23.96875 -7.28125 25.09375 -3.609375 
L 25.59375 -2.09375 
z
" id="DejaVuSans-Bold-121"/>
      <path d="M 34.421875 43.5 
Q 28.609375 43.5 25.5625 39.328125 
Q 22.515625 35.15625 22.515625 27.296875 
Q 22.515625 19.4375 25.5625 15.25 
Q 28.609375 11.078125 34.421875 11.078125 
Q 40.140625 11.078125 43.15625 15.25 
Q 46.1875 19.4375 46.1875 27.296875 
Q 46.1875 35.15625 43.15625 39.328125 
Q 40.140625 43.5 34.421875 43.5 
z
M 34.421875 56 
Q 48.53125 56 56.46875 48.375 
Q 64.40625 40.765625 64.40625 27.296875 
Q 64.40625 13.8125 56.46875 6.1875 
Q 48.53125 -1.421875 34.421875 -1.421875 
Q 20.265625 -1.421875 12.28125 6.1875 
Q 4.296875 13.8125 4.296875 27.296875 
Q 4.296875 40.765625 12.28125 48.375 
Q 20.265625 56 34.421875 56 
z
" id="DejaVuSans-Bold-111"/>
      <path d="M 44.390625 75.984375 
L 44.390625 64.5 
L 34.71875 64.5 
Q 31 64.5 29.53125 63.15625 
Q 28.078125 61.8125 28.078125 58.5 
L 28.078125 54.6875 
L 43.015625 54.6875 
L 43.015625 42.1875 
L 28.078125 42.1875 
L 28.078125 0 
L 10.59375 0 
L 10.59375 42.1875 
L 1.90625 42.1875 
L 1.90625 54.6875 
L 10.59375 54.6875 
L 10.59375 58.5 
Q 10.59375 67.4375 15.578125 71.703125 
Q 20.5625 75.984375 31 75.984375 
z
" id="DejaVuSans-Bold-102"/>
      <path d="M 53.421875 13.28125 
L 24.03125 13.28125 
L 19.390625 0 
L 0.484375 0 
L 27.484375 72.90625 
L 49.90625 72.90625 
L 76.90625 0 
L 58.015625 0 
z
M 28.71875 26.8125 
L 48.6875 26.8125 
L 38.71875 55.8125 
z
" id="DejaVuSans-Bold-65"/>
      <path d="M 52.59375 52.984375 
L 52.59375 38.71875 
Q 49.03125 41.15625 45.4375 42.328125 
Q 41.84375 43.5 37.984375 43.5 
Q 30.671875 43.5 26.59375 39.234375 
Q 22.515625 34.96875 22.515625 27.296875 
Q 22.515625 19.625 26.59375 15.34375 
Q 30.671875 11.078125 37.984375 11.078125 
Q 42.09375 11.078125 45.78125 12.296875 
Q 49.46875 13.53125 52.59375 15.921875 
L 52.59375 1.609375 
Q 48.484375 0.09375 44.265625 -0.65625 
Q 40.046875 -1.421875 35.796875 -1.421875 
Q 21 -1.421875 12.640625 6.171875 
Q 4.296875 13.765625 4.296875 27.296875 
Q 4.296875 40.828125 12.640625 48.40625 
Q 21 56 35.796875 56 
Q 40.09375 56 44.265625 55.25 
Q 48.4375 54.5 52.59375 52.984375 
z
" id="DejaVuSans-Bold-99"/>
      <path d="M 1.515625 54.6875 
L 19 54.6875 
L 32.625 16.890625 
L 46.1875 54.6875 
L 63.71875 54.6875 
L 42.1875 0 
L 23 0 
z
" id="DejaVuSans-Bold-118"/>
      <path d="M 63.375 33.296875 
L 63.375 0 
L 45.796875 0 
L 45.796875 5.421875 
L 45.796875 25.484375 
Q 45.796875 32.5625 45.484375 35.25 
Q 45.171875 37.9375 44.390625 39.203125 
Q 43.359375 40.921875 41.59375 41.875 
Q 39.84375 42.828125 37.59375 42.828125 
Q 32.125 42.828125 29 38.59375 
Q 25.875 34.375 25.875 26.90625 
L 25.875 0 
L 8.40625 0 
L 8.40625 54.6875 
L 25.875 54.6875 
L 25.875 46.6875 
Q 29.828125 51.46875 34.265625 53.734375 
Q 38.71875 56 44.09375 56 
Q 53.5625 56 58.46875 50.1875 
Q 63.375 44.390625 63.375 33.296875 
z
" id="DejaVuSans-Bold-110"/>
     </defs>
     <g style="fill:#004d90;" transform="translate(21.725 171.56)rotate(-90)scale(0.1 -0.1)">
      <use transform="translate(0 0.015625)" xlink:href="#DejaVuSans-Bold-83"/>
      <use transform="translate(72.021484 0.015625)" xlink:href="#DejaVuSans-Bold-112"/>
      <use transform="translate(143.603516 0.015625)" xlink:href="#DejaVuSans-Bold-97"/>
      <use transform="translate(211.083984 0.015625)" xlink:href="#DejaVuSans-Bold-114"/>
      <use transform="translate(260.400391 0.015625)" xlink:href="#DejaVuSans-Bold-115"/>
      <use transform="translate(319.921875 0.015625)" xlink:href="#DejaVuSans-Bold-105"/>
      <use transform="translate(354.199219 0.015625)" xlink:href="#DejaVuSans-Bold-116"/>
      <use transform="translate(402.001953 0.015625)" xlink:href="#DejaVuSans-Bold-121"/>
      <use transform="translate(501.920226 0.015625)" xlink:href="#DejaVuSans-Bold-111"/>
      <use transform="translate(570.621397 0.015625)" xlink:href="#DejaVuSans-Bold-102"/>
      <use transform="translate(648.859982 0.015625)" xlink:href="#DejaVuSans-Bold-65"/>
      <use transform="translate(726.252561 0.015625)" xlink:href="#DejaVuSans-Bold-99"/>
      <use transform="translate(785.529904 0.015625)" xlink:href="#DejaVuSans-Bold-116"/>
      <use transform="translate(833.332639 0.015625)" xlink:href="#DejaVuSans-Bold-105"/>
      <use transform="translate(867.609982 0.015625)" xlink:href="#DejaVuSans-Bold-118"/>
      <use transform="translate(932.795529 0.015625)" xlink:href="#DejaVuSans-Bold-97"/>
      <use transform="translate(1000.275998 0.015625)" xlink:href="#DejaVuSans-Bold-116"/>
      <use transform="translate(1048.078732 0.015625)" xlink:href="#DejaVuSans-Bold-105"/>
      <use transform="translate(1082.356076 0.015625)" xlink:href="#DejaVuSans-Bold-111"/>
      <use transform="translate(1151.057248 0.015625)" xlink:href="#DejaVuSans-Bold-110"/>
      <use transform="translate(1222.248654 0.015625)" xlink:href="#DejaVuSans-Bold-115"/>
     </g>
    </g>
   </g>
   <g id="patch_41">
    <path d="M 63 189 
L 63 25.92 
" style="fill:none;stroke:#004d90;stroke-linecap:square;stroke-linejoin:miter;"/>
   </g>
   <g id="patch_42">
    <path d="M 63 189 
L 453.6 189 
" style="fill:none;stroke:#000000;stroke-linecap:square;stroke-linejoin:miter;"/>
   </g>
  </g>
  <g id="axes_2">
   <g id="matplotlib.axis_3">
    <g id="ytick_12">
     <g id="line2d_31">
      <defs>
       <path d="M 0 0 
L 6 0 
" id="mef486d7e6f" style="stroke:#d64949;stroke-width:1.5;"/>
      </defs>
      <g>
       <use style="fill:#d64949;stroke:#d64949;stroke-width:1.5;" x="453.6" xlink:href="#mef486d7e6f" y="189"/>
      </g>
     </g>
     <g id="text_32">
      <!-- 0% -->
      <g style="fill:#d64949;" transform="translate(463.1 192.578906)scale(0.1 -0.1)">
       <use xlink:href="#ArialMT-48"/>
       <use x="55.615234" xlink:href="#ArialMT-37"/>
      </g>
     </g>
    </g>
    <g id="ytick_13">
     <g id="line2d_32">
      <g>
       <use style="fill:#d64949;stroke:#d64949;stroke-width:1.5;" x="453.6" xlink:href="#mef486d7e6f" y="172.692"/>
      </g>
     </g>
     <g id="text_33">
      <!-- 10% -->
      <g style="fill:#d64949;" transform="translate(463.1 176.270906)scale(0.1 -0.1)">
       <use xlink:href="#ArialMT-49"/>
       <use x="55.615234" xlink:href="#ArialMT-48"/>
       <use x="111.230469" xlink:href="#ArialMT-37"/>
      </g>
     </g>
    </g>
    <g id="ytick_14">
     <g id="line2d_33">
      <g>
       <use style="fill:#d64949;stroke:#d64949;stroke-width:1.5;" x="453.6" xlink:href="#mef486d7e6f" y="156.384"/>
      </g>
     </g>
     <g id="text_34">
      <!-- 20% -->
      <g style="fill:#d64949;" transform="translate(463.1 159.962906)scale(0.1 -0.1)">
       <use xlink:href="#ArialMT-50"/>
       <use x="55.615234" xlink:href="#ArialMT-48"/>
       <use x="111.230469" xlink:href="#ArialMT-37"/>
      </g>
     </g>
    </g>
    <g id="ytick_15">
     <g id="line2d_34">
      <g>
       <use style="fill:#d64949;stroke:#d64949;stroke-width:1.5;" x="453.6" xlink:href="#mef486d7e6f" y="140.076"/>
      </g>
     </g>
     <g id="text_35">
      <!-- 30% -->
      <g style="fill:#d64949;" transform="translate(463.1 143.654906)scale(0.1 -0.1)">
       <use xlink:href="#ArialMT-51"/>
       <use x="55.615234" xlink:href="#ArialMT-48"/>
       <use x="111.230469" xlink:href="#ArialMT-37"/>
      </g>
     </g>
    </g>
    <g id="ytick_16">
     <g id="line2d_35">
      <g>
       <use style="fill:#d64949;stroke:#d64949;stroke-width:1.5;" x="453.6" xlink:href="#mef486d7e6f" y="123.768"/>
      </g>
     </g>
     <g id="text_36">
      <!-- 40% -->
      <g style="fill:#d64949;" transform="translate(463.1 127.346906)scale(0.1 -0.1)">
       <use xlink:href="#ArialMT-52"/>
       <use x="55.615234" xlink:href="#ArialMT-48"/>
       <use x="111.230469" xlink:href="#ArialMT-37"/>
      </g>
     </g>
    </g>
    <g id="ytick_17">
     <g id="line2d_36">
      <g>
       <use style="fill:#d64949;stroke:#d64949;stroke-width:1.5;" x="453.6" xlink:href="#mef486d7e6f" y="107.46"/>
      </g>
     </g>
     <g id="text_37">
      <!-- 50% -->
      <g style="fill:#d64949;" transform="translate(463.1 111.038906)scale(0.1 -0.1)">
       <use xlink:href="#ArialMT-53"/>
       <use x="55.615234" xlink:href="#ArialMT-48"/>
       <use x="111.230469" xlink:href="#ArialMT-37"/>
      </g>
     </g>
    </g>
    <g id="ytick_18">
     <g id="line2d_37">
      <g>
       <use style="fill:#d64949;stroke:#d64949;stroke-width:1.5;" x="453.6" xlink:href="#mef486d7e6f" y="91.152"/>
      </g>
     </g>
     <g id="text_38">
      <!-- 60% -->
      <g style="fill:#d64949;" transform="translate(463.1 94.730906)scale(0.1 -0.1)">
       <use xlink:href="#ArialMT-54"/>
       <use x="55.615234" xlink:href="#ArialMT-48"/>
       <use x="111.230469" xlink:href="#ArialMT-37"/>
      </g>
     </g>
    </g>
    <g id="ytick_19">
     <g id="line2d_38">
      <g>
       <use style="fill:#d64949;stroke:#d64949;stroke-width:1.5;" x="453.6" xlink:href="#mef486d7e6f" y="74.844"/>
      </g>
     </g>
     <g id="text_39">
      <!-- 70% -->
      <g style="fill:#d64949;" transform="translate(463.1 78.422906)scale(0.1 -0.1)">
       <use xlink:href="#ArialMT-55"/>
       <use x="55.615234" xlink:href="#ArialMT-48"/>
       <use x="111.230469" xlink:href="#ArialMT-37"/>
      </g>
     </g>
    </g>
    <g id="ytick_20">
     <g id="line2d_39">
      <g>
       <use style="fill:#d64949;stroke:#d64949;stroke-width:1.5;" x="453.6" xlink:href="#mef486d7e6f" y="58.536"/>
      </g>
     </g>
     <g id="text_40">
      <!-- 80% -->
      <g style="fill:#d64949;" transform="translate(463.1 62.114906)scale(0.1 -0.1)">
       <use xlink:href="#ArialMT-56"/>
       <use x="55.615234" xlink:href="#ArialMT-48"/>
       <use x="111.230469" xlink:href="#ArialMT-37"/>
      </g>
     </g>
    </g>
    <g id="ytick_21">
     <g id="line2d_40">
      <g>
       <use style="fill:#d64949;stroke:#d64949;stroke-width:1.5;" x="453.6" xlink:href="#mef486d7e6f" y="42.228"/>
      </g>
     </g>
     <g id="text_41">
      <!-- 90% -->
      <g style="fill:#d64949;" transform="translate(463.1 45.806906)scale(0.1 -0.1)">
       <use xlink:href="#ArialMT-57"/>
       <use x="55.615234" xlink:href="#ArialMT-48"/>
       <use x="111.230469" xlink:href="#ArialMT-37"/>
      </g>
     </g>
    </g>
    <g id="ytick_22">
     <g id="line2d_41">
      <g>
       <use style="fill:#d64949;stroke:#d64949;stroke-width:1.5;" x="453.6" xlink:href="#mef486d7e6f" y="25.92"/>
      </g>
     </g>
     <g id="text_42">
      <!-- 100% -->
      <g style="fill:#d64949;" transform="translate(463.1 29.498906)scale(0.1 -0.1)">
       <use xlink:href="#ArialMT-49"/>
       <use x="55.615234" xlink:href="#ArialMT-48"/>
       <use x="111.230469" xlink:href="#ArialMT-48"/>
       <use x="166.845703" xlink:href="#ArialMT-37"/>
      </g>
     </g>
    </g>
    <g id="text_43">
     <!-- $\bf{Sparsity\ of\ Weights}$ -->
     <defs>
      <path d="M 2.984375 72.90625 
L 21 72.90625 
L 33.59375 19.921875 
L 46.09375 72.90625 
L 64.203125 72.90625 
L 76.703125 19.921875 
L 89.3125 72.90625 
L 107.171875 72.90625 
L 89.984375 0 
L 68.3125 0 
L 55.078125 55.421875 
L 42 0 
L 20.3125 0 
z
" id="DejaVuSans-Bold-87"/>
      <path d="M 62.984375 27.484375 
L 62.984375 22.515625 
L 22.125 22.515625 
Q 22.75 16.359375 26.5625 13.28125 
Q 30.375 10.203125 37.203125 10.203125 
Q 42.71875 10.203125 48.5 11.84375 
Q 54.296875 13.484375 60.40625 16.796875 
L 60.40625 3.328125 
Q 54.203125 0.984375 48 -0.21875 
Q 41.796875 -1.421875 35.59375 -1.421875 
Q 20.75 -1.421875 12.515625 6.125 
Q 4.296875 13.671875 4.296875 27.296875 
Q 4.296875 40.671875 12.375 48.328125 
Q 20.453125 56 34.625 56 
Q 47.515625 56 55.25 48.234375 
Q 62.984375 40.484375 62.984375 27.484375 
z
M 45.015625 33.296875 
Q 45.015625 38.28125 42.109375 41.328125 
Q 39.203125 44.390625 34.515625 44.390625 
Q 29.4375 44.390625 26.265625 41.53125 
Q 23.09375 38.671875 22.3125 33.296875 
z
" id="DejaVuSans-Bold-101"/>
      <path d="M 45.609375 9.28125 
Q 42 4.5 37.640625 2.25 
Q 33.296875 0 27.59375 0 
Q 17.578125 0 11.03125 7.875 
Q 4.5 15.765625 4.5 27.984375 
Q 4.5 40.234375 11.03125 48.0625 
Q 17.578125 55.90625 27.59375 55.90625 
Q 33.296875 55.90625 37.640625 53.65625 
Q 42 51.421875 45.609375 46.578125 
L 45.609375 54.6875 
L 63.1875 54.6875 
L 63.1875 5.515625 
Q 63.1875 -7.671875 54.859375 -14.625 
Q 46.53125 -21.578125 30.71875 -21.578125 
Q 25.59375 -21.578125 20.796875 -20.796875 
Q 16.015625 -20.015625 11.1875 -18.40625 
L 11.1875 -4.78125 
Q 15.765625 -7.421875 20.15625 -8.71875 
Q 24.5625 -10.015625 29 -10.015625 
Q 37.59375 -10.015625 41.59375 -6.25 
Q 45.609375 -2.484375 45.609375 5.515625 
z
M 34.078125 43.3125 
Q 28.65625 43.3125 25.625 39.296875 
Q 22.609375 35.296875 22.609375 27.984375 
Q 22.609375 20.453125 25.53125 16.578125 
Q 28.46875 12.703125 34.078125 12.703125 
Q 39.546875 12.703125 42.578125 16.703125 
Q 45.609375 20.703125 45.609375 27.984375 
Q 45.609375 35.296875 42.578125 39.296875 
Q 39.546875 43.3125 34.078125 43.3125 
z
" id="DejaVuSans-Bold-103"/>
      <path d="M 63.375 33.296875 
L 63.375 0 
L 45.796875 0 
L 45.796875 5.421875 
L 45.796875 25.390625 
Q 45.796875 32.5625 45.484375 35.25 
Q 45.171875 37.9375 44.390625 39.203125 
Q 43.359375 40.921875 41.59375 41.875 
Q 39.84375 42.828125 37.59375 42.828125 
Q 32.125 42.828125 29 38.59375 
Q 25.875 34.375 25.875 26.90625 
L 25.875 0 
L 8.40625 0 
L 8.40625 75.984375 
L 25.875 75.984375 
L 25.875 46.6875 
Q 29.828125 51.46875 34.265625 53.734375 
Q 38.71875 56 44.09375 56 
Q 53.5625 56 58.46875 50.1875 
Q 63.375 44.390625 63.375 33.296875 
z
" id="DejaVuSans-Bold-104"/>
     </defs>
     <g style="fill:#d64949;" transform="translate(500.275 163.06)rotate(-90)scale(0.1 -0.1)">
      <use transform="translate(0 0.015625)" xlink:href="#DejaVuSans-Bold-83"/>
      <use transform="translate(72.021484 0.015625)" xlink:href="#DejaVuSans-Bold-112"/>
      <use transform="translate(143.603516 0.015625)" xlink:href="#DejaVuSans-Bold-97"/>
      <use transform="translate(211.083984 0.015625)" xlink:href="#DejaVuSans-Bold-114"/>
      <use transform="translate(260.400391 0.015625)" xlink:href="#DejaVuSans-Bold-115"/>
      <use transform="translate(319.921875 0.015625)" xlink:href="#DejaVuSans-Bold-105"/>
      <use transform="translate(354.199219 0.015625)" xlink:href="#DejaVuSans-Bold-116"/>
      <use transform="translate(402.001953 0.015625)" xlink:href="#DejaVuSans-Bold-121"/>
      <use transform="translate(501.920226 0.015625)" xlink:href="#DejaVuSans-Bold-111"/>
      <use transform="translate(570.621397 0.015625)" xlink:href="#DejaVuSans-Bold-102"/>
      <use transform="translate(648.859982 0.015625)" xlink:href="#DejaVuSans-Bold-87"/>
      <use transform="translate(759.162717 0.015625)" xlink:href="#DejaVuSans-Bold-101"/>
      <use transform="translate(826.984982 0.015625)" xlink:href="#DejaVuSans-Bold-105"/>
      <use transform="translate(861.262326 0.015625)" xlink:href="#DejaVuSans-Bold-103"/>
      <use transform="translate(932.844357 0.015625)" xlink:href="#DejaVuSans-Bold-104"/>
      <use transform="translate(1004.035764 0.015625)" xlink:href="#DejaVuSans-Bold-116"/>
      <use transform="translate(1051.838498 0.015625)" xlink:href="#DejaVuSans-Bold-115"/>
     </g>
    </g>
   </g>
   <g id="patch_43">
    <path d="M 453.6 189 
L 453.6 25.92 
" style="fill:none;stroke:#d64949;stroke-linecap:square;stroke-linejoin:miter;"/>
   </g>
   <g id="patch_44">
    <path d="M 63 189 
L 453.6 189 
" style="fill:none;stroke:#000000;stroke-linecap:square;stroke-linejoin:miter;"/>
   </g>
   <g id="legend_1">
    <g id="patch_45">
     <path d="M 102.154 13.584937 
L 122.154 13.584937 
L 122.154 6.584937 
L 102.154 6.584937 
z
" style="fill:url(#hb339e9db9d);stroke:#004d90;stroke-linejoin:miter;stroke-width:2;"/>
    </g>
    <g id="text_44">
     <!-- Sparsity of Activations (Original) -->
     <defs>
      <path d="M 6.59375 -19.875 
L 6.59375 51.859375 
L 14.59375 51.859375 
L 14.59375 45.125 
Q 17.4375 49.078125 21 51.046875 
Q 24.5625 53.03125 29.640625 53.03125 
Q 36.28125 53.03125 41.359375 49.609375 
Q 46.4375 46.1875 49.015625 39.953125 
Q 51.609375 33.734375 51.609375 26.3125 
Q 51.609375 18.359375 48.75 11.984375 
Q 45.90625 5.609375 40.453125 2.21875 
Q 35.015625 -1.171875 29 -1.171875 
Q 24.609375 -1.171875 21.109375 0.6875 
Q 17.625 2.546875 15.375 5.375 
L 15.375 -19.875 
z
M 14.546875 25.640625 
Q 14.546875 15.625 18.59375 10.84375 
Q 22.65625 6.0625 28.421875 6.0625 
Q 34.28125 6.0625 38.453125 11.015625 
Q 42.625 15.96875 42.625 26.375 
Q 42.625 36.28125 38.546875 41.203125 
Q 34.46875 46.140625 28.8125 46.140625 
Q 23.1875 46.140625 18.859375 40.890625 
Q 14.546875 35.640625 14.546875 25.640625 
z
" id="ArialMT-112"/>
      <path d="M 6.5 0 
L 6.5 51.859375 
L 14.40625 51.859375 
L 14.40625 44 
Q 17.4375 49.515625 20 51.265625 
Q 22.5625 53.03125 25.640625 53.03125 
Q 30.078125 53.03125 34.671875 50.203125 
L 31.640625 42.046875 
Q 28.421875 43.953125 25.203125 43.953125 
Q 22.3125 43.953125 20.015625 42.21875 
Q 17.71875 40.484375 16.75 37.40625 
Q 15.28125 32.71875 15.28125 27.15625 
L 15.28125 0 
z
" id="ArialMT-114"/>
      <path d="M 3.078125 15.484375 
L 11.765625 16.84375 
Q 12.5 11.625 15.84375 8.84375 
Q 19.1875 6.0625 25.203125 6.0625 
Q 31.25 6.0625 34.171875 8.515625 
Q 37.109375 10.984375 37.109375 14.3125 
Q 37.109375 17.28125 34.515625 19 
Q 32.71875 20.171875 25.53125 21.96875 
Q 15.875 24.421875 12.140625 26.203125 
Q 8.40625 27.984375 6.46875 31.125 
Q 4.546875 34.28125 4.546875 38.09375 
Q 4.546875 41.546875 6.125 44.5 
Q 7.71875 47.46875 10.453125 49.421875 
Q 12.5 50.921875 16.03125 51.96875 
Q 19.578125 53.03125 23.640625 53.03125 
Q 29.734375 53.03125 34.34375 51.265625 
Q 38.96875 49.515625 41.15625 46.5 
Q 43.359375 43.5 44.1875 38.484375 
L 35.59375 37.3125 
Q 35.015625 41.3125 32.203125 43.546875 
Q 29.390625 45.796875 24.265625 45.796875 
Q 18.21875 45.796875 15.625 43.796875 
Q 13.03125 41.796875 13.03125 39.109375 
Q 13.03125 37.40625 14.109375 36.03125 
Q 15.1875 34.625 17.484375 33.6875 
Q 18.796875 33.203125 25.25 31.453125 
Q 34.578125 28.953125 38.25 27.359375 
Q 41.9375 25.78125 44.03125 22.75 
Q 46.140625 19.734375 46.140625 15.234375 
Q 46.140625 10.84375 43.578125 6.953125 
Q 41.015625 3.078125 36.171875 0.953125 
Q 31.34375 -1.171875 25.25 -1.171875 
Q 15.140625 -1.171875 9.84375 3.03125 
Q 4.546875 7.234375 3.078125 15.484375 
z
" id="ArialMT-115"/>
      <path d="M 6.640625 61.46875 
L 6.640625 71.578125 
L 15.4375 71.578125 
L 15.4375 61.46875 
z
M 6.640625 0 
L 6.640625 51.859375 
L 15.4375 51.859375 
L 15.4375 0 
z
" id="ArialMT-105"/>
      <path d="M 6.203125 -19.96875 
L 5.21875 -11.71875 
Q 8.109375 -12.5 10.25 -12.5 
Q 13.1875 -12.5 14.9375 -11.515625 
Q 16.703125 -10.546875 17.828125 -8.796875 
Q 18.65625 -7.46875 20.515625 -2.25 
Q 20.75 -1.515625 21.296875 -0.09375 
L 1.609375 51.859375 
L 11.078125 51.859375 
L 21.875 21.828125 
Q 23.96875 16.109375 25.640625 9.8125 
Q 27.15625 15.875 29.25 21.625 
L 40.328125 51.859375 
L 49.125 51.859375 
L 29.390625 -0.875 
Q 26.21875 -9.421875 24.46875 -12.640625 
Q 22.125 -17 19.09375 -19.015625 
Q 16.0625 -21.046875 11.859375 -21.046875 
Q 9.328125 -21.046875 6.203125 -19.96875 
z
" id="ArialMT-121"/>
      <path id="ArialMT-32"/>
      <path d="M 8.6875 0 
L 8.6875 45.015625 
L 0.921875 45.015625 
L 0.921875 51.859375 
L 8.6875 51.859375 
L 8.6875 57.375 
Q 8.6875 62.59375 9.625 65.140625 
Q 10.890625 68.5625 14.078125 70.671875 
Q 17.28125 72.796875 23.046875 72.796875 
Q 26.765625 72.796875 31.25 71.921875 
L 29.9375 64.265625 
Q 27.203125 64.75 24.75 64.75 
Q 20.75 64.75 19.09375 63.03125 
Q 17.4375 61.328125 17.4375 56.640625 
L 17.4375 51.859375 
L 27.546875 51.859375 
L 27.546875 45.015625 
L 17.4375 45.015625 
L 17.4375 0 
z
" id="ArialMT-102"/>
      <path d="M -0.140625 0 
L 27.34375 71.578125 
L 37.546875 71.578125 
L 66.84375 0 
L 56.0625 0 
L 47.703125 21.6875 
L 17.78125 21.6875 
L 9.90625 0 
z
M 20.515625 29.390625 
L 44.78125 29.390625 
L 37.3125 49.21875 
Q 33.890625 58.25 32.234375 64.0625 
Q 30.859375 57.171875 28.375 50.390625 
z
" id="ArialMT-65"/>
      <path d="M 40.4375 19 
L 49.078125 17.875 
Q 47.65625 8.9375 41.8125 3.875 
Q 35.984375 -1.171875 27.484375 -1.171875 
Q 16.84375 -1.171875 10.375 5.78125 
Q 3.90625 12.75 3.90625 25.734375 
Q 3.90625 34.125 6.6875 40.421875 
Q 9.46875 46.734375 15.15625 49.875 
Q 20.84375 53.03125 27.546875 53.03125 
Q 35.984375 53.03125 41.359375 48.75 
Q 46.734375 44.484375 48.25 36.625 
L 39.703125 35.296875 
Q 38.484375 40.53125 35.375 43.15625 
Q 32.28125 45.796875 27.875 45.796875 
Q 21.234375 45.796875 17.078125 41.03125 
Q 12.9375 36.28125 12.9375 25.984375 
Q 12.9375 15.53125 16.9375 10.796875 
Q 20.953125 6.0625 27.390625 6.0625 
Q 32.5625 6.0625 36.03125 9.234375 
Q 39.5 12.40625 40.4375 19 
z
" id="ArialMT-99"/>
      <path d="M 21 0 
L 1.265625 51.859375 
L 10.546875 51.859375 
L 21.6875 20.796875 
Q 23.484375 15.765625 25 10.359375 
Q 26.171875 14.453125 28.265625 20.21875 
L 39.796875 51.859375 
L 48.828125 51.859375 
L 29.203125 0 
z
" id="ArialMT-118"/>
      <path d="M 6.59375 0 
L 6.59375 51.859375 
L 14.5 51.859375 
L 14.5 44.484375 
Q 20.21875 53.03125 31 53.03125 
Q 35.6875 53.03125 39.625 51.34375 
Q 43.5625 49.65625 45.515625 46.921875 
Q 47.46875 44.1875 48.25 40.4375 
Q 48.734375 37.984375 48.734375 31.890625 
L 48.734375 0 
L 39.9375 0 
L 39.9375 31.546875 
Q 39.9375 36.921875 38.90625 39.578125 
Q 37.890625 42.234375 35.28125 43.8125 
Q 32.671875 45.40625 29.15625 45.40625 
Q 23.53125 45.40625 19.453125 41.84375 
Q 15.375 38.28125 15.375 28.328125 
L 15.375 0 
z
" id="ArialMT-110"/>
      <path d="M 23.390625 -21.046875 
Q 16.109375 -11.859375 11.078125 0.4375 
Q 6.0625 12.75 6.0625 25.921875 
Q 6.0625 37.546875 9.8125 48.1875 
Q 14.203125 60.546875 23.390625 72.796875 
L 29.6875 72.796875 
Q 23.78125 62.640625 21.875 58.296875 
Q 18.890625 51.5625 17.1875 44.234375 
Q 15.09375 35.109375 15.09375 25.875 
Q 15.09375 2.390625 29.6875 -21.046875 
z
" id="ArialMT-40"/>
      <path d="M 4.828125 34.859375 
Q 4.828125 52.6875 14.390625 62.765625 
Q 23.96875 72.859375 39.109375 72.859375 
Q 49.03125 72.859375 56.984375 68.109375 
Q 64.9375 63.375 69.109375 54.90625 
Q 73.296875 46.4375 73.296875 35.6875 
Q 73.296875 24.8125 68.890625 16.21875 
Q 64.5 7.625 56.4375 3.203125 
Q 48.390625 -1.21875 39.0625 -1.21875 
Q 28.953125 -1.21875 20.984375 3.65625 
Q 13.03125 8.546875 8.921875 16.984375 
Q 4.828125 25.4375 4.828125 34.859375 
z
M 14.59375 34.71875 
Q 14.59375 21.78125 21.546875 14.328125 
Q 28.515625 6.890625 39.015625 6.890625 
Q 49.703125 6.890625 56.609375 14.40625 
Q 63.53125 21.921875 63.53125 35.75 
Q 63.53125 44.484375 60.578125 51 
Q 57.625 57.515625 51.921875 61.109375 
Q 46.234375 64.703125 39.15625 64.703125 
Q 29.109375 64.703125 21.84375 57.78125 
Q 14.59375 50.875 14.59375 34.71875 
z
" id="ArialMT-79"/>
      <path d="M 4.984375 -4.296875 
L 13.53125 -5.5625 
Q 14.0625 -9.515625 16.5 -11.328125 
Q 19.78125 -13.765625 25.4375 -13.765625 
Q 31.546875 -13.765625 34.859375 -11.328125 
Q 38.1875 -8.890625 39.359375 -4.5 
Q 40.046875 -1.8125 39.984375 6.78125 
Q 34.234375 0 25.640625 0 
Q 14.9375 0 9.078125 7.71875 
Q 3.21875 15.4375 3.21875 26.21875 
Q 3.21875 33.640625 5.90625 39.90625 
Q 8.59375 46.1875 13.6875 49.609375 
Q 18.796875 53.03125 25.6875 53.03125 
Q 34.859375 53.03125 40.828125 45.609375 
L 40.828125 51.859375 
L 48.921875 51.859375 
L 48.921875 7.03125 
Q 48.921875 -5.078125 46.453125 -10.125 
Q 44 -15.1875 38.640625 -18.109375 
Q 33.296875 -21.046875 25.484375 -21.046875 
Q 16.21875 -21.046875 10.5 -16.875 
Q 4.78125 -12.703125 4.984375 -4.296875 
z
M 12.25 26.859375 
Q 12.25 16.65625 16.296875 11.96875 
Q 20.359375 7.28125 26.46875 7.28125 
Q 32.515625 7.28125 36.609375 11.9375 
Q 40.71875 16.609375 40.71875 26.5625 
Q 40.71875 36.078125 36.5 40.90625 
Q 32.28125 45.75 26.3125 45.75 
Q 20.453125 45.75 16.34375 40.984375 
Q 12.25 36.234375 12.25 26.859375 
z
" id="ArialMT-103"/>
      <path d="M 12.359375 -21.046875 
L 6.0625 -21.046875 
Q 20.65625 2.390625 20.65625 25.875 
Q 20.65625 35.0625 18.5625 44.09375 
Q 16.890625 51.421875 13.921875 58.15625 
Q 12.015625 62.546875 6.0625 72.796875 
L 12.359375 72.796875 
Q 21.53125 60.546875 25.921875 48.1875 
Q 29.6875 37.546875 29.6875 25.921875 
Q 29.6875 12.75 24.625 0.4375 
Q 19.578125 -11.859375 12.359375 -21.046875 
z
" id="ArialMT-41"/>
     </defs>
     <g transform="translate(124.154 13.584937)scale(0.1 -0.1)">
      <use xlink:href="#ArialMT-83"/>
      <use x="66.699219" xlink:href="#ArialMT-112"/>
      <use x="122.314453" xlink:href="#ArialMT-97"/>
      <use x="177.929688" xlink:href="#ArialMT-114"/>
      <use x="211.230469" xlink:href="#ArialMT-115"/>
      <use x="261.230469" xlink:href="#ArialMT-105"/>
      <use x="283.447266" xlink:href="#ArialMT-116"/>
      <use x="311.230469" xlink:href="#ArialMT-121"/>
      <use x="361.230469" xlink:href="#ArialMT-32"/>
      <use x="389.013672" xlink:href="#ArialMT-111"/>
      <use x="444.628906" xlink:href="#ArialMT-102"/>
      <use x="472.412109" xlink:href="#ArialMT-32"/>
      <use x="500.117188" xlink:href="#ArialMT-65"/>
      <use x="566.816406" xlink:href="#ArialMT-99"/>
      <use x="616.816406" xlink:href="#ArialMT-116"/>
      <use x="644.599609" xlink:href="#ArialMT-105"/>
      <use x="666.816406" xlink:href="#ArialMT-118"/>
      <use x="716.816406" xlink:href="#ArialMT-97"/>
      <use x="772.431641" xlink:href="#ArialMT-116"/>
      <use x="800.214844" xlink:href="#ArialMT-105"/>
      <use x="822.431641" xlink:href="#ArialMT-111"/>
      <use x="878.046875" xlink:href="#ArialMT-110"/>
      <use x="933.662109" xlink:href="#ArialMT-115"/>
      <use x="983.662109" xlink:href="#ArialMT-32"/>
      <use x="1011.445312" xlink:href="#ArialMT-40"/>
      <use x="1044.746094" xlink:href="#ArialMT-79"/>
      <use x="1122.529297" xlink:href="#ArialMT-114"/>
      <use x="1155.830078" xlink:href="#ArialMT-105"/>
      <use x="1178.046875" xlink:href="#ArialMT-103"/>
      <use x="1233.662109" xlink:href="#ArialMT-105"/>
      <use x="1255.878906" xlink:href="#ArialMT-110"/>
      <use x="1311.494141" xlink:href="#ArialMT-97"/>
      <use x="1367.109375" xlink:href="#ArialMT-108"/>
      <use x="1389.326172" xlink:href="#ArialMT-41"/>
     </g>
    </g>
    <g id="patch_46">
     <path d="M 102.154 27.969313 
L 122.154 27.969313 
L 122.154 20.969313 
L 102.154 20.969313 
z
" style="fill:#ffffff;stroke:#004d90;stroke-linejoin:miter;stroke-width:2;"/>
    </g>
    <g id="text_45">
     <!-- Sparsity of Activations (Pruned) -->
     <defs>
      <path d="M 7.71875 0 
L 7.71875 71.578125 
L 34.71875 71.578125 
Q 41.84375 71.578125 45.609375 70.90625 
Q 50.875 70.015625 54.4375 67.546875 
Q 58.015625 65.09375 60.1875 60.640625 
Q 62.359375 56.203125 62.359375 50.875 
Q 62.359375 41.75 56.546875 35.421875 
Q 50.734375 29.109375 35.546875 29.109375 
L 17.1875 29.109375 
L 17.1875 0 
z
M 17.1875 37.546875 
L 35.6875 37.546875 
Q 44.875 37.546875 48.734375 40.96875 
Q 52.59375 44.390625 52.59375 50.59375 
Q 52.59375 55.078125 50.3125 58.265625 
Q 48.046875 61.46875 44.34375 62.5 
Q 41.9375 63.140625 35.5 63.140625 
L 17.1875 63.140625 
z
" id="ArialMT-80"/>
      <path d="M 40.578125 0 
L 40.578125 7.625 
Q 34.515625 -1.171875 24.125 -1.171875 
Q 19.53125 -1.171875 15.546875 0.578125 
Q 11.578125 2.34375 9.640625 5 
Q 7.71875 7.671875 6.9375 11.53125 
Q 6.390625 14.109375 6.390625 19.734375 
L 6.390625 51.859375 
L 15.1875 51.859375 
L 15.1875 23.09375 
Q 15.1875 16.21875 15.71875 13.8125 
Q 16.546875 10.359375 19.234375 8.375 
Q 21.921875 6.390625 25.875 6.390625 
Q 29.828125 6.390625 33.296875 8.421875 
Q 36.765625 10.453125 38.203125 13.9375 
Q 39.65625 17.4375 39.65625 24.078125 
L 39.65625 51.859375 
L 48.4375 51.859375 
L 48.4375 0 
z
" id="ArialMT-117"/>
      <path d="M 42.09375 16.703125 
L 51.171875 15.578125 
Q 49.03125 7.625 43.21875 3.21875 
Q 37.40625 -1.171875 28.375 -1.171875 
Q 17 -1.171875 10.328125 5.828125 
Q 3.65625 12.84375 3.65625 25.484375 
Q 3.65625 38.578125 10.390625 45.796875 
Q 17.140625 53.03125 27.875 53.03125 
Q 38.28125 53.03125 44.875 45.953125 
Q 51.46875 38.875 51.46875 26.03125 
Q 51.46875 25.25 51.421875 23.6875 
L 12.75 23.6875 
Q 13.234375 15.140625 17.578125 10.59375 
Q 21.921875 6.0625 28.421875 6.0625 
Q 33.25 6.0625 36.671875 8.59375 
Q 40.09375 11.140625 42.09375 16.703125 
z
M 13.234375 30.90625 
L 42.1875 30.90625 
Q 41.609375 37.453125 38.875 40.71875 
Q 34.671875 45.796875 27.984375 45.796875 
Q 21.921875 45.796875 17.796875 41.75 
Q 13.671875 37.703125 13.234375 30.90625 
z
" id="ArialMT-101"/>
      <path d="M 40.234375 0 
L 40.234375 6.546875 
Q 35.296875 -1.171875 25.734375 -1.171875 
Q 19.53125 -1.171875 14.328125 2.25 
Q 9.125 5.671875 6.265625 11.796875 
Q 3.421875 17.921875 3.421875 25.875 
Q 3.421875 33.640625 6 39.96875 
Q 8.59375 46.296875 13.765625 49.65625 
Q 18.953125 53.03125 25.34375 53.03125 
Q 30.03125 53.03125 33.6875 51.046875 
Q 37.359375 49.078125 39.65625 45.90625 
L 39.65625 71.578125 
L 48.390625 71.578125 
L 48.390625 0 
z
M 12.453125 25.875 
Q 12.453125 15.921875 16.640625 10.984375 
Q 20.84375 6.0625 26.5625 6.0625 
Q 32.328125 6.0625 36.34375 10.765625 
Q 40.375 15.484375 40.375 25.140625 
Q 40.375 35.796875 36.265625 40.765625 
Q 32.171875 45.75 26.171875 45.75 
Q 20.3125 45.75 16.375 40.96875 
Q 12.453125 36.1875 12.453125 25.875 
z
" id="ArialMT-100"/>
     </defs>
     <g transform="translate(124.154 27.969313)scale(0.1 -0.1)">
      <use xlink:href="#ArialMT-83"/>
      <use x="66.699219" xlink:href="#ArialMT-112"/>
      <use x="122.314453" xlink:href="#ArialMT-97"/>
      <use x="177.929688" xlink:href="#ArialMT-114"/>
      <use x="211.230469" xlink:href="#ArialMT-115"/>
      <use x="261.230469" xlink:href="#ArialMT-105"/>
      <use x="283.447266" xlink:href="#ArialMT-116"/>
      <use x="311.230469" xlink:href="#ArialMT-121"/>
      <use x="361.230469" xlink:href="#ArialMT-32"/>
      <use x="389.013672" xlink:href="#ArialMT-111"/>
      <use x="444.628906" xlink:href="#ArialMT-102"/>
      <use x="472.412109" xlink:href="#ArialMT-32"/>
      <use x="500.117188" xlink:href="#ArialMT-65"/>
      <use x="566.816406" xlink:href="#ArialMT-99"/>
      <use x="616.816406" xlink:href="#ArialMT-116"/>
      <use x="644.599609" xlink:href="#ArialMT-105"/>
      <use x="666.816406" xlink:href="#ArialMT-118"/>
      <use x="716.816406" xlink:href="#ArialMT-97"/>
      <use x="772.431641" xlink:href="#ArialMT-116"/>
      <use x="800.214844" xlink:href="#ArialMT-105"/>
      <use x="822.431641" xlink:href="#ArialMT-111"/>
      <use x="878.046875" xlink:href="#ArialMT-110"/>
      <use x="933.662109" xlink:href="#ArialMT-115"/>
      <use x="983.662109" xlink:href="#ArialMT-32"/>
      <use x="1011.445312" xlink:href="#ArialMT-40"/>
      <use x="1044.746094" xlink:href="#ArialMT-80"/>
      <use x="1111.445312" xlink:href="#ArialMT-114"/>
      <use x="1144.746094" xlink:href="#ArialMT-117"/>
      <use x="1200.361328" xlink:href="#ArialMT-110"/>
      <use x="1255.976562" xlink:href="#ArialMT-101"/>
      <use x="1311.591797" xlink:href="#ArialMT-100"/>
      <use x="1367.207031" xlink:href="#ArialMT-41"/>
     </g>
    </g>
    <g id="line2d_42">
     <path d="M 270.41025 10.084937 
L 290.41025 10.084937 
" style="fill:none;stroke:#c08180;stroke-linecap:square;stroke-width:2;"/>
    </g>
    <g id="line2d_43">
     <defs>
      <path d="M -5 5 
L 5 5 
L 5 -5 
L -5 -5 
z
" id="md417cbfbf7" style="stroke:#ffffff;stroke-linejoin:miter;"/>
     </defs>
     <g>
      <use style="fill:#c08180;stroke:#ffffff;stroke-linejoin:miter;" x="280.41025" xlink:href="#md417cbfbf7" y="10.084937"/>
     </g>
    </g>
    <g id="text_46">
     <!-- Sparsity of Weights (Original) -->
     <defs>
      <path d="M 20.21875 0 
L 1.21875 71.578125 
L 10.9375 71.578125 
L 21.828125 24.65625 
Q 23.578125 17.28125 24.859375 10.015625 
Q 27.59375 21.484375 28.078125 23.25 
L 41.703125 71.578125 
L 53.125 71.578125 
L 63.375 35.359375 
Q 67.234375 21.875 68.953125 10.015625 
Q 70.3125 16.796875 72.515625 25.59375 
L 83.734375 71.578125 
L 93.265625 71.578125 
L 73.640625 0 
L 64.5 0 
L 49.421875 54.546875 
Q 47.515625 61.375 47.171875 62.9375 
Q 46.046875 58.015625 45.0625 54.546875 
L 29.890625 0 
z
" id="ArialMT-87"/>
      <path d="M 6.59375 0 
L 6.59375 71.578125 
L 15.375 71.578125 
L 15.375 45.90625 
Q 21.53125 53.03125 30.90625 53.03125 
Q 36.671875 53.03125 40.921875 50.75 
Q 45.171875 48.484375 47 44.484375 
Q 48.828125 40.484375 48.828125 32.859375 
L 48.828125 0 
L 40.046875 0 
L 40.046875 32.859375 
Q 40.046875 39.453125 37.1875 42.453125 
Q 34.328125 45.453125 29.109375 45.453125 
Q 25.203125 45.453125 21.75 43.421875 
Q 18.3125 41.40625 16.84375 37.9375 
Q 15.375 34.46875 15.375 28.375 
L 15.375 0 
z
" id="ArialMT-104"/>
     </defs>
     <g transform="translate(292.41025 13.584937)scale(0.1 -0.1)">
      <use xlink:href="#ArialMT-83"/>
      <use x="66.699219" xlink:href="#ArialMT-112"/>
      <use x="122.314453" xlink:href="#ArialMT-97"/>
      <use x="177.929688" xlink:href="#ArialMT-114"/>
      <use x="211.230469" xlink:href="#ArialMT-115"/>
      <use x="261.230469" xlink:href="#ArialMT-105"/>
      <use x="283.447266" xlink:href="#ArialMT-116"/>
      <use x="311.230469" xlink:href="#ArialMT-121"/>
      <use x="361.230469" xlink:href="#ArialMT-32"/>
      <use x="389.013672" xlink:href="#ArialMT-111"/>
      <use x="444.628906" xlink:href="#ArialMT-102"/>
      <use x="472.412109" xlink:href="#ArialMT-32"/>
      <use x="500.195312" xlink:href="#ArialMT-87"/>
      <use x="594.564453" xlink:href="#ArialMT-101"/>
      <use x="650.179688" xlink:href="#ArialMT-105"/>
      <use x="672.396484" xlink:href="#ArialMT-103"/>
      <use x="728.011719" xlink:href="#ArialMT-104"/>
      <use x="783.626953" xlink:href="#ArialMT-116"/>
      <use x="811.410156" xlink:href="#ArialMT-115"/>
      <use x="861.410156" xlink:href="#ArialMT-32"/>
      <use x="889.193359" xlink:href="#ArialMT-40"/>
      <use x="922.494141" xlink:href="#ArialMT-79"/>
      <use x="1000.277344" xlink:href="#ArialMT-114"/>
      <use x="1033.578125" xlink:href="#ArialMT-105"/>
      <use x="1055.794922" xlink:href="#ArialMT-103"/>
      <use x="1111.410156" xlink:href="#ArialMT-105"/>
      <use x="1133.626953" xlink:href="#ArialMT-110"/>
      <use x="1189.242188" xlink:href="#ArialMT-97"/>
      <use x="1244.857422" xlink:href="#ArialMT-108"/>
      <use x="1267.074219" xlink:href="#ArialMT-41"/>
     </g>
    </g>
    <g id="line2d_44">
     <path d="M 270.41025 24.469313 
L 290.41025 24.469313 
" style="fill:none;stroke:#e28180;stroke-linecap:square;stroke-width:2;"/>
    </g>
    <g id="line2d_45">
     <defs>
      <path d="M 0 -10 
L -2.24514 -3.09017 
L -9.510565 -3.09017 
L -3.632713 1.18034 
L -5.877853 8.09017 
L -0 3.81966 
L 5.877853 8.09017 
L 3.632713 1.18034 
L 9.510565 -3.09017 
L 2.24514 -3.09017 
z
" id="m98abf14c46" style="stroke:#ffffff;stroke-linejoin:bevel;"/>
     </defs>
     <g>
      <use style="fill:#e28180;stroke:#ffffff;stroke-linejoin:bevel;" x="280.41025" xlink:href="#m98abf14c46" y="24.469313"/>
     </g>
    </g>
    <g id="text_47">
     <!-- Sparsity of Weights (Pruned) -->
     <g transform="translate(292.41025 27.969313)scale(0.1 -0.1)">
      <use xlink:href="#ArialMT-83"/>
      <use x="66.699219" xlink:href="#ArialMT-112"/>
      <use x="122.314453" xlink:href="#ArialMT-97"/>
      <use x="177.929688" xlink:href="#ArialMT-114"/>
      <use x="211.230469" xlink:href="#ArialMT-115"/>
      <use x="261.230469" xlink:href="#ArialMT-105"/>
      <use x="283.447266" xlink:href="#ArialMT-116"/>
      <use x="311.230469" xlink:href="#ArialMT-121"/>
      <use x="361.230469" xlink:href="#ArialMT-32"/>
      <use x="389.013672" xlink:href="#ArialMT-111"/>
      <use x="444.628906" xlink:href="#ArialMT-102"/>
      <use x="472.412109" xlink:href="#ArialMT-32"/>
      <use x="500.195312" xlink:href="#ArialMT-87"/>
      <use x="594.564453" xlink:href="#ArialMT-101"/>
      <use x="650.179688" xlink:href="#ArialMT-105"/>
      <use x="672.396484" xlink:href="#ArialMT-103"/>
      <use x="728.011719" xlink:href="#ArialMT-104"/>
      <use x="783.626953" xlink:href="#ArialMT-116"/>
      <use x="811.410156" xlink:href="#ArialMT-115"/>
      <use x="861.410156" xlink:href="#ArialMT-32"/>
      <use x="889.193359" xlink:href="#ArialMT-40"/>
      <use x="922.494141" xlink:href="#ArialMT-80"/>
      <use x="989.193359" xlink:href="#ArialMT-114"/>
      <use x="1022.494141" xlink:href="#ArialMT-117"/>
      <use x="1078.109375" xlink:href="#ArialMT-110"/>
      <use x="1133.724609" xlink:href="#ArialMT-101"/>
      <use x="1189.339844" xlink:href="#ArialMT-100"/>
      <use x="1244.955078" xlink:href="#ArialMT-41"/>
     </g>
    </g>
   </g>
   <g id="line2d_46">
    <path clip-path="url(#p27d76916e8)" d="M 82.53 187.303968 
L 102.06 187.564896 
L 121.59 187.108272 
L 141.12 188.363988 
L 160.65 186.79842 
L 180.18 187.711668 
L 199.71 188.168292 
L 219.24 186.439644 
L 238.77 187.53228 
L 258.3 187.727976 
L 277.83 186.358104 
L 297.36 186.831036 
L 316.89 187.581204 
L 336.42 186.733188 
L 355.95 187.418124 
L 375.48 187.499664 
L 395.01 187.255044 
L 414.54 188.690148 
L 434.07 187.04304 
" style="fill:none;stroke:#c08180;stroke-linecap:square;stroke-width:2;"/>
    <g clip-path="url(#p27d76916e8)">
     <use style="fill:#c08180;stroke:#ffffff;stroke-linejoin:miter;" x="82.53" xlink:href="#md417cbfbf7" y="187.303968"/>
     <use style="fill:#c08180;stroke:#ffffff;stroke-linejoin:miter;" x="102.06" xlink:href="#md417cbfbf7" y="187.564896"/>
     <use style="fill:#c08180;stroke:#ffffff;stroke-linejoin:miter;" x="121.59" xlink:href="#md417cbfbf7" y="187.108272"/>
     <use style="fill:#c08180;stroke:#ffffff;stroke-linejoin:miter;" x="141.12" xlink:href="#md417cbfbf7" y="188.363988"/>
     <use style="fill:#c08180;stroke:#ffffff;stroke-linejoin:miter;" x="160.65" xlink:href="#md417cbfbf7" y="186.79842"/>
     <use style="fill:#c08180;stroke:#ffffff;stroke-linejoin:miter;" x="180.18" xlink:href="#md417cbfbf7" y="187.711668"/>
     <use style="fill:#c08180;stroke:#ffffff;stroke-linejoin:miter;" x="199.71" xlink:href="#md417cbfbf7" y="188.168292"/>
     <use style="fill:#c08180;stroke:#ffffff;stroke-linejoin:miter;" x="219.24" xlink:href="#md417cbfbf7" y="186.439644"/>
     <use style="fill:#c08180;stroke:#ffffff;stroke-linejoin:miter;" x="238.77" xlink:href="#md417cbfbf7" y="187.53228"/>
     <use style="fill:#c08180;stroke:#ffffff;stroke-linejoin:miter;" x="258.3" xlink:href="#md417cbfbf7" y="187.727976"/>
     <use style="fill:#c08180;stroke:#ffffff;stroke-linejoin:miter;" x="277.83" xlink:href="#md417cbfbf7" y="186.358104"/>
     <use style="fill:#c08180;stroke:#ffffff;stroke-linejoin:miter;" x="297.36" xlink:href="#md417cbfbf7" y="186.831036"/>
     <use style="fill:#c08180;stroke:#ffffff;stroke-linejoin:miter;" x="316.89" xlink:href="#md417cbfbf7" y="187.581204"/>
     <use style="fill:#c08180;stroke:#ffffff;stroke-linejoin:miter;" x="336.42" xlink:href="#md417cbfbf7" y="186.733188"/>
     <use style="fill:#c08180;stroke:#ffffff;stroke-linejoin:miter;" x="355.95" xlink:href="#md417cbfbf7" y="187.418124"/>
     <use style="fill:#c08180;stroke:#ffffff;stroke-linejoin:miter;" x="375.48" xlink:href="#md417cbfbf7" y="187.499664"/>
     <use style="fill:#c08180;stroke:#ffffff;stroke-linejoin:miter;" x="395.01" xlink:href="#md417cbfbf7" y="187.255044"/>
     <use style="fill:#c08180;stroke:#ffffff;stroke-linejoin:miter;" x="414.54" xlink:href="#md417cbfbf7" y="188.690148"/>
     <use style="fill:#c08180;stroke:#ffffff;stroke-linejoin:miter;" x="434.07" xlink:href="#md417cbfbf7" y="187.04304"/>
    </g>
   </g>
   <g id="line2d_47">
    <path clip-path="url(#p27d76916e8)" d="M 82.53 189 
L 102.06 65.972448 
L 121.59 106.72614 
L 141.12 65.809368 
L 160.65 79.345008 
L 180.18 105.209496 
L 199.71 84.71034 
L 219.24 52.534656 
L 238.77 84.95496 
L 258.3 55.535328 
L 277.83 39.178404 
L 297.36 89.080884 
L 316.89 40.10796 
L 336.42 58.258764 
L 355.95 51.230016 
L 375.48 61.87914 
L 395.01 101.26296 
L 414.54 184.776228 
L 434.07 54.29592 
" style="fill:none;stroke:#e28180;stroke-linecap:square;stroke-width:2;"/>
    <g clip-path="url(#p27d76916e8)">
     <use style="fill:#e28180;stroke:#ffffff;stroke-linejoin:bevel;" x="82.53" xlink:href="#m98abf14c46" y="189"/>
     <use style="fill:#e28180;stroke:#ffffff;stroke-linejoin:bevel;" x="102.06" xlink:href="#m98abf14c46" y="65.972448"/>
     <use style="fill:#e28180;stroke:#ffffff;stroke-linejoin:bevel;" x="121.59" xlink:href="#m98abf14c46" y="106.72614"/>
     <use style="fill:#e28180;stroke:#ffffff;stroke-linejoin:bevel;" x="141.12" xlink:href="#m98abf14c46" y="65.809368"/>
     <use style="fill:#e28180;stroke:#ffffff;stroke-linejoin:bevel;" x="160.65" xlink:href="#m98abf14c46" y="79.345008"/>
     <use style="fill:#e28180;stroke:#ffffff;stroke-linejoin:bevel;" x="180.18" xlink:href="#m98abf14c46" y="105.209496"/>
     <use style="fill:#e28180;stroke:#ffffff;stroke-linejoin:bevel;" x="199.71" xlink:href="#m98abf14c46" y="84.71034"/>
     <use style="fill:#e28180;stroke:#ffffff;stroke-linejoin:bevel;" x="219.24" xlink:href="#m98abf14c46" y="52.534656"/>
     <use style="fill:#e28180;stroke:#ffffff;stroke-linejoin:bevel;" x="238.77" xlink:href="#m98abf14c46" y="84.95496"/>
     <use style="fill:#e28180;stroke:#ffffff;stroke-linejoin:bevel;" x="258.3" xlink:href="#m98abf14c46" y="55.535328"/>
     <use style="fill:#e28180;stroke:#ffffff;stroke-linejoin:bevel;" x="277.83" xlink:href="#m98abf14c46" y="39.178404"/>
     <use style="fill:#e28180;stroke:#ffffff;stroke-linejoin:bevel;" x="297.36" xlink:href="#m98abf14c46" y="89.080884"/>
     <use style="fill:#e28180;stroke:#ffffff;stroke-linejoin:bevel;" x="316.89" xlink:href="#m98abf14c46" y="40.10796"/>
     <use style="fill:#e28180;stroke:#ffffff;stroke-linejoin:bevel;" x="336.42" xlink:href="#m98abf14c46" y="58.258764"/>
     <use style="fill:#e28180;stroke:#ffffff;stroke-linejoin:bevel;" x="355.95" xlink:href="#m98abf14c46" y="51.230016"/>
     <use style="fill:#e28180;stroke:#ffffff;stroke-linejoin:bevel;" x="375.48" xlink:href="#m98abf14c46" y="61.87914"/>
     <use style="fill:#e28180;stroke:#ffffff;stroke-linejoin:bevel;" x="395.01" xlink:href="#m98abf14c46" y="101.26296"/>
     <use style="fill:#e28180;stroke:#ffffff;stroke-linejoin:bevel;" x="414.54" xlink:href="#m98abf14c46" y="184.776228"/>
     <use style="fill:#e28180;stroke:#ffffff;stroke-linejoin:bevel;" x="434.07" xlink:href="#m98abf14c46" y="54.29592"/>
    </g>
   </g>
  </g>
 </g>
 <defs>
  <clipPath id="p27d76916e8">
   <rect height="163.08" width="390.6" x="63" y="25.92"/>
  </clipPath>
 </defs>
 <defs>
  <pattern height="72" id="hb339e9db9d" patternUnits="userSpaceOnUse" width="72" x="0" y="0">
   <rect fill="#ffffff" height="73" width="73" x="0" y="0"/>
   <path d="M -36 36 
L 36 -36 
M -33.6 38.4 
L 38.4 -33.6 
M -31.2 40.8 
L 40.8 -31.2 
M -28.8 43.2 
L 43.2 -28.8 
M -26.4 45.6 
L 45.6 -26.4 
M -24 48 
L 48 -24 
M -21.6 50.4 
L 50.4 -21.6 
M -19.2 52.8 
L 52.8 -19.2 
M -16.8 55.2 
L 55.2 -16.8 
M -14.4 57.6 
L 57.6 -14.4 
M -12 60 
L 60 -12 
M -9.6 62.4 
L 62.4 -9.6 
M -7.2 64.8 
L 64.8 -7.2 
M -4.8 67.2 
L 67.2 -4.8 
M -2.4 69.6 
L 69.6 -2.4 
M 0 72 
L 72 0 
M 2.4 74.4 
L 74.4 2.4 
M 4.8 76.8 
L 76.8 4.8 
M 7.2 79.2 
L 79.2 7.2 
M 9.6 81.6 
L 81.6 9.6 
M 12 84 
L 84 12 
M 14.4 86.4 
L 86.4 14.4 
M 16.8 88.8 
L 88.8 16.8 
M 19.2 91.2 
L 91.2 19.2 
M 21.6 93.6 
L 93.6 21.6 
M 24 96 
L 96 24 
M 26.4 98.4 
L 98.4 26.4 
M 28.8 100.8 
L 100.8 28.8 
M 31.2 103.2 
L 103.2 31.2 
M 33.6 105.6 
L 105.6 33.6 
M 36 108 
L 108 36 
" style="fill:#004d90;stroke:#004d90;stroke-linecap:butt;stroke-linejoin:miter;stroke-width:1.0;"/>
  </pattern>
 </defs>
</svg>
