<?xml version="1.0" encoding="utf-8" standalone="no"?>
<!DOCTYPE svg PUBLIC "-//W3C//DTD SVG 1.1//EN"
  "http://www.w3.org/Graphics/SVG/1.1/DTD/svg11.dtd">
<!-- Created with matplotlib (https://matplotlib.org/) -->
<svg height="216pt" version="1.1" viewBox="0 0 504 216" width="504pt" xmlns="http://www.w3.org/2000/svg" xmlns:xlink="http://www.w3.org/1999/xlink">
 <defs>
  <style type="text/css">
*{stroke-linecap:butt;stroke-linejoin:round;}
  </style>
 </defs>
 <g id="figure_1">
  <g id="patch_1">
   <path d="M 0 216 
L 504 216 
L 504 0 
L 0 0 
z
" style="fill:#ffffff;"/>
  </g>
  <g id="axes_1">
   <g id="patch_2">
    <path d="M 63 189 
L 453.6 189 
L 453.6 25.92 
L 63 25.92 
z
" style="fill:#ffffff;"/>
   </g>
   <g id="matplotlib.axis_1">
    <g id="xtick_1">
     <g id="line2d_1">
      <defs>
       <path d="M 0 0 
L 0 6 
" id="maed3568955" style="stroke:#000000;stroke-width:1.5;"/>
      </defs>
      <g>
       <use style="stroke:#000000;stroke-width:1.5;" x="66.867327" xlink:href="#maed3568955" y="189"/>
      </g>
     </g>
     <g id="text_1">
      <!-- 0% -->
      <defs>
       <path d="M 4.15625 35.296875 
Q 4.15625 48 6.765625 55.734375 
Q 9.375 63.484375 14.515625 67.671875 
Q 19.671875 71.875 27.484375 71.875 
Q 33.25 71.875 37.59375 69.546875 
Q 41.9375 67.234375 44.765625 62.859375 
Q 47.609375 58.5 49.21875 52.21875 
Q 50.828125 45.953125 50.828125 35.296875 
Q 50.828125 22.703125 48.234375 14.96875 
Q 45.65625 7.234375 40.5 3 
Q 35.359375 -1.21875 27.484375 -1.21875 
Q 17.140625 -1.21875 11.234375 6.203125 
Q 4.15625 15.140625 4.15625 35.296875 
z
M 13.1875 35.296875 
Q 13.1875 17.671875 17.3125 11.828125 
Q 21.4375 6 27.484375 6 
Q 33.546875 6 37.671875 11.859375 
Q 41.796875 17.71875 41.796875 35.296875 
Q 41.796875 52.984375 37.671875 58.78125 
Q 33.546875 64.59375 27.390625 64.59375 
Q 21.34375 64.59375 17.71875 59.46875 
Q 13.1875 52.9375 13.1875 35.296875 
z
" id="ArialMT-48"/>
       <path d="M 5.8125 54.390625 
Q 5.8125 62.0625 9.671875 67.421875 
Q 13.53125 72.796875 20.84375 72.796875 
Q 27.59375 72.796875 32 67.984375 
Q 36.421875 63.1875 36.421875 53.859375 
Q 36.421875 44.78125 31.953125 39.875 
Q 27.484375 34.96875 20.953125 34.96875 
Q 14.453125 34.96875 10.125 39.796875 
Q 5.8125 44.625 5.8125 54.390625 
z
M 21.09375 66.75 
Q 17.828125 66.75 15.65625 63.90625 
Q 13.484375 61.078125 13.484375 53.515625 
Q 13.484375 46.625 15.671875 43.8125 
Q 17.875 41.015625 21.09375 41.015625 
Q 24.421875 41.015625 26.59375 43.84375 
Q 28.765625 46.6875 28.765625 54.203125 
Q 28.765625 61.140625 26.5625 63.9375 
Q 24.359375 66.75 21.09375 66.75 
z
M 21.140625 -2.640625 
L 60.296875 72.796875 
L 67.4375 72.796875 
L 28.421875 -2.640625 
z
M 52.09375 16.796875 
Q 52.09375 24.515625 55.953125 29.859375 
Q 59.8125 35.203125 67.1875 35.203125 
Q 73.921875 35.203125 78.34375 30.390625 
Q 82.765625 25.59375 82.765625 16.265625 
Q 82.765625 7.171875 78.296875 2.265625 
Q 73.828125 -2.640625 67.234375 -2.640625 
Q 60.75 -2.640625 56.421875 2.21875 
Q 52.09375 7.078125 52.09375 16.796875 
z
M 67.4375 29.15625 
Q 64.109375 29.15625 61.9375 26.3125 
Q 59.765625 23.484375 59.765625 15.921875 
Q 59.765625 9.078125 61.953125 6.25 
Q 64.15625 3.421875 67.390625 3.421875 
Q 70.75 3.421875 72.921875 6.25 
Q 75.09375 9.078125 75.09375 16.609375 
Q 75.09375 23.53125 72.890625 26.34375 
Q 70.703125 29.15625 67.4375 29.15625 
z
" id="ArialMT-37"/>
      </defs>
      <g transform="translate(59.640764 205.657813)scale(0.1 -0.1)">
       <use xlink:href="#ArialMT-48"/>
       <use x="55.615234" xlink:href="#ArialMT-37"/>
      </g>
     </g>
    </g>
    <g id="xtick_2">
     <g id="line2d_2">
      <g>
       <use style="stroke:#000000;stroke-width:1.5;" x="105.540594" xlink:href="#maed3568955" y="189"/>
      </g>
     </g>
     <g id="text_2">
      <!-- 10% -->
      <defs>
       <path d="M 37.25 0 
L 28.46875 0 
L 28.46875 56 
Q 25.296875 52.984375 20.140625 49.953125 
Q 14.984375 46.921875 10.890625 45.40625 
L 10.890625 53.90625 
Q 18.265625 57.375 23.78125 62.296875 
Q 29.296875 67.234375 31.59375 71.875 
L 37.25 71.875 
z
" id="ArialMT-49"/>
      </defs>
      <g transform="translate(95.533563 205.657813)scale(0.1 -0.1)">
       <use xlink:href="#ArialMT-49"/>
       <use x="55.615234" xlink:href="#ArialMT-48"/>
       <use x="111.230469" xlink:href="#ArialMT-37"/>
      </g>
     </g>
    </g>
    <g id="xtick_3">
     <g id="line2d_3">
      <g>
       <use style="stroke:#000000;stroke-width:1.5;" x="144.213861" xlink:href="#maed3568955" y="189"/>
      </g>
     </g>
     <g id="text_3">
      <!-- 20% -->
      <defs>
       <path d="M 50.34375 8.453125 
L 50.34375 0 
L 3.03125 0 
Q 2.9375 3.171875 4.046875 6.109375 
Q 5.859375 10.9375 9.828125 15.625 
Q 13.8125 20.3125 21.34375 26.46875 
Q 33.015625 36.03125 37.109375 41.625 
Q 41.21875 47.21875 41.21875 52.203125 
Q 41.21875 57.421875 37.46875 61 
Q 33.734375 64.59375 27.734375 64.59375 
Q 21.390625 64.59375 17.578125 60.78125 
Q 13.765625 56.984375 13.71875 50.25 
L 4.6875 51.171875 
Q 5.609375 61.28125 11.65625 66.578125 
Q 17.71875 71.875 27.9375 71.875 
Q 38.234375 71.875 44.234375 66.15625 
Q 50.25 60.453125 50.25 52 
Q 50.25 47.703125 48.484375 43.546875 
Q 46.734375 39.40625 42.65625 34.8125 
Q 38.578125 30.21875 29.109375 22.21875 
Q 21.1875 15.578125 18.9375 13.203125 
Q 16.703125 10.84375 15.234375 8.453125 
z
" id="ArialMT-50"/>
      </defs>
      <g transform="translate(134.20683 205.657813)scale(0.1 -0.1)">
       <use xlink:href="#ArialMT-50"/>
       <use x="55.615234" xlink:href="#ArialMT-48"/>
       <use x="111.230469" xlink:href="#ArialMT-37"/>
      </g>
     </g>
    </g>
    <g id="xtick_4">
     <g id="line2d_4">
      <g>
       <use style="stroke:#000000;stroke-width:1.5;" x="182.887129" xlink:href="#maed3568955" y="189"/>
      </g>
     </g>
     <g id="text_4">
      <!-- 30% -->
      <defs>
       <path d="M 4.203125 18.890625 
L 12.984375 20.0625 
Q 14.5 12.59375 18.140625 9.296875 
Q 21.78125 6 27 6 
Q 33.203125 6 37.46875 10.296875 
Q 41.75 14.59375 41.75 20.953125 
Q 41.75 27 37.796875 30.921875 
Q 33.84375 34.859375 27.734375 34.859375 
Q 25.25 34.859375 21.53125 33.890625 
L 22.515625 41.609375 
Q 23.390625 41.5 23.921875 41.5 
Q 29.546875 41.5 34.03125 44.421875 
Q 38.53125 47.359375 38.53125 53.46875 
Q 38.53125 58.296875 35.25 61.46875 
Q 31.984375 64.65625 26.8125 64.65625 
Q 21.6875 64.65625 18.265625 61.421875 
Q 14.84375 58.203125 13.875 51.765625 
L 5.078125 53.328125 
Q 6.6875 62.15625 12.390625 67.015625 
Q 18.109375 71.875 26.609375 71.875 
Q 32.46875 71.875 37.390625 69.359375 
Q 42.328125 66.84375 44.9375 62.5 
Q 47.5625 58.15625 47.5625 53.265625 
Q 47.5625 48.640625 45.0625 44.828125 
Q 42.578125 41.015625 37.703125 38.765625 
Q 44.046875 37.3125 47.5625 32.6875 
Q 51.078125 28.078125 51.078125 21.140625 
Q 51.078125 11.765625 44.234375 5.25 
Q 37.40625 -1.265625 26.953125 -1.265625 
Q 17.53125 -1.265625 11.296875 4.34375 
Q 5.078125 9.96875 4.203125 18.890625 
z
" id="ArialMT-51"/>
      </defs>
      <g transform="translate(172.880097 205.657813)scale(0.1 -0.1)">
       <use xlink:href="#ArialMT-51"/>
       <use x="55.615234" xlink:href="#ArialMT-48"/>
       <use x="111.230469" xlink:href="#ArialMT-37"/>
      </g>
     </g>
    </g>
    <g id="xtick_5">
     <g id="line2d_5">
      <g>
       <use style="stroke:#000000;stroke-width:1.5;" x="221.560396" xlink:href="#maed3568955" y="189"/>
      </g>
     </g>
     <g id="text_5">
      <!-- 40% -->
      <defs>
       <path d="M 32.328125 0 
L 32.328125 17.140625 
L 1.265625 17.140625 
L 1.265625 25.203125 
L 33.9375 71.578125 
L 41.109375 71.578125 
L 41.109375 25.203125 
L 50.78125 25.203125 
L 50.78125 17.140625 
L 41.109375 17.140625 
L 41.109375 0 
z
M 32.328125 25.203125 
L 32.328125 57.46875 
L 9.90625 25.203125 
z
" id="ArialMT-52"/>
      </defs>
      <g transform="translate(211.553365 205.657813)scale(0.1 -0.1)">
       <use xlink:href="#ArialMT-52"/>
       <use x="55.615234" xlink:href="#ArialMT-48"/>
       <use x="111.230469" xlink:href="#ArialMT-37"/>
      </g>
     </g>
    </g>
    <g id="xtick_6">
     <g id="line2d_6">
      <g>
       <use style="stroke:#000000;stroke-width:1.5;" x="260.233663" xlink:href="#maed3568955" y="189"/>
      </g>
     </g>
     <g id="text_6">
      <!-- 50% -->
      <defs>
       <path d="M 4.15625 18.75 
L 13.375 19.53125 
Q 14.40625 12.796875 18.140625 9.390625 
Q 21.875 6 27.15625 6 
Q 33.5 6 37.890625 10.78125 
Q 42.28125 15.578125 42.28125 23.484375 
Q 42.28125 31 38.0625 35.34375 
Q 33.84375 39.703125 27 39.703125 
Q 22.75 39.703125 19.328125 37.765625 
Q 15.921875 35.84375 13.96875 32.765625 
L 5.71875 33.84375 
L 12.640625 70.609375 
L 48.25 70.609375 
L 48.25 62.203125 
L 19.671875 62.203125 
L 15.828125 42.96875 
Q 22.265625 47.46875 29.34375 47.46875 
Q 38.71875 47.46875 45.15625 40.96875 
Q 51.609375 34.46875 51.609375 24.265625 
Q 51.609375 14.546875 45.953125 7.46875 
Q 39.0625 -1.21875 27.15625 -1.21875 
Q 17.390625 -1.21875 11.203125 4.25 
Q 5.03125 9.71875 4.15625 18.75 
z
" id="ArialMT-53"/>
      </defs>
      <g transform="translate(250.226632 205.657813)scale(0.1 -0.1)">
       <use xlink:href="#ArialMT-53"/>
       <use x="55.615234" xlink:href="#ArialMT-48"/>
       <use x="111.230469" xlink:href="#ArialMT-37"/>
      </g>
     </g>
    </g>
    <g id="xtick_7">
     <g id="line2d_7">
      <g>
       <use style="stroke:#000000;stroke-width:1.5;" x="298.906931" xlink:href="#maed3568955" y="189"/>
      </g>
     </g>
     <g id="text_7">
      <!-- 60% -->
      <defs>
       <path d="M 49.75 54.046875 
L 41.015625 53.375 
Q 39.84375 58.546875 37.703125 60.890625 
Q 34.125 64.65625 28.90625 64.65625 
Q 24.703125 64.65625 21.53125 62.3125 
Q 17.390625 59.28125 14.984375 53.46875 
Q 12.59375 47.65625 12.5 36.921875 
Q 15.671875 41.75 20.265625 44.09375 
Q 24.859375 46.4375 29.890625 46.4375 
Q 38.671875 46.4375 44.84375 39.96875 
Q 51.03125 33.5 51.03125 23.25 
Q 51.03125 16.5 48.125 10.71875 
Q 45.21875 4.9375 40.140625 1.859375 
Q 35.0625 -1.21875 28.609375 -1.21875 
Q 17.625 -1.21875 10.6875 6.859375 
Q 3.765625 14.9375 3.765625 33.5 
Q 3.765625 54.25 11.421875 63.671875 
Q 18.109375 71.875 29.4375 71.875 
Q 37.890625 71.875 43.28125 67.140625 
Q 48.6875 62.40625 49.75 54.046875 
z
M 13.875 23.1875 
Q 13.875 18.65625 15.796875 14.5 
Q 17.71875 10.359375 21.1875 8.171875 
Q 24.65625 6 28.46875 6 
Q 34.03125 6 38.03125 10.484375 
Q 42.046875 14.984375 42.046875 22.703125 
Q 42.046875 30.125 38.078125 34.390625 
Q 34.125 38.671875 28.125 38.671875 
Q 22.171875 38.671875 18.015625 34.390625 
Q 13.875 30.125 13.875 23.1875 
z
" id="ArialMT-54"/>
      </defs>
      <g transform="translate(288.899899 205.657813)scale(0.1 -0.1)">
       <use xlink:href="#ArialMT-54"/>
       <use x="55.615234" xlink:href="#ArialMT-48"/>
       <use x="111.230469" xlink:href="#ArialMT-37"/>
      </g>
     </g>
    </g>
    <g id="xtick_8">
     <g id="line2d_8">
      <g>
       <use style="stroke:#000000;stroke-width:1.5;" x="337.580198" xlink:href="#maed3568955" y="189"/>
      </g>
     </g>
     <g id="text_8">
      <!-- 70% -->
      <defs>
       <path d="M 4.734375 62.203125 
L 4.734375 70.65625 
L 51.078125 70.65625 
L 51.078125 63.8125 
Q 44.234375 56.546875 37.515625 44.484375 
Q 30.8125 32.421875 27.15625 19.671875 
Q 24.515625 10.6875 23.78125 0 
L 14.75 0 
Q 14.890625 8.453125 18.0625 20.40625 
Q 21.234375 32.375 27.171875 43.484375 
Q 33.109375 54.59375 39.796875 62.203125 
z
" id="ArialMT-55"/>
      </defs>
      <g transform="translate(327.573167 205.657813)scale(0.1 -0.1)">
       <use xlink:href="#ArialMT-55"/>
       <use x="55.615234" xlink:href="#ArialMT-48"/>
       <use x="111.230469" xlink:href="#ArialMT-37"/>
      </g>
     </g>
    </g>
    <g id="xtick_9">
     <g id="line2d_9">
      <g>
       <use style="stroke:#000000;stroke-width:1.5;" x="376.253465" xlink:href="#maed3568955" y="189"/>
      </g>
     </g>
     <g id="text_9">
      <!-- 80% -->
      <defs>
       <path d="M 17.671875 38.8125 
Q 12.203125 40.828125 9.5625 44.53125 
Q 6.9375 48.25 6.9375 53.421875 
Q 6.9375 61.234375 12.546875 66.546875 
Q 18.171875 71.875 27.484375 71.875 
Q 36.859375 71.875 42.578125 66.421875 
Q 48.296875 60.984375 48.296875 53.171875 
Q 48.296875 48.1875 45.671875 44.5 
Q 43.0625 40.828125 37.75 38.8125 
Q 44.34375 36.671875 47.78125 31.875 
Q 51.21875 27.09375 51.21875 20.453125 
Q 51.21875 11.28125 44.71875 5.03125 
Q 38.234375 -1.21875 27.640625 -1.21875 
Q 17.046875 -1.21875 10.546875 5.046875 
Q 4.046875 11.328125 4.046875 20.703125 
Q 4.046875 27.6875 7.59375 32.390625 
Q 11.140625 37.109375 17.671875 38.8125 
z
M 15.921875 53.71875 
Q 15.921875 48.640625 19.1875 45.40625 
Q 22.46875 42.1875 27.6875 42.1875 
Q 32.765625 42.1875 36.015625 45.375 
Q 39.265625 48.578125 39.265625 53.21875 
Q 39.265625 58.0625 35.90625 61.359375 
Q 32.5625 64.65625 27.59375 64.65625 
Q 22.5625 64.65625 19.234375 61.421875 
Q 15.921875 58.203125 15.921875 53.71875 
z
M 13.09375 20.65625 
Q 13.09375 16.890625 14.875 13.375 
Q 16.65625 9.859375 20.171875 7.921875 
Q 23.6875 6 27.734375 6 
Q 34.03125 6 38.125 10.046875 
Q 42.234375 14.109375 42.234375 20.359375 
Q 42.234375 26.703125 38.015625 30.859375 
Q 33.796875 35.015625 27.4375 35.015625 
Q 21.234375 35.015625 17.15625 30.90625 
Q 13.09375 26.8125 13.09375 20.65625 
z
" id="ArialMT-56"/>
      </defs>
      <g transform="translate(366.246434 205.657813)scale(0.1 -0.1)">
       <use xlink:href="#ArialMT-56"/>
       <use x="55.615234" xlink:href="#ArialMT-48"/>
       <use x="111.230469" xlink:href="#ArialMT-37"/>
      </g>
     </g>
    </g>
    <g id="xtick_10">
     <g id="line2d_10">
      <g>
       <use style="stroke:#000000;stroke-width:1.5;" x="414.926733" xlink:href="#maed3568955" y="189"/>
      </g>
     </g>
     <g id="text_10">
      <!-- 90% -->
      <defs>
       <path d="M 5.46875 16.546875 
L 13.921875 17.328125 
Q 14.984375 11.375 18.015625 8.6875 
Q 21.046875 6 25.78125 6 
Q 29.828125 6 32.875 7.859375 
Q 35.9375 9.71875 37.890625 12.8125 
Q 39.84375 15.921875 41.15625 21.1875 
Q 42.484375 26.46875 42.484375 31.9375 
Q 42.484375 32.515625 42.4375 33.6875 
Q 39.796875 29.5 35.234375 26.875 
Q 30.671875 24.265625 25.34375 24.265625 
Q 16.453125 24.265625 10.296875 30.703125 
Q 4.15625 37.15625 4.15625 47.703125 
Q 4.15625 58.59375 10.578125 65.234375 
Q 17 71.875 26.65625 71.875 
Q 33.640625 71.875 39.421875 68.109375 
Q 45.21875 64.359375 48.21875 57.390625 
Q 51.21875 50.4375 51.21875 37.25 
Q 51.21875 23.53125 48.234375 15.40625 
Q 45.265625 7.28125 39.375 3.03125 
Q 33.5 -1.21875 25.59375 -1.21875 
Q 17.1875 -1.21875 11.859375 3.4375 
Q 6.546875 8.109375 5.46875 16.546875 
z
M 41.453125 48.140625 
Q 41.453125 55.71875 37.421875 60.15625 
Q 33.40625 64.59375 27.734375 64.59375 
Q 21.875 64.59375 17.53125 59.8125 
Q 13.1875 55.03125 13.1875 47.40625 
Q 13.1875 40.578125 17.3125 36.296875 
Q 21.4375 32.03125 27.484375 32.03125 
Q 33.59375 32.03125 37.515625 36.296875 
Q 41.453125 40.578125 41.453125 48.140625 
z
" id="ArialMT-57"/>
      </defs>
      <g transform="translate(404.919701 205.657813)scale(0.1 -0.1)">
       <use xlink:href="#ArialMT-57"/>
       <use x="55.615234" xlink:href="#ArialMT-48"/>
       <use x="111.230469" xlink:href="#ArialMT-37"/>
      </g>
     </g>
    </g>
    <g id="xtick_11">
     <g id="line2d_11">
      <g>
       <use style="stroke:#000000;stroke-width:1.5;" x="449.732673" xlink:href="#maed3568955" y="189"/>
      </g>
     </g>
     <g id="text_11">
      <!-- 99% -->
      <g transform="translate(439.725642 205.657813)scale(0.1 -0.1)">
       <use xlink:href="#ArialMT-57"/>
       <use x="55.615234" xlink:href="#ArialMT-57"/>
       <use x="111.230469" xlink:href="#ArialMT-37"/>
      </g>
     </g>
    </g>
    <g id="text_12">
     <!-- $\bf{Layer\ Pruning\ Rate}$ -->
     <defs>
      <path d="M 9.1875 72.90625 
L 27.984375 72.90625 
L 27.984375 14.203125 
L 60.984375 14.203125 
L 60.984375 0 
L 9.1875 0 
z
" id="DejaVuSans-Bold-76"/>
      <path d="M 32.90625 24.609375 
Q 27.4375 24.609375 24.671875 22.75 
Q 21.921875 20.90625 21.921875 17.28125 
Q 21.921875 13.96875 24.140625 12.078125 
Q 26.375 10.203125 30.328125 10.203125 
Q 35.25 10.203125 38.625 13.734375 
Q 42 17.28125 42 22.609375 
L 42 24.609375 
z
M 59.625 31.203125 
L 59.625 0 
L 42 0 
L 42 8.109375 
Q 38.484375 3.125 34.078125 0.84375 
Q 29.6875 -1.421875 23.390625 -1.421875 
Q 14.890625 -1.421875 9.59375 3.53125 
Q 4.296875 8.5 4.296875 16.40625 
Q 4.296875 26.03125 10.90625 30.515625 
Q 17.53125 35.015625 31.6875 35.015625 
L 42 35.015625 
L 42 36.375 
Q 42 40.53125 38.71875 42.453125 
Q 35.453125 44.390625 28.515625 44.390625 
Q 22.90625 44.390625 18.0625 43.265625 
Q 13.234375 42.140625 9.078125 39.890625 
L 9.078125 53.21875 
Q 14.703125 54.59375 20.359375 55.296875 
Q 26.03125 56 31.6875 56 
Q 46.484375 56 53.046875 50.171875 
Q 59.625 44.34375 59.625 31.203125 
z
" id="DejaVuSans-Bold-97"/>
      <path d="M 1.21875 54.6875 
L 18.703125 54.6875 
L 33.40625 17.578125 
L 45.90625 54.6875 
L 63.375 54.6875 
L 40.375 -5.171875 
Q 36.921875 -14.3125 32.296875 -17.9375 
Q 27.6875 -21.578125 20.125 -21.578125 
L 10.015625 -21.578125 
L 10.015625 -10.109375 
L 15.484375 -10.109375 
Q 19.921875 -10.109375 21.9375 -8.6875 
Q 23.96875 -7.28125 25.09375 -3.609375 
L 25.59375 -2.09375 
z
" id="DejaVuSans-Bold-121"/>
      <path d="M 62.984375 27.484375 
L 62.984375 22.515625 
L 22.125 22.515625 
Q 22.75 16.359375 26.5625 13.28125 
Q 30.375 10.203125 37.203125 10.203125 
Q 42.71875 10.203125 48.5 11.84375 
Q 54.296875 13.484375 60.40625 16.796875 
L 60.40625 3.328125 
Q 54.203125 0.984375 48 -0.21875 
Q 41.796875 -1.421875 35.59375 -1.421875 
Q 20.75 -1.421875 12.515625 6.125 
Q 4.296875 13.671875 4.296875 27.296875 
Q 4.296875 40.671875 12.375 48.328125 
Q 20.453125 56 34.625 56 
Q 47.515625 56 55.25 48.234375 
Q 62.984375 40.484375 62.984375 27.484375 
z
M 45.015625 33.296875 
Q 45.015625 38.28125 42.109375 41.328125 
Q 39.203125 44.390625 34.515625 44.390625 
Q 29.4375 44.390625 26.265625 41.53125 
Q 23.09375 38.671875 22.3125 33.296875 
z
" id="DejaVuSans-Bold-101"/>
      <path d="M 49.03125 39.796875 
Q 46.734375 40.875 44.453125 41.375 
Q 42.1875 41.890625 39.890625 41.890625 
Q 33.15625 41.890625 29.515625 37.5625 
Q 25.875 33.25 25.875 25.203125 
L 25.875 0 
L 8.40625 0 
L 8.40625 54.6875 
L 25.875 54.6875 
L 25.875 45.703125 
Q 29.25 51.078125 33.609375 53.53125 
Q 37.984375 56 44.09375 56 
Q 44.96875 56 45.984375 55.921875 
Q 47.015625 55.859375 48.96875 55.609375 
z
" id="DejaVuSans-Bold-114"/>
      <path d="M 9.1875 72.90625 
L 40.375 72.90625 
Q 54.296875 72.90625 61.734375 66.71875 
Q 69.1875 60.546875 69.1875 49.125 
Q 69.1875 37.640625 61.734375 31.46875 
Q 54.296875 25.296875 40.375 25.296875 
L 27.984375 25.296875 
L 27.984375 0 
L 9.1875 0 
z
M 27.984375 59.28125 
L 27.984375 38.921875 
L 38.375 38.921875 
Q 43.84375 38.921875 46.828125 41.578125 
Q 49.8125 44.234375 49.8125 49.125 
Q 49.8125 54 46.828125 56.640625 
Q 43.84375 59.28125 38.375 59.28125 
z
" id="DejaVuSans-Bold-80"/>
      <path d="M 7.8125 21.296875 
L 7.8125 54.6875 
L 25.390625 54.6875 
L 25.390625 49.21875 
Q 25.390625 44.78125 25.34375 38.0625 
Q 25.296875 31.34375 25.296875 29.109375 
Q 25.296875 22.515625 25.640625 19.609375 
Q 25.984375 16.703125 26.8125 15.375 
Q 27.875 13.671875 29.609375 12.734375 
Q 31.34375 11.8125 33.59375 11.8125 
Q 39.0625 11.8125 42.1875 16.015625 
Q 45.3125 20.21875 45.3125 27.6875 
L 45.3125 54.6875 
L 62.796875 54.6875 
L 62.796875 0 
L 45.3125 0 
L 45.3125 7.90625 
Q 41.359375 3.125 36.9375 0.84375 
Q 32.515625 -1.421875 27.203125 -1.421875 
Q 17.71875 -1.421875 12.765625 4.390625 
Q 7.8125 10.203125 7.8125 21.296875 
z
" id="DejaVuSans-Bold-117"/>
      <path d="M 63.375 33.296875 
L 63.375 0 
L 45.796875 0 
L 45.796875 5.421875 
L 45.796875 25.484375 
Q 45.796875 32.5625 45.484375 35.25 
Q 45.171875 37.9375 44.390625 39.203125 
Q 43.359375 40.921875 41.59375 41.875 
Q 39.84375 42.828125 37.59375 42.828125 
Q 32.125 42.828125 29 38.59375 
Q 25.875 34.375 25.875 26.90625 
L 25.875 0 
L 8.40625 0 
L 8.40625 54.6875 
L 25.875 54.6875 
L 25.875 46.6875 
Q 29.828125 51.46875 34.265625 53.734375 
Q 38.71875 56 44.09375 56 
Q 53.5625 56 58.46875 50.1875 
Q 63.375 44.390625 63.375 33.296875 
z
" id="DejaVuSans-Bold-110"/>
      <path d="M 8.40625 54.6875 
L 25.875 54.6875 
L 25.875 0 
L 8.40625 0 
z
M 8.40625 75.984375 
L 25.875 75.984375 
L 25.875 61.71875 
L 8.40625 61.71875 
z
" id="DejaVuSans-Bold-105"/>
      <path d="M 45.609375 9.28125 
Q 42 4.5 37.640625 2.25 
Q 33.296875 0 27.59375 0 
Q 17.578125 0 11.03125 7.875 
Q 4.5 15.765625 4.5 27.984375 
Q 4.5 40.234375 11.03125 48.0625 
Q 17.578125 55.90625 27.59375 55.90625 
Q 33.296875 55.90625 37.640625 53.65625 
Q 42 51.421875 45.609375 46.578125 
L 45.609375 54.6875 
L 63.1875 54.6875 
L 63.1875 5.515625 
Q 63.1875 -7.671875 54.859375 -14.625 
Q 46.53125 -21.578125 30.71875 -21.578125 
Q 25.59375 -21.578125 20.796875 -20.796875 
Q 16.015625 -20.015625 11.1875 -18.40625 
L 11.1875 -4.78125 
Q 15.765625 -7.421875 20.15625 -8.71875 
Q 24.5625 -10.015625 29 -10.015625 
Q 37.59375 -10.015625 41.59375 -6.25 
Q 45.609375 -2.484375 45.609375 5.515625 
z
M 34.078125 43.3125 
Q 28.65625 43.3125 25.625 39.296875 
Q 22.609375 35.296875 22.609375 27.984375 
Q 22.609375 20.453125 25.53125 16.578125 
Q 28.46875 12.703125 34.078125 12.703125 
Q 39.546875 12.703125 42.578125 16.703125 
Q 45.609375 20.703125 45.609375 27.984375 
Q 45.609375 35.296875 42.578125 39.296875 
Q 39.546875 43.3125 34.078125 43.3125 
z
" id="DejaVuSans-Bold-103"/>
      <path d="M 35.890625 40.578125 
Q 41.796875 40.578125 44.359375 42.765625 
Q 46.921875 44.96875 46.921875 50 
Q 46.921875 54.984375 44.359375 57.125 
Q 41.796875 59.28125 35.890625 59.28125 
L 27.984375 59.28125 
L 27.984375 40.578125 
z
M 27.984375 27.59375 
L 27.984375 0 
L 9.1875 0 
L 9.1875 72.90625 
L 37.890625 72.90625 
Q 52.296875 72.90625 59 68.0625 
Q 65.71875 63.234375 65.71875 52.78125 
Q 65.71875 45.5625 62.21875 40.921875 
Q 58.734375 36.28125 51.703125 34.078125 
Q 55.5625 33.203125 58.609375 30.09375 
Q 61.671875 27 64.796875 20.703125 
L 75 0 
L 54.984375 0 
L 46.09375 18.109375 
Q 43.40625 23.578125 40.640625 25.578125 
Q 37.890625 27.59375 33.296875 27.59375 
z
" id="DejaVuSans-Bold-82"/>
      <path d="M 27.484375 70.21875 
L 27.484375 54.6875 
L 45.515625 54.6875 
L 45.515625 42.1875 
L 27.484375 42.1875 
L 27.484375 19 
Q 27.484375 15.1875 29 13.84375 
Q 30.515625 12.5 35.015625 12.5 
L 44 12.5 
L 44 0 
L 29 0 
Q 18.65625 0 14.328125 4.3125 
Q 10.015625 8.640625 10.015625 19 
L 10.015625 42.1875 
L 1.3125 42.1875 
L 1.3125 54.6875 
L 10.015625 54.6875 
L 10.015625 70.21875 
z
" id="DejaVuSans-Bold-116"/>
     </defs>
     <g transform="translate(193.14 220.765312)scale(0.12 -0.12)">
      <use transform="translate(0 0.015625)" xlink:href="#DejaVuSans-Bold-76"/>
      <use transform="translate(63.720703 0.015625)" xlink:href="#DejaVuSans-Bold-97"/>
      <use transform="translate(131.201172 0.015625)" xlink:href="#DejaVuSans-Bold-121"/>
      <use transform="translate(196.386719 0.015625)" xlink:href="#DejaVuSans-Bold-101"/>
      <use transform="translate(264.208984 0.015625)" xlink:href="#DejaVuSans-Bold-114"/>
      <use transform="translate(348.258116 0.015625)" xlink:href="#DejaVuSans-Bold-80"/>
      <use transform="translate(421.549132 0.015625)" xlink:href="#DejaVuSans-Bold-114"/>
      <use transform="translate(470.865538 0.015625)" xlink:href="#DejaVuSans-Bold-117"/>
      <use transform="translate(542.056944 0.015625)" xlink:href="#DejaVuSans-Bold-110"/>
      <use transform="translate(613.248351 0.015625)" xlink:href="#DejaVuSans-Bold-105"/>
      <use transform="translate(647.525694 0.015625)" xlink:href="#DejaVuSans-Bold-110"/>
      <use transform="translate(718.717101 0.015625)" xlink:href="#DejaVuSans-Bold-103"/>
      <use transform="translate(825.031857 0.015625)" xlink:href="#DejaVuSans-Bold-82"/>
      <use transform="translate(902.033811 0.015625)" xlink:href="#DejaVuSans-Bold-97"/>
      <use transform="translate(969.514279 0.015625)" xlink:href="#DejaVuSans-Bold-116"/>
      <use transform="translate(1017.317014 0.015625)" xlink:href="#DejaVuSans-Bold-101"/>
     </g>
    </g>
   </g>
   <g id="matplotlib.axis_2">
    <g id="ytick_1">
     <g id="line2d_12">
      <defs>
       <path d="M 0 0 
L -6 0 
" id="m743a7b0b6a" style="stroke:#000000;stroke-width:1.5;"/>
      </defs>
      <g>
       <use style="stroke:#000000;stroke-width:1.5;" x="63" xlink:href="#m743a7b0b6a" y="189"/>
      </g>
     </g>
     <g id="text_13">
      <!-- 0% -->
      <g transform="translate(39.046875 192.578906)scale(0.1 -0.1)">
       <use xlink:href="#ArialMT-48"/>
       <use x="55.615234" xlink:href="#ArialMT-37"/>
      </g>
     </g>
    </g>
    <g id="ytick_2">
     <g id="line2d_13">
      <g>
       <use style="stroke:#000000;stroke-width:1.5;" x="63" xlink:href="#m743a7b0b6a" y="172.692"/>
      </g>
     </g>
     <g id="text_14">
      <!-- 10% -->
      <g transform="translate(33.485937 176.270906)scale(0.1 -0.1)">
       <use xlink:href="#ArialMT-49"/>
       <use x="55.615234" xlink:href="#ArialMT-48"/>
       <use x="111.230469" xlink:href="#ArialMT-37"/>
      </g>
     </g>
    </g>
    <g id="ytick_3">
     <g id="line2d_14">
      <g>
       <use style="stroke:#000000;stroke-width:1.5;" x="63" xlink:href="#m743a7b0b6a" y="156.384"/>
      </g>
     </g>
     <g id="text_15">
      <!-- 20% -->
      <g transform="translate(33.485937 159.962906)scale(0.1 -0.1)">
       <use xlink:href="#ArialMT-50"/>
       <use x="55.615234" xlink:href="#ArialMT-48"/>
       <use x="111.230469" xlink:href="#ArialMT-37"/>
      </g>
     </g>
    </g>
    <g id="ytick_4">
     <g id="line2d_15">
      <g>
       <use style="stroke:#000000;stroke-width:1.5;" x="63" xlink:href="#m743a7b0b6a" y="140.076"/>
      </g>
     </g>
     <g id="text_16">
      <!-- 30% -->
      <g transform="translate(33.485937 143.654906)scale(0.1 -0.1)">
       <use xlink:href="#ArialMT-51"/>
       <use x="55.615234" xlink:href="#ArialMT-48"/>
       <use x="111.230469" xlink:href="#ArialMT-37"/>
      </g>
     </g>
    </g>
    <g id="ytick_5">
     <g id="line2d_16">
      <g>
       <use style="stroke:#000000;stroke-width:1.5;" x="63" xlink:href="#m743a7b0b6a" y="123.768"/>
      </g>
     </g>
     <g id="text_17">
      <!-- 40% -->
      <g transform="translate(33.485937 127.346906)scale(0.1 -0.1)">
       <use xlink:href="#ArialMT-52"/>
       <use x="55.615234" xlink:href="#ArialMT-48"/>
       <use x="111.230469" xlink:href="#ArialMT-37"/>
      </g>
     </g>
    </g>
    <g id="ytick_6">
     <g id="line2d_17">
      <g>
       <use style="stroke:#000000;stroke-width:1.5;" x="63" xlink:href="#m743a7b0b6a" y="107.46"/>
      </g>
     </g>
     <g id="text_18">
      <!-- 50% -->
      <g transform="translate(33.485937 111.038906)scale(0.1 -0.1)">
       <use xlink:href="#ArialMT-53"/>
       <use x="55.615234" xlink:href="#ArialMT-48"/>
       <use x="111.230469" xlink:href="#ArialMT-37"/>
      </g>
     </g>
    </g>
    <g id="ytick_7">
     <g id="line2d_18">
      <g>
       <use style="stroke:#000000;stroke-width:1.5;" x="63" xlink:href="#m743a7b0b6a" y="91.152"/>
      </g>
     </g>
     <g id="text_19">
      <!-- 60% -->
      <g transform="translate(33.485937 94.730906)scale(0.1 -0.1)">
       <use xlink:href="#ArialMT-54"/>
       <use x="55.615234" xlink:href="#ArialMT-48"/>
       <use x="111.230469" xlink:href="#ArialMT-37"/>
      </g>
     </g>
    </g>
    <g id="ytick_8">
     <g id="line2d_19">
      <g>
       <use style="stroke:#000000;stroke-width:1.5;" x="63" xlink:href="#m743a7b0b6a" y="74.844"/>
      </g>
     </g>
     <g id="text_20">
      <!-- 70% -->
      <g transform="translate(33.485937 78.422906)scale(0.1 -0.1)">
       <use xlink:href="#ArialMT-55"/>
       <use x="55.615234" xlink:href="#ArialMT-48"/>
       <use x="111.230469" xlink:href="#ArialMT-37"/>
      </g>
     </g>
    </g>
    <g id="ytick_9">
     <g id="line2d_20">
      <g>
       <use style="stroke:#000000;stroke-width:1.5;" x="63" xlink:href="#m743a7b0b6a" y="58.536"/>
      </g>
     </g>
     <g id="text_21">
      <!-- 80% -->
      <g transform="translate(33.485937 62.114906)scale(0.1 -0.1)">
       <use xlink:href="#ArialMT-56"/>
       <use x="55.615234" xlink:href="#ArialMT-48"/>
       <use x="111.230469" xlink:href="#ArialMT-37"/>
      </g>
     </g>
    </g>
    <g id="ytick_10">
     <g id="line2d_21">
      <g>
       <use style="stroke:#000000;stroke-width:1.5;" x="63" xlink:href="#m743a7b0b6a" y="42.228"/>
      </g>
     </g>
     <g id="text_22">
      <!-- 90% -->
      <g transform="translate(33.485937 45.806906)scale(0.1 -0.1)">
       <use xlink:href="#ArialMT-57"/>
       <use x="55.615234" xlink:href="#ArialMT-48"/>
       <use x="111.230469" xlink:href="#ArialMT-37"/>
      </g>
     </g>
    </g>
    <g id="ytick_11">
     <g id="line2d_22">
      <g>
       <use style="stroke:#000000;stroke-width:1.5;" x="63" xlink:href="#m743a7b0b6a" y="25.92"/>
      </g>
     </g>
     <g id="text_23">
      <!-- 100% -->
      <g transform="translate(27.925 29.498906)scale(0.1 -0.1)">
       <use xlink:href="#ArialMT-49"/>
       <use x="55.615234" xlink:href="#ArialMT-48"/>
       <use x="111.230469" xlink:href="#ArialMT-48"/>
       <use x="166.845703" xlink:href="#ArialMT-37"/>
      </g>
     </g>
    </g>
    <g id="text_24">
     <!-- $\bf{Accuracy}$ -->
     <defs>
      <path d="M 53.421875 13.28125 
L 24.03125 13.28125 
L 19.390625 0 
L 0.484375 0 
L 27.484375 72.90625 
L 49.90625 72.90625 
L 76.90625 0 
L 58.015625 0 
z
M 28.71875 26.8125 
L 48.6875 26.8125 
L 38.71875 55.8125 
z
" id="DejaVuSans-Bold-65"/>
      <path d="M 52.59375 52.984375 
L 52.59375 38.71875 
Q 49.03125 41.15625 45.4375 42.328125 
Q 41.84375 43.5 37.984375 43.5 
Q 30.671875 43.5 26.59375 39.234375 
Q 22.515625 34.96875 22.515625 27.296875 
Q 22.515625 19.625 26.59375 15.34375 
Q 30.671875 11.078125 37.984375 11.078125 
Q 42.09375 11.078125 45.78125 12.296875 
Q 49.46875 13.53125 52.59375 15.921875 
L 52.59375 1.609375 
Q 48.484375 0.09375 44.265625 -0.65625 
Q 40.046875 -1.421875 35.796875 -1.421875 
Q 21 -1.421875 12.640625 6.171875 
Q 4.296875 13.765625 4.296875 27.296875 
Q 4.296875 40.828125 12.640625 48.40625 
Q 21 56 35.796875 56 
Q 40.09375 56 44.265625 55.25 
Q 48.4375 54.5 52.59375 52.984375 
z
" id="DejaVuSans-Bold-99"/>
     </defs>
     <g transform="translate(21.285 138)rotate(-90)scale(0.12 -0.12)">
      <use transform="translate(0 0.09375)" xlink:href="#DejaVuSans-Bold-65"/>
      <use transform="translate(77.392578 0.09375)" xlink:href="#DejaVuSans-Bold-99"/>
      <use transform="translate(136.669922 0.09375)" xlink:href="#DejaVuSans-Bold-99"/>
      <use transform="translate(195.947266 0.09375)" xlink:href="#DejaVuSans-Bold-117"/>
      <use transform="translate(267.138672 0.09375)" xlink:href="#DejaVuSans-Bold-114"/>
      <use transform="translate(316.455078 0.09375)" xlink:href="#DejaVuSans-Bold-97"/>
      <use transform="translate(383.935547 0.09375)" xlink:href="#DejaVuSans-Bold-99"/>
      <use transform="translate(443.212891 0.09375)" xlink:href="#DejaVuSans-Bold-121"/>
     </g>
    </g>
   </g>
   <g id="patch_3">
    <path d="M 63 189 
L 63 25.92 
" style="fill:none;stroke:#000000;stroke-linecap:square;stroke-linejoin:miter;"/>
   </g>
   <g id="patch_4">
    <path d="M 63 189 
L 453.6 189 
" style="fill:none;stroke:#000000;stroke-linecap:square;stroke-linejoin:miter;"/>
   </g>
   <g id="legend_1">
    <g id="line2d_23">
     <path d="M 86.53 78.332625 
L 106.53 78.332625 
" style="fill:none;stroke:#ff0000;stroke-linecap:square;"/>
    </g>
    <g id="line2d_24">
     <defs>
      <path d="M 0 2.5 
C 0.663008 2.5 1.29895 2.236584 1.767767 1.767767 
C 2.236584 1.29895 2.5 0.663008 2.5 0 
C 2.5 -0.663008 2.236584 -1.29895 1.767767 -1.767767 
C 1.29895 -2.236584 0.663008 -2.5 0 -2.5 
C -0.663008 -2.5 -1.29895 -2.236584 -1.767767 -1.767767 
C -2.236584 -1.29895 -2.5 -0.663008 -2.5 0 
C -2.5 0.663008 -2.236584 1.29895 -1.767767 1.767767 
C -1.29895 2.236584 -0.663008 2.5 0 2.5 
z
" id="m89c197e32c" style="stroke:#000000;stroke-width:0.5;"/>
     </defs>
     <g>
      <use style="fill:#ff0000;stroke:#000000;stroke-width:0.5;" x="96.53" xlink:href="#m89c197e32c" y="78.332625"/>
     </g>
    </g>
    <g id="text_25">
     <!-- S1C0 -->
     <defs>
      <path d="M 4.5 23 
L 13.421875 23.78125 
Q 14.0625 18.40625 16.375 14.96875 
Q 18.703125 11.53125 23.578125 9.40625 
Q 28.46875 7.28125 34.578125 7.28125 
Q 39.984375 7.28125 44.140625 8.890625 
Q 48.296875 10.5 50.3125 13.296875 
Q 52.34375 16.109375 52.34375 19.4375 
Q 52.34375 22.796875 50.390625 25.3125 
Q 48.4375 27.828125 43.953125 29.546875 
Q 41.0625 30.671875 31.203125 33.03125 
Q 21.34375 35.40625 17.390625 37.5 
Q 12.25 40.1875 9.734375 44.15625 
Q 7.234375 48.140625 7.234375 53.078125 
Q 7.234375 58.5 10.296875 63.203125 
Q 13.375 67.921875 19.28125 70.359375 
Q 25.203125 72.796875 32.421875 72.796875 
Q 40.375 72.796875 46.453125 70.234375 
Q 52.546875 67.671875 55.8125 62.6875 
Q 59.078125 57.71875 59.328125 51.421875 
L 50.25 50.734375 
Q 49.515625 57.515625 45.28125 60.984375 
Q 41.0625 64.453125 32.8125 64.453125 
Q 24.21875 64.453125 20.28125 61.296875 
Q 16.359375 58.15625 16.359375 53.71875 
Q 16.359375 49.859375 19.140625 47.359375 
Q 21.875 44.875 33.421875 42.265625 
Q 44.96875 39.65625 49.265625 37.703125 
Q 55.515625 34.8125 58.484375 30.390625 
Q 61.46875 25.984375 61.46875 20.21875 
Q 61.46875 14.5 58.203125 9.4375 
Q 54.9375 4.390625 48.796875 1.578125 
Q 42.671875 -1.21875 35.015625 -1.21875 
Q 25.296875 -1.21875 18.71875 1.609375 
Q 12.15625 4.4375 8.421875 10.125 
Q 4.6875 15.828125 4.5 23 
z
" id="ArialMT-83"/>
      <path d="M 58.796875 25.09375 
L 68.265625 22.703125 
Q 65.28125 11.03125 57.546875 4.90625 
Q 49.8125 -1.21875 38.625 -1.21875 
Q 27.046875 -1.21875 19.796875 3.484375 
Q 12.546875 8.203125 8.765625 17.140625 
Q 4.984375 26.078125 4.984375 36.328125 
Q 4.984375 47.515625 9.25 55.828125 
Q 13.53125 64.15625 21.40625 68.46875 
Q 29.296875 72.796875 38.765625 72.796875 
Q 49.515625 72.796875 56.828125 67.328125 
Q 64.15625 61.859375 67.046875 51.953125 
L 57.71875 49.75 
Q 55.21875 57.5625 50.484375 61.125 
Q 45.75 64.703125 38.578125 64.703125 
Q 30.328125 64.703125 24.78125 60.734375 
Q 19.234375 56.78125 16.984375 50.109375 
Q 14.75 43.453125 14.75 36.375 
Q 14.75 27.25 17.40625 20.4375 
Q 20.0625 13.625 25.671875 10.25 
Q 31.296875 6.890625 37.84375 6.890625 
Q 45.796875 6.890625 51.3125 11.46875 
Q 56.84375 16.0625 58.796875 25.09375 
z
" id="ArialMT-67"/>
     </defs>
     <g transform="translate(108.53 81.832625)scale(0.1 -0.1)">
      <use xlink:href="#ArialMT-83"/>
      <use x="66.699219" xlink:href="#ArialMT-49"/>
      <use x="122.314453" xlink:href="#ArialMT-67"/>
      <use x="194.53125" xlink:href="#ArialMT-48"/>
     </g>
    </g>
    <g id="line2d_25">
     <path d="M 86.53 92.477937 
L 106.53 92.477937 
" style="fill:none;stroke:#008000;stroke-linecap:square;"/>
    </g>
    <g id="line2d_26">
     <defs>
      <path d="M 0 2.5 
C 0.663008 2.5 1.29895 2.236584 1.767767 1.767767 
C 2.236584 1.29895 2.5 0.663008 2.5 0 
C 2.5 -0.663008 2.236584 -1.29895 1.767767 -1.767767 
C 1.29895 -2.236584 0.663008 -2.5 0 -2.5 
C -0.663008 -2.5 -1.29895 -2.236584 -1.767767 -1.767767 
C -2.236584 -1.29895 -2.5 -0.663008 -2.5 0 
C -2.5 0.663008 -2.236584 1.29895 -1.767767 1.767767 
C -1.29895 2.236584 -0.663008 2.5 0 2.5 
z
" id="mbad32eaae4" style="stroke:#000000;stroke-width:0.5;"/>
     </defs>
     <g>
      <use style="fill:#008000;stroke:#000000;stroke-width:0.5;" x="96.53" xlink:href="#mbad32eaae4" y="92.477937"/>
     </g>
    </g>
    <g id="text_26">
     <!-- S1C1 -->
     <g transform="translate(108.53 95.977937)scale(0.1 -0.1)">
      <use xlink:href="#ArialMT-83"/>
      <use x="66.699219" xlink:href="#ArialMT-49"/>
      <use x="122.314453" xlink:href="#ArialMT-67"/>
      <use x="194.53125" xlink:href="#ArialMT-49"/>
     </g>
    </g>
    <g id="line2d_27">
     <path d="M 86.53 106.62325 
L 106.53 106.62325 
" style="fill:none;stroke:#0000ff;stroke-linecap:square;"/>
    </g>
    <g id="line2d_28">
     <defs>
      <path d="M 0 2.5 
C 0.663008 2.5 1.29895 2.236584 1.767767 1.767767 
C 2.236584 1.29895 2.5 0.663008 2.5 0 
C 2.5 -0.663008 2.236584 -1.29895 1.767767 -1.767767 
C 1.29895 -2.236584 0.663008 -2.5 0 -2.5 
C -0.663008 -2.5 -1.29895 -2.236584 -1.767767 -1.767767 
C -2.236584 -1.29895 -2.5 -0.663008 -2.5 0 
C -2.5 0.663008 -2.236584 1.29895 -1.767767 1.767767 
C -1.29895 2.236584 -0.663008 2.5 0 2.5 
z
" id="m375c9516bd" style="stroke:#000000;stroke-width:0.5;"/>
     </defs>
     <g>
      <use style="fill:#0000ff;stroke:#000000;stroke-width:0.5;" x="96.53" xlink:href="#m375c9516bd" y="106.62325"/>
     </g>
    </g>
    <g id="text_27">
     <!-- S1C2 -->
     <g transform="translate(108.53 110.12325)scale(0.1 -0.1)">
      <use xlink:href="#ArialMT-83"/>
      <use x="66.699219" xlink:href="#ArialMT-49"/>
      <use x="122.314453" xlink:href="#ArialMT-67"/>
      <use x="194.53125" xlink:href="#ArialMT-50"/>
     </g>
    </g>
    <g id="line2d_29">
     <path d="M 86.53 120.768563 
L 106.53 120.768563 
" style="fill:none;stroke:#000000;stroke-linecap:square;"/>
    </g>
    <g id="line2d_30">
     <defs>
      <path d="M 0 2.5 
C 0.663008 2.5 1.29895 2.236584 1.767767 1.767767 
C 2.236584 1.29895 2.5 0.663008 2.5 0 
C 2.5 -0.663008 2.236584 -1.29895 1.767767 -1.767767 
C 1.29895 -2.236584 0.663008 -2.5 0 -2.5 
C -0.663008 -2.5 -1.29895 -2.236584 -1.767767 -1.767767 
C -2.236584 -1.29895 -2.5 -0.663008 -2.5 0 
C -2.5 0.663008 -2.236584 1.29895 -1.767767 1.767767 
C -1.29895 2.236584 -0.663008 2.5 0 2.5 
z
" id="m688f2dd619" style="stroke:#000000;stroke-width:0.5;"/>
     </defs>
     <g>
      <use style="stroke:#000000;stroke-width:0.5;" x="96.53" xlink:href="#m688f2dd619" y="120.768563"/>
     </g>
    </g>
    <g id="text_28">
     <!-- S2C0 -->
     <g transform="translate(108.53 124.268563)scale(0.1 -0.1)">
      <use xlink:href="#ArialMT-83"/>
      <use x="66.699219" xlink:href="#ArialMT-50"/>
      <use x="122.314453" xlink:href="#ArialMT-67"/>
      <use x="194.53125" xlink:href="#ArialMT-48"/>
     </g>
    </g>
    <g id="line2d_31">
     <path d="M 86.53 134.913875 
L 106.53 134.913875 
" style="fill:none;stroke:#bebe00;stroke-linecap:square;"/>
    </g>
    <g id="line2d_32">
     <defs>
      <path d="M 0 2.5 
C 0.663008 2.5 1.29895 2.236584 1.767767 1.767767 
C 2.236584 1.29895 2.5 0.663008 2.5 0 
C 2.5 -0.663008 2.236584 -1.29895 1.767767 -1.767767 
C 1.29895 -2.236584 0.663008 -2.5 0 -2.5 
C -0.663008 -2.5 -1.29895 -2.236584 -1.767767 -1.767767 
C -2.236584 -1.29895 -2.5 -0.663008 -2.5 0 
C -2.5 0.663008 -2.236584 1.29895 -1.767767 1.767767 
C -1.29895 2.236584 -0.663008 2.5 0 2.5 
z
" id="mecfeac8df1" style="stroke:#000000;stroke-width:0.5;"/>
     </defs>
     <g>
      <use style="fill:#bebe00;stroke:#000000;stroke-width:0.5;" x="96.53" xlink:href="#mecfeac8df1" y="134.913875"/>
     </g>
    </g>
    <g id="text_29">
     <!-- S2C1 -->
     <g transform="translate(108.53 138.413875)scale(0.1 -0.1)">
      <use xlink:href="#ArialMT-83"/>
      <use x="66.699219" xlink:href="#ArialMT-50"/>
      <use x="122.314453" xlink:href="#ArialMT-67"/>
      <use x="194.53125" xlink:href="#ArialMT-49"/>
     </g>
    </g>
    <g id="line2d_33">
     <path d="M 86.53 149.059188 
L 106.53 149.059188 
" style="fill:none;stroke:#be00be;stroke-linecap:square;"/>
    </g>
    <g id="line2d_34">
     <defs>
      <path d="M 0 2.5 
C 0.663008 2.5 1.29895 2.236584 1.767767 1.767767 
C 2.236584 1.29895 2.5 0.663008 2.5 0 
C 2.5 -0.663008 2.236584 -1.29895 1.767767 -1.767767 
C 1.29895 -2.236584 0.663008 -2.5 0 -2.5 
C -0.663008 -2.5 -1.29895 -2.236584 -1.767767 -1.767767 
C -2.236584 -1.29895 -2.5 -0.663008 -2.5 0 
C -2.5 0.663008 -2.236584 1.29895 -1.767767 1.767767 
C -1.29895 2.236584 -0.663008 2.5 0 2.5 
z
" id="m38df1e8502" style="stroke:#000000;stroke-width:0.5;"/>
     </defs>
     <g>
      <use style="fill:#be00be;stroke:#000000;stroke-width:0.5;" x="96.53" xlink:href="#m38df1e8502" y="149.059188"/>
     </g>
    </g>
    <g id="text_30">
     <!-- S2C2 -->
     <g transform="translate(108.53 152.559188)scale(0.1 -0.1)">
      <use xlink:href="#ArialMT-83"/>
      <use x="66.699219" xlink:href="#ArialMT-50"/>
      <use x="122.314453" xlink:href="#ArialMT-67"/>
      <use x="194.53125" xlink:href="#ArialMT-50"/>
     </g>
    </g>
    <g id="line2d_35">
     <path d="M 86.53 163.2045 
L 106.53 163.2045 
" style="fill:none;stroke:#00bebe;stroke-linecap:square;"/>
    </g>
    <g id="line2d_36">
     <defs>
      <path d="M 0 2.5 
C 0.663008 2.5 1.29895 2.236584 1.767767 1.767767 
C 2.236584 1.29895 2.5 0.663008 2.5 0 
C 2.5 -0.663008 2.236584 -1.29895 1.767767 -1.767767 
C 1.29895 -2.236584 0.663008 -2.5 0 -2.5 
C -0.663008 -2.5 -1.29895 -2.236584 -1.767767 -1.767767 
C -2.236584 -1.29895 -2.5 -0.663008 -2.5 0 
C -2.5 0.663008 -2.236584 1.29895 -1.767767 1.767767 
C -1.29895 2.236584 -0.663008 2.5 0 2.5 
z
" id="m26c60a71e3" style="stroke:#000000;stroke-width:0.5;"/>
     </defs>
     <g>
      <use style="fill:#00bebe;stroke:#000000;stroke-width:0.5;" x="96.53" xlink:href="#m26c60a71e3" y="163.2045"/>
     </g>
    </g>
    <g id="text_31">
     <!-- S3C0 -->
     <g transform="translate(108.53 166.7045)scale(0.1 -0.1)">
      <use xlink:href="#ArialMT-83"/>
      <use x="66.699219" xlink:href="#ArialMT-51"/>
      <use x="122.314453" xlink:href="#ArialMT-67"/>
      <use x="194.53125" xlink:href="#ArialMT-48"/>
     </g>
    </g>
    <g id="line2d_37">
     <path d="M 137.544062 78.332625 
L 157.544062 78.332625 
" style="fill:none;stroke:#ff0000;stroke-dasharray:3.7,1.6;stroke-dashoffset:0;"/>
    </g>
    <g id="line2d_38">
     <g>
      <use style="fill:#ff0000;stroke:#000000;stroke-width:0.5;" x="147.544062" xlink:href="#m89c197e32c" y="78.332625"/>
     </g>
    </g>
    <g id="text_32">
     <!-- S3C1 -->
     <g transform="translate(159.544062 81.832625)scale(0.1 -0.1)">
      <use xlink:href="#ArialMT-83"/>
      <use x="66.699219" xlink:href="#ArialMT-51"/>
      <use x="122.314453" xlink:href="#ArialMT-67"/>
      <use x="194.53125" xlink:href="#ArialMT-49"/>
     </g>
    </g>
    <g id="line2d_39">
     <path d="M 137.544062 92.477937 
L 157.544062 92.477937 
" style="fill:none;stroke:#008000;stroke-dasharray:3.7,1.6;stroke-dashoffset:0;"/>
    </g>
    <g id="line2d_40">
     <g>
      <use style="fill:#008000;stroke:#000000;stroke-width:0.5;" x="147.544062" xlink:href="#mbad32eaae4" y="92.477937"/>
     </g>
    </g>
    <g id="text_33">
     <!-- S3C2 -->
     <g transform="translate(159.544062 95.977937)scale(0.1 -0.1)">
      <use xlink:href="#ArialMT-83"/>
      <use x="66.699219" xlink:href="#ArialMT-51"/>
      <use x="122.314453" xlink:href="#ArialMT-67"/>
      <use x="194.53125" xlink:href="#ArialMT-50"/>
     </g>
    </g>
    <g id="line2d_41">
     <path d="M 137.544062 106.62325 
L 157.544062 106.62325 
" style="fill:none;stroke:#0000ff;stroke-dasharray:3.7,1.6;stroke-dashoffset:0;"/>
    </g>
    <g id="line2d_42">
     <g>
      <use style="fill:#0000ff;stroke:#000000;stroke-width:0.5;" x="147.544062" xlink:href="#m375c9516bd" y="106.62325"/>
     </g>
    </g>
    <g id="text_34">
     <!-- S4C0 -->
     <g transform="translate(159.544062 110.12325)scale(0.1 -0.1)">
      <use xlink:href="#ArialMT-83"/>
      <use x="66.699219" xlink:href="#ArialMT-52"/>
      <use x="122.314453" xlink:href="#ArialMT-67"/>
      <use x="194.53125" xlink:href="#ArialMT-48"/>
     </g>
    </g>
    <g id="line2d_43">
     <path d="M 137.544062 120.768563 
L 157.544062 120.768563 
" style="fill:none;stroke:#000000;stroke-dasharray:3.7,1.6;stroke-dashoffset:0;"/>
    </g>
    <g id="line2d_44">
     <g>
      <use style="stroke:#000000;stroke-width:0.5;" x="147.544062" xlink:href="#m688f2dd619" y="120.768563"/>
     </g>
    </g>
    <g id="text_35">
     <!-- S4C1 -->
     <g transform="translate(159.544062 124.268563)scale(0.1 -0.1)">
      <use xlink:href="#ArialMT-83"/>
      <use x="66.699219" xlink:href="#ArialMT-52"/>
      <use x="122.314453" xlink:href="#ArialMT-67"/>
      <use x="194.53125" xlink:href="#ArialMT-49"/>
     </g>
    </g>
    <g id="line2d_45">
     <path d="M 137.544062 134.913875 
L 157.544062 134.913875 
" style="fill:none;stroke:#bebe00;stroke-dasharray:3.7,1.6;stroke-dashoffset:0;"/>
    </g>
    <g id="line2d_46">
     <g>
      <use style="fill:#bebe00;stroke:#000000;stroke-width:0.5;" x="147.544062" xlink:href="#mecfeac8df1" y="134.913875"/>
     </g>
    </g>
    <g id="text_36">
     <!-- S4C2 -->
     <g transform="translate(159.544062 138.413875)scale(0.1 -0.1)">
      <use xlink:href="#ArialMT-83"/>
      <use x="66.699219" xlink:href="#ArialMT-52"/>
      <use x="122.314453" xlink:href="#ArialMT-67"/>
      <use x="194.53125" xlink:href="#ArialMT-50"/>
     </g>
    </g>
    <g id="line2d_47">
     <path d="M 137.544062 149.059188 
L 157.544062 149.059188 
" style="fill:none;stroke:#be00be;stroke-dasharray:3.7,1.6;stroke-dashoffset:0;"/>
    </g>
    <g id="line2d_48">
     <g>
      <use style="fill:#be00be;stroke:#000000;stroke-width:0.5;" x="147.544062" xlink:href="#m38df1e8502" y="149.059188"/>
     </g>
    </g>
    <g id="text_37">
     <!-- S5C0 -->
     <g transform="translate(159.544062 152.559188)scale(0.1 -0.1)">
      <use xlink:href="#ArialMT-83"/>
      <use x="66.699219" xlink:href="#ArialMT-53"/>
      <use x="122.314453" xlink:href="#ArialMT-67"/>
      <use x="194.53125" xlink:href="#ArialMT-48"/>
     </g>
    </g>
    <g id="line2d_49">
     <path d="M 137.544062 163.2045 
L 157.544062 163.2045 
" style="fill:none;stroke:#00bebe;stroke-dasharray:3.7,1.6;stroke-dashoffset:0;"/>
    </g>
    <g id="line2d_50">
     <g>
      <use style="fill:#00bebe;stroke:#000000;stroke-width:0.5;" x="147.544062" xlink:href="#m26c60a71e3" y="163.2045"/>
     </g>
    </g>
    <g id="text_38">
     <!-- S5C1 -->
     <g transform="translate(159.544062 166.7045)scale(0.1 -0.1)">
      <use xlink:href="#ArialMT-83"/>
      <use x="66.699219" xlink:href="#ArialMT-53"/>
      <use x="122.314453" xlink:href="#ArialMT-67"/>
      <use x="194.53125" xlink:href="#ArialMT-49"/>
     </g>
    </g>
   </g>
   <g id="line2d_51">
    <path clip-path="url(#p2677574f3e)" d="M 66.867327 38.80332 
L 105.540594 38.80332 
L 144.213861 38.80332 
L 182.887129 38.80332 
L 221.560396 38.80332 
L 260.233663 38.9664 
L 298.906931 38.9664 
L 337.580198 65.0592 
L 376.253465 141.54372 
L 414.926733 178.432416 
L 449.732673 172.806156 
" style="fill:none;stroke:#ff0000;stroke-linecap:square;"/>
    <g clip-path="url(#p2677574f3e)">
     <use style="fill:#ff0000;stroke:#000000;stroke-width:0.5;" x="66.867327" xlink:href="#m89c197e32c" y="38.80332"/>
     <use style="fill:#ff0000;stroke:#000000;stroke-width:0.5;" x="105.540594" xlink:href="#m89c197e32c" y="38.80332"/>
     <use style="fill:#ff0000;stroke:#000000;stroke-width:0.5;" x="144.213861" xlink:href="#m89c197e32c" y="38.80332"/>
     <use style="fill:#ff0000;stroke:#000000;stroke-width:0.5;" x="182.887129" xlink:href="#m89c197e32c" y="38.80332"/>
     <use style="fill:#ff0000;stroke:#000000;stroke-width:0.5;" x="221.560396" xlink:href="#m89c197e32c" y="38.80332"/>
     <use style="fill:#ff0000;stroke:#000000;stroke-width:0.5;" x="260.233663" xlink:href="#m89c197e32c" y="38.9664"/>
     <use style="fill:#ff0000;stroke:#000000;stroke-width:0.5;" x="298.906931" xlink:href="#m89c197e32c" y="38.9664"/>
     <use style="fill:#ff0000;stroke:#000000;stroke-width:0.5;" x="337.580198" xlink:href="#m89c197e32c" y="65.0592"/>
     <use style="fill:#ff0000;stroke:#000000;stroke-width:0.5;" x="376.253465" xlink:href="#m89c197e32c" y="141.54372"/>
     <use style="fill:#ff0000;stroke:#000000;stroke-width:0.5;" x="414.926733" xlink:href="#m89c197e32c" y="178.432416"/>
     <use style="fill:#ff0000;stroke:#000000;stroke-width:0.5;" x="449.732673" xlink:href="#m89c197e32c" y="172.806156"/>
    </g>
   </g>
   <g id="line2d_52">
    <path clip-path="url(#p2677574f3e)" d="M 66.867327 38.80332 
L 105.540594 38.80332 
L 144.213861 38.80332 
L 182.887129 38.80332 
L 221.560396 38.80332 
L 260.233663 43.69572 
L 298.906931 56.9052 
L 337.580198 63.59148 
L 376.253465 104.36148 
L 414.926733 123.653844 
L 449.732673 160.78716 
" style="fill:none;stroke:#008000;stroke-linecap:square;"/>
    <g clip-path="url(#p2677574f3e)">
     <use style="fill:#008000;stroke:#000000;stroke-width:0.5;" x="66.867327" xlink:href="#mbad32eaae4" y="38.80332"/>
     <use style="fill:#008000;stroke:#000000;stroke-width:0.5;" x="105.540594" xlink:href="#mbad32eaae4" y="38.80332"/>
     <use style="fill:#008000;stroke:#000000;stroke-width:0.5;" x="144.213861" xlink:href="#mbad32eaae4" y="38.80332"/>
     <use style="fill:#008000;stroke:#000000;stroke-width:0.5;" x="182.887129" xlink:href="#mbad32eaae4" y="38.80332"/>
     <use style="fill:#008000;stroke:#000000;stroke-width:0.5;" x="221.560396" xlink:href="#mbad32eaae4" y="38.80332"/>
     <use style="fill:#008000;stroke:#000000;stroke-width:0.5;" x="260.233663" xlink:href="#mbad32eaae4" y="43.69572"/>
     <use style="fill:#008000;stroke:#000000;stroke-width:0.5;" x="298.906931" xlink:href="#mbad32eaae4" y="56.9052"/>
     <use style="fill:#008000;stroke:#000000;stroke-width:0.5;" x="337.580198" xlink:href="#mbad32eaae4" y="63.59148"/>
     <use style="fill:#008000;stroke:#000000;stroke-width:0.5;" x="376.253465" xlink:href="#mbad32eaae4" y="104.36148"/>
     <use style="fill:#008000;stroke:#000000;stroke-width:0.5;" x="414.926733" xlink:href="#mbad32eaae4" y="123.653844"/>
     <use style="fill:#008000;stroke:#000000;stroke-width:0.5;" x="449.732673" xlink:href="#mbad32eaae4" y="160.78716"/>
    </g>
   </g>
   <g id="line2d_53">
    <path clip-path="url(#p2677574f3e)" d="M 66.867327 38.80332 
L 105.540594 38.80332 
L 144.213861 38.80332 
L 182.887129 38.80332 
L 221.560396 38.80332 
L 260.233663 38.9664 
L 298.906931 38.9664 
L 337.580198 65.0592 
L 376.253465 141.54372 
L 414.926733 178.432416 
L 449.732673 172.806156 
" style="fill:none;stroke:#0000ff;stroke-linecap:square;"/>
    <g clip-path="url(#p2677574f3e)">
     <use style="fill:#0000ff;stroke:#000000;stroke-width:0.5;" x="66.867327" xlink:href="#m375c9516bd" y="38.80332"/>
     <use style="fill:#0000ff;stroke:#000000;stroke-width:0.5;" x="105.540594" xlink:href="#m375c9516bd" y="38.80332"/>
     <use style="fill:#0000ff;stroke:#000000;stroke-width:0.5;" x="144.213861" xlink:href="#m375c9516bd" y="38.80332"/>
     <use style="fill:#0000ff;stroke:#000000;stroke-width:0.5;" x="182.887129" xlink:href="#m375c9516bd" y="38.80332"/>
     <use style="fill:#0000ff;stroke:#000000;stroke-width:0.5;" x="221.560396" xlink:href="#m375c9516bd" y="38.80332"/>
     <use style="fill:#0000ff;stroke:#000000;stroke-width:0.5;" x="260.233663" xlink:href="#m375c9516bd" y="38.9664"/>
     <use style="fill:#0000ff;stroke:#000000;stroke-width:0.5;" x="298.906931" xlink:href="#m375c9516bd" y="38.9664"/>
     <use style="fill:#0000ff;stroke:#000000;stroke-width:0.5;" x="337.580198" xlink:href="#m375c9516bd" y="65.0592"/>
     <use style="fill:#0000ff;stroke:#000000;stroke-width:0.5;" x="376.253465" xlink:href="#m375c9516bd" y="141.54372"/>
     <use style="fill:#0000ff;stroke:#000000;stroke-width:0.5;" x="414.926733" xlink:href="#m375c9516bd" y="178.432416"/>
     <use style="fill:#0000ff;stroke:#000000;stroke-width:0.5;" x="449.732673" xlink:href="#m375c9516bd" y="172.806156"/>
    </g>
   </g>
   <g id="line2d_54">
    <path clip-path="url(#p2677574f3e)" d="M 66.867327 38.80332 
L 105.540594 38.80332 
L 144.213861 38.80332 
L 182.887129 38.80332 
L 221.560396 38.80332 
L 260.233663 38.80332 
L 298.906931 121.48488 
L 337.580198 160.62408 
L 376.253465 174.991428 
L 414.926733 172.52892 
L 449.732673 172.93662 
" style="fill:none;stroke:#000000;stroke-linecap:square;"/>
    <g clip-path="url(#p2677574f3e)">
     <use style="stroke:#000000;stroke-width:0.5;" x="66.867327" xlink:href="#m688f2dd619" y="38.80332"/>
     <use style="stroke:#000000;stroke-width:0.5;" x="105.540594" xlink:href="#m688f2dd619" y="38.80332"/>
     <use style="stroke:#000000;stroke-width:0.5;" x="144.213861" xlink:href="#m688f2dd619" y="38.80332"/>
     <use style="stroke:#000000;stroke-width:0.5;" x="182.887129" xlink:href="#m688f2dd619" y="38.80332"/>
     <use style="stroke:#000000;stroke-width:0.5;" x="221.560396" xlink:href="#m688f2dd619" y="38.80332"/>
     <use style="stroke:#000000;stroke-width:0.5;" x="260.233663" xlink:href="#m688f2dd619" y="38.80332"/>
     <use style="stroke:#000000;stroke-width:0.5;" x="298.906931" xlink:href="#m688f2dd619" y="121.48488"/>
     <use style="stroke:#000000;stroke-width:0.5;" x="337.580198" xlink:href="#m688f2dd619" y="160.62408"/>
     <use style="stroke:#000000;stroke-width:0.5;" x="376.253465" xlink:href="#m688f2dd619" y="174.991428"/>
     <use style="stroke:#000000;stroke-width:0.5;" x="414.926733" xlink:href="#m688f2dd619" y="172.52892"/>
     <use style="stroke:#000000;stroke-width:0.5;" x="449.732673" xlink:href="#m688f2dd619" y="172.93662"/>
    </g>
   </g>
   <g id="line2d_55">
    <path clip-path="url(#p2677574f3e)" d="M 66.867327 38.80332 
L 105.540594 38.80332 
L 144.213861 38.80332 
L 182.887129 38.80332 
L 221.560396 38.80332 
L 260.233663 41.90184 
L 298.906931 122.46336 
L 337.580198 144.9684 
L 376.253465 186.488568 
L 414.926733 186.684264 
L 449.732673 186.488568 
" style="fill:none;stroke:#bebe00;stroke-linecap:square;"/>
    <g clip-path="url(#p2677574f3e)">
     <use style="fill:#bebe00;stroke:#000000;stroke-width:0.5;" x="66.867327" xlink:href="#mecfeac8df1" y="38.80332"/>
     <use style="fill:#bebe00;stroke:#000000;stroke-width:0.5;" x="105.540594" xlink:href="#mecfeac8df1" y="38.80332"/>
     <use style="fill:#bebe00;stroke:#000000;stroke-width:0.5;" x="144.213861" xlink:href="#mecfeac8df1" y="38.80332"/>
     <use style="fill:#bebe00;stroke:#000000;stroke-width:0.5;" x="182.887129" xlink:href="#mecfeac8df1" y="38.80332"/>
     <use style="fill:#bebe00;stroke:#000000;stroke-width:0.5;" x="221.560396" xlink:href="#mecfeac8df1" y="38.80332"/>
     <use style="fill:#bebe00;stroke:#000000;stroke-width:0.5;" x="260.233663" xlink:href="#mecfeac8df1" y="41.90184"/>
     <use style="fill:#bebe00;stroke:#000000;stroke-width:0.5;" x="298.906931" xlink:href="#mecfeac8df1" y="122.46336"/>
     <use style="fill:#bebe00;stroke:#000000;stroke-width:0.5;" x="337.580198" xlink:href="#mecfeac8df1" y="144.9684"/>
     <use style="fill:#bebe00;stroke:#000000;stroke-width:0.5;" x="376.253465" xlink:href="#mecfeac8df1" y="186.488568"/>
     <use style="fill:#bebe00;stroke:#000000;stroke-width:0.5;" x="414.926733" xlink:href="#mecfeac8df1" y="186.684264"/>
     <use style="fill:#bebe00;stroke:#000000;stroke-width:0.5;" x="449.732673" xlink:href="#mecfeac8df1" y="186.488568"/>
    </g>
   </g>
   <g id="line2d_56">
    <path clip-path="url(#p2677574f3e)" d="M 66.867327 38.80332 
L 105.540594 38.80332 
L 144.213861 38.80332 
L 182.887129 38.80332 
L 221.560396 38.80332 
L 260.233663 38.80332 
L 298.906931 121.48488 
L 337.580198 160.62408 
L 376.253465 174.991428 
L 414.926733 172.52892 
L 449.732673 172.93662 
" style="fill:none;stroke:#be00be;stroke-linecap:square;"/>
    <g clip-path="url(#p2677574f3e)">
     <use style="fill:#be00be;stroke:#000000;stroke-width:0.5;" x="66.867327" xlink:href="#m38df1e8502" y="38.80332"/>
     <use style="fill:#be00be;stroke:#000000;stroke-width:0.5;" x="105.540594" xlink:href="#m38df1e8502" y="38.80332"/>
     <use style="fill:#be00be;stroke:#000000;stroke-width:0.5;" x="144.213861" xlink:href="#m38df1e8502" y="38.80332"/>
     <use style="fill:#be00be;stroke:#000000;stroke-width:0.5;" x="182.887129" xlink:href="#m38df1e8502" y="38.80332"/>
     <use style="fill:#be00be;stroke:#000000;stroke-width:0.5;" x="221.560396" xlink:href="#m38df1e8502" y="38.80332"/>
     <use style="fill:#be00be;stroke:#000000;stroke-width:0.5;" x="260.233663" xlink:href="#m38df1e8502" y="38.80332"/>
     <use style="fill:#be00be;stroke:#000000;stroke-width:0.5;" x="298.906931" xlink:href="#m38df1e8502" y="121.48488"/>
     <use style="fill:#be00be;stroke:#000000;stroke-width:0.5;" x="337.580198" xlink:href="#m38df1e8502" y="160.62408"/>
     <use style="fill:#be00be;stroke:#000000;stroke-width:0.5;" x="376.253465" xlink:href="#m38df1e8502" y="174.991428"/>
     <use style="fill:#be00be;stroke:#000000;stroke-width:0.5;" x="414.926733" xlink:href="#m38df1e8502" y="172.52892"/>
     <use style="fill:#be00be;stroke:#000000;stroke-width:0.5;" x="449.732673" xlink:href="#m38df1e8502" y="172.93662"/>
    </g>
   </g>
   <g id="line2d_57">
    <path clip-path="url(#p2677574f3e)" d="M 66.867327 38.80332 
L 105.540594 38.80332 
L 144.213861 38.80332 
L 182.887129 38.80332 
L 221.560396 38.80332 
L 260.233663 38.80332 
L 298.906931 38.80332 
L 337.580198 66.69 
L 376.253465 111.86316 
L 414.926733 164.37492 
L 449.732673 177.241932 
" style="fill:none;stroke:#00bebe;stroke-linecap:square;"/>
    <g clip-path="url(#p2677574f3e)">
     <use style="fill:#00bebe;stroke:#000000;stroke-width:0.5;" x="66.867327" xlink:href="#m26c60a71e3" y="38.80332"/>
     <use style="fill:#00bebe;stroke:#000000;stroke-width:0.5;" x="105.540594" xlink:href="#m26c60a71e3" y="38.80332"/>
     <use style="fill:#00bebe;stroke:#000000;stroke-width:0.5;" x="144.213861" xlink:href="#m26c60a71e3" y="38.80332"/>
     <use style="fill:#00bebe;stroke:#000000;stroke-width:0.5;" x="182.887129" xlink:href="#m26c60a71e3" y="38.80332"/>
     <use style="fill:#00bebe;stroke:#000000;stroke-width:0.5;" x="221.560396" xlink:href="#m26c60a71e3" y="38.80332"/>
     <use style="fill:#00bebe;stroke:#000000;stroke-width:0.5;" x="260.233663" xlink:href="#m26c60a71e3" y="38.80332"/>
     <use style="fill:#00bebe;stroke:#000000;stroke-width:0.5;" x="298.906931" xlink:href="#m26c60a71e3" y="38.80332"/>
     <use style="fill:#00bebe;stroke:#000000;stroke-width:0.5;" x="337.580198" xlink:href="#m26c60a71e3" y="66.69"/>
     <use style="fill:#00bebe;stroke:#000000;stroke-width:0.5;" x="376.253465" xlink:href="#m26c60a71e3" y="111.86316"/>
     <use style="fill:#00bebe;stroke:#000000;stroke-width:0.5;" x="414.926733" xlink:href="#m26c60a71e3" y="164.37492"/>
     <use style="fill:#00bebe;stroke:#000000;stroke-width:0.5;" x="449.732673" xlink:href="#m26c60a71e3" y="177.241932"/>
    </g>
   </g>
   <g id="line2d_58">
    <path clip-path="url(#p2677574f3e)" d="M 66.867327 38.80332 
L 105.540594 38.80332 
L 144.213861 38.80332 
L 182.887129 38.80332 
L 221.560396 38.80332 
L 260.233663 57.39444 
L 298.906931 92.13048 
L 337.580198 148.55616 
L 376.253465 165.02724 
L 414.926733 185.232852 
L 449.732673 186.87996 
" style="fill:none;stroke:#ff0000;stroke-dasharray:3.7,1.6;stroke-dashoffset:0;"/>
    <g clip-path="url(#p2677574f3e)">
     <use style="fill:#ff0000;stroke:#000000;stroke-width:0.5;" x="66.867327" xlink:href="#m89c197e32c" y="38.80332"/>
     <use style="fill:#ff0000;stroke:#000000;stroke-width:0.5;" x="105.540594" xlink:href="#m89c197e32c" y="38.80332"/>
     <use style="fill:#ff0000;stroke:#000000;stroke-width:0.5;" x="144.213861" xlink:href="#m89c197e32c" y="38.80332"/>
     <use style="fill:#ff0000;stroke:#000000;stroke-width:0.5;" x="182.887129" xlink:href="#m89c197e32c" y="38.80332"/>
     <use style="fill:#ff0000;stroke:#000000;stroke-width:0.5;" x="221.560396" xlink:href="#m89c197e32c" y="38.80332"/>
     <use style="fill:#ff0000;stroke:#000000;stroke-width:0.5;" x="260.233663" xlink:href="#m89c197e32c" y="57.39444"/>
     <use style="fill:#ff0000;stroke:#000000;stroke-width:0.5;" x="298.906931" xlink:href="#m89c197e32c" y="92.13048"/>
     <use style="fill:#ff0000;stroke:#000000;stroke-width:0.5;" x="337.580198" xlink:href="#m89c197e32c" y="148.55616"/>
     <use style="fill:#ff0000;stroke:#000000;stroke-width:0.5;" x="376.253465" xlink:href="#m89c197e32c" y="165.02724"/>
     <use style="fill:#ff0000;stroke:#000000;stroke-width:0.5;" x="414.926733" xlink:href="#m89c197e32c" y="185.232852"/>
     <use style="fill:#ff0000;stroke:#000000;stroke-width:0.5;" x="449.732673" xlink:href="#m89c197e32c" y="186.87996"/>
    </g>
   </g>
   <g id="line2d_59">
    <path clip-path="url(#p2677574f3e)" d="M 66.867327 38.80332 
L 105.540594 38.80332 
L 144.213861 38.80332 
L 182.887129 38.80332 
L 221.560396 38.80332 
L 260.233663 38.80332 
L 298.906931 38.80332 
L 337.580198 66.69 
L 376.253465 111.86316 
L 414.926733 164.37492 
L 449.732673 177.241932 
" style="fill:none;stroke:#008000;stroke-dasharray:3.7,1.6;stroke-dashoffset:0;"/>
    <g clip-path="url(#p2677574f3e)">
     <use style="fill:#008000;stroke:#000000;stroke-width:0.5;" x="66.867327" xlink:href="#mbad32eaae4" y="38.80332"/>
     <use style="fill:#008000;stroke:#000000;stroke-width:0.5;" x="105.540594" xlink:href="#mbad32eaae4" y="38.80332"/>
     <use style="fill:#008000;stroke:#000000;stroke-width:0.5;" x="144.213861" xlink:href="#mbad32eaae4" y="38.80332"/>
     <use style="fill:#008000;stroke:#000000;stroke-width:0.5;" x="182.887129" xlink:href="#mbad32eaae4" y="38.80332"/>
     <use style="fill:#008000;stroke:#000000;stroke-width:0.5;" x="221.560396" xlink:href="#mbad32eaae4" y="38.80332"/>
     <use style="fill:#008000;stroke:#000000;stroke-width:0.5;" x="260.233663" xlink:href="#mbad32eaae4" y="38.80332"/>
     <use style="fill:#008000;stroke:#000000;stroke-width:0.5;" x="298.906931" xlink:href="#mbad32eaae4" y="38.80332"/>
     <use style="fill:#008000;stroke:#000000;stroke-width:0.5;" x="337.580198" xlink:href="#mbad32eaae4" y="66.69"/>
     <use style="fill:#008000;stroke:#000000;stroke-width:0.5;" x="376.253465" xlink:href="#mbad32eaae4" y="111.86316"/>
     <use style="fill:#008000;stroke:#000000;stroke-width:0.5;" x="414.926733" xlink:href="#mbad32eaae4" y="164.37492"/>
     <use style="fill:#008000;stroke:#000000;stroke-width:0.5;" x="449.732673" xlink:href="#mbad32eaae4" y="177.241932"/>
    </g>
   </g>
   <g id="line2d_60">
    <path clip-path="url(#p2677574f3e)" d="M 66.867327 38.738088 
L 105.540594 38.738088 
L 144.213861 38.738088 
L 182.887129 38.738088 
L 221.560396 38.738088 
L 260.233663 38.672856 
L 298.906931 42.570468 
L 337.580198 67.277088 
L 376.253465 106.334748 
L 414.926733 134.955288 
L 449.732673 155.633832 
" style="fill:none;stroke:#0000ff;stroke-dasharray:3.7,1.6;stroke-dashoffset:0;"/>
    <g clip-path="url(#p2677574f3e)">
     <use style="fill:#0000ff;stroke:#000000;stroke-width:0.5;" x="66.867327" xlink:href="#m375c9516bd" y="38.738088"/>
     <use style="fill:#0000ff;stroke:#000000;stroke-width:0.5;" x="105.540594" xlink:href="#m375c9516bd" y="38.738088"/>
     <use style="fill:#0000ff;stroke:#000000;stroke-width:0.5;" x="144.213861" xlink:href="#m375c9516bd" y="38.738088"/>
     <use style="fill:#0000ff;stroke:#000000;stroke-width:0.5;" x="182.887129" xlink:href="#m375c9516bd" y="38.738088"/>
     <use style="fill:#0000ff;stroke:#000000;stroke-width:0.5;" x="221.560396" xlink:href="#m375c9516bd" y="38.738088"/>
     <use style="fill:#0000ff;stroke:#000000;stroke-width:0.5;" x="260.233663" xlink:href="#m375c9516bd" y="38.672856"/>
     <use style="fill:#0000ff;stroke:#000000;stroke-width:0.5;" x="298.906931" xlink:href="#m375c9516bd" y="42.570468"/>
     <use style="fill:#0000ff;stroke:#000000;stroke-width:0.5;" x="337.580198" xlink:href="#m375c9516bd" y="67.277088"/>
     <use style="fill:#0000ff;stroke:#000000;stroke-width:0.5;" x="376.253465" xlink:href="#m375c9516bd" y="106.334748"/>
     <use style="fill:#0000ff;stroke:#000000;stroke-width:0.5;" x="414.926733" xlink:href="#m375c9516bd" y="134.955288"/>
     <use style="fill:#0000ff;stroke:#000000;stroke-width:0.5;" x="449.732673" xlink:href="#m375c9516bd" y="155.633832"/>
    </g>
   </g>
   <g id="line2d_61">
    <path clip-path="url(#p2677574f3e)" d="M 66.867327 38.80332 
L 105.540594 38.80332 
L 144.213861 38.80332 
L 182.887129 38.80332 
L 221.560396 38.80332 
L 260.233663 115.614 
L 298.906931 167.7996 
L 337.580198 169.59348 
L 376.253465 174.534804 
L 414.926733 175.578516 
L 449.732673 179.149968 
" style="fill:none;stroke:#000000;stroke-dasharray:3.7,1.6;stroke-dashoffset:0;"/>
    <g clip-path="url(#p2677574f3e)">
     <use style="stroke:#000000;stroke-width:0.5;" x="66.867327" xlink:href="#m688f2dd619" y="38.80332"/>
     <use style="stroke:#000000;stroke-width:0.5;" x="105.540594" xlink:href="#m688f2dd619" y="38.80332"/>
     <use style="stroke:#000000;stroke-width:0.5;" x="144.213861" xlink:href="#m688f2dd619" y="38.80332"/>
     <use style="stroke:#000000;stroke-width:0.5;" x="182.887129" xlink:href="#m688f2dd619" y="38.80332"/>
     <use style="stroke:#000000;stroke-width:0.5;" x="221.560396" xlink:href="#m688f2dd619" y="38.80332"/>
     <use style="stroke:#000000;stroke-width:0.5;" x="260.233663" xlink:href="#m688f2dd619" y="115.614"/>
     <use style="stroke:#000000;stroke-width:0.5;" x="298.906931" xlink:href="#m688f2dd619" y="167.7996"/>
     <use style="stroke:#000000;stroke-width:0.5;" x="337.580198" xlink:href="#m688f2dd619" y="169.59348"/>
     <use style="stroke:#000000;stroke-width:0.5;" x="376.253465" xlink:href="#m688f2dd619" y="174.534804"/>
     <use style="stroke:#000000;stroke-width:0.5;" x="414.926733" xlink:href="#m688f2dd619" y="175.578516"/>
     <use style="stroke:#000000;stroke-width:0.5;" x="449.732673" xlink:href="#m688f2dd619" y="179.149968"/>
    </g>
   </g>
   <g id="line2d_62">
    <path clip-path="url(#p2677574f3e)" d="M 66.867327 38.738088 
L 105.540594 38.738088 
L 144.213861 38.738088 
L 182.887129 38.738088 
L 221.560396 38.738088 
L 260.233663 38.672856 
L 298.906931 42.570468 
L 337.580198 67.277088 
L 376.253465 106.334748 
L 414.926733 134.955288 
L 449.732673 155.633832 
" style="fill:none;stroke:#bebe00;stroke-dasharray:3.7,1.6;stroke-dashoffset:0;"/>
    <g clip-path="url(#p2677574f3e)">
     <use style="fill:#bebe00;stroke:#000000;stroke-width:0.5;" x="66.867327" xlink:href="#mecfeac8df1" y="38.738088"/>
     <use style="fill:#bebe00;stroke:#000000;stroke-width:0.5;" x="105.540594" xlink:href="#mecfeac8df1" y="38.738088"/>
     <use style="fill:#bebe00;stroke:#000000;stroke-width:0.5;" x="144.213861" xlink:href="#mecfeac8df1" y="38.738088"/>
     <use style="fill:#bebe00;stroke:#000000;stroke-width:0.5;" x="182.887129" xlink:href="#mecfeac8df1" y="38.738088"/>
     <use style="fill:#bebe00;stroke:#000000;stroke-width:0.5;" x="221.560396" xlink:href="#mecfeac8df1" y="38.738088"/>
     <use style="fill:#bebe00;stroke:#000000;stroke-width:0.5;" x="260.233663" xlink:href="#mecfeac8df1" y="38.672856"/>
     <use style="fill:#bebe00;stroke:#000000;stroke-width:0.5;" x="298.906931" xlink:href="#mecfeac8df1" y="42.570468"/>
     <use style="fill:#bebe00;stroke:#000000;stroke-width:0.5;" x="337.580198" xlink:href="#mecfeac8df1" y="67.277088"/>
     <use style="fill:#bebe00;stroke:#000000;stroke-width:0.5;" x="376.253465" xlink:href="#mecfeac8df1" y="106.334748"/>
     <use style="fill:#bebe00;stroke:#000000;stroke-width:0.5;" x="414.926733" xlink:href="#mecfeac8df1" y="134.955288"/>
     <use style="fill:#bebe00;stroke:#000000;stroke-width:0.5;" x="449.732673" xlink:href="#mecfeac8df1" y="155.633832"/>
    </g>
   </g>
   <g id="line2d_63">
    <path clip-path="url(#p2677574f3e)" d="M 66.867327 38.80332 
L 105.540594 38.80332 
L 144.213861 38.80332 
L 182.887129 38.80332 
L 221.560396 38.80332 
L 260.233663 49.40352 
L 298.906931 111.537 
L 337.580198 182.39526 
L 376.253465 182.39526 
L 414.926733 182.39526 
L 449.732673 182.39526 
" style="fill:none;stroke:#be00be;stroke-dasharray:3.7,1.6;stroke-dashoffset:0;"/>
    <g clip-path="url(#p2677574f3e)">
     <use style="fill:#be00be;stroke:#000000;stroke-width:0.5;" x="66.867327" xlink:href="#m38df1e8502" y="38.80332"/>
     <use style="fill:#be00be;stroke:#000000;stroke-width:0.5;" x="105.540594" xlink:href="#m38df1e8502" y="38.80332"/>
     <use style="fill:#be00be;stroke:#000000;stroke-width:0.5;" x="144.213861" xlink:href="#m38df1e8502" y="38.80332"/>
     <use style="fill:#be00be;stroke:#000000;stroke-width:0.5;" x="182.887129" xlink:href="#m38df1e8502" y="38.80332"/>
     <use style="fill:#be00be;stroke:#000000;stroke-width:0.5;" x="221.560396" xlink:href="#m38df1e8502" y="38.80332"/>
     <use style="fill:#be00be;stroke:#000000;stroke-width:0.5;" x="260.233663" xlink:href="#m38df1e8502" y="49.40352"/>
     <use style="fill:#be00be;stroke:#000000;stroke-width:0.5;" x="298.906931" xlink:href="#m38df1e8502" y="111.537"/>
     <use style="fill:#be00be;stroke:#000000;stroke-width:0.5;" x="337.580198" xlink:href="#m38df1e8502" y="182.39526"/>
     <use style="fill:#be00be;stroke:#000000;stroke-width:0.5;" x="376.253465" xlink:href="#m38df1e8502" y="182.39526"/>
     <use style="fill:#be00be;stroke:#000000;stroke-width:0.5;" x="414.926733" xlink:href="#m38df1e8502" y="182.39526"/>
     <use style="fill:#be00be;stroke:#000000;stroke-width:0.5;" x="449.732673" xlink:href="#m38df1e8502" y="182.39526"/>
    </g>
   </g>
   <g id="line2d_64">
    <path clip-path="url(#p2677574f3e)" d="M 66.867327 38.80332 
L 105.540594 38.80332 
L 144.213861 38.80332 
L 182.887129 38.80332 
L 221.560396 38.80332 
L 260.233663 40.5972 
L 298.906931 44.83728 
L 337.580198 83.16108 
L 376.253465 143.3376 
L 414.926733 160.78716 
L 449.732673 175.986216 
" style="fill:none;stroke:#00bebe;stroke-dasharray:3.7,1.6;stroke-dashoffset:0;"/>
    <g clip-path="url(#p2677574f3e)">
     <use style="fill:#00bebe;stroke:#000000;stroke-width:0.5;" x="66.867327" xlink:href="#m26c60a71e3" y="38.80332"/>
     <use style="fill:#00bebe;stroke:#000000;stroke-width:0.5;" x="105.540594" xlink:href="#m26c60a71e3" y="38.80332"/>
     <use style="fill:#00bebe;stroke:#000000;stroke-width:0.5;" x="144.213861" xlink:href="#m26c60a71e3" y="38.80332"/>
     <use style="fill:#00bebe;stroke:#000000;stroke-width:0.5;" x="182.887129" xlink:href="#m26c60a71e3" y="38.80332"/>
     <use style="fill:#00bebe;stroke:#000000;stroke-width:0.5;" x="221.560396" xlink:href="#m26c60a71e3" y="38.80332"/>
     <use style="fill:#00bebe;stroke:#000000;stroke-width:0.5;" x="260.233663" xlink:href="#m26c60a71e3" y="40.5972"/>
     <use style="fill:#00bebe;stroke:#000000;stroke-width:0.5;" x="298.906931" xlink:href="#m26c60a71e3" y="44.83728"/>
     <use style="fill:#00bebe;stroke:#000000;stroke-width:0.5;" x="337.580198" xlink:href="#m26c60a71e3" y="83.16108"/>
     <use style="fill:#00bebe;stroke:#000000;stroke-width:0.5;" x="376.253465" xlink:href="#m26c60a71e3" y="143.3376"/>
     <use style="fill:#00bebe;stroke:#000000;stroke-width:0.5;" x="414.926733" xlink:href="#m26c60a71e3" y="160.78716"/>
     <use style="fill:#00bebe;stroke:#000000;stroke-width:0.5;" x="449.732673" xlink:href="#m26c60a71e3" y="175.986216"/>
    </g>
   </g>
  </g>
 </g>
 <defs>
  <clipPath id="p2677574f3e">
   <rect height="163.08" width="390.6" x="63" y="25.92"/>
  </clipPath>
 </defs>
</svg>
