<?xml version="1.0" encoding="utf-8" standalone="no"?>
<!DOCTYPE svg PUBLIC "-//W3C//DTD SVG 1.1//EN"
  "http://www.w3.org/Graphics/SVG/1.1/DTD/svg11.dtd">
<!-- Created with matplotlib (https://matplotlib.org/) -->
<svg height="360pt" version="1.1" viewBox="0 0 360 360" width="360pt" xmlns="http://www.w3.org/2000/svg" xmlns:xlink="http://www.w3.org/1999/xlink">
 <defs>
  <style type="text/css">
*{stroke-linecap:butt;stroke-linejoin:round;}
  </style>
 </defs>
 <g id="figure_1">
  <g id="patch_1">
   <path d="M 0 360 
L 360 360 
L 360 0 
L 0 0 
z
" style="fill:#ffffff;"/>
  </g>
  <g id="axes_1">
   <g id="patch_2">
    <path d="M 284.441222 95.239357 
C 284.111634 94.846569 283.779733 94.455728 283.445537 94.066853 
C 283.11134 93.677978 282.774854 93.291077 282.436096 92.90617 
L 184.5 179.1 
L 284.441222 95.239357 
z
" style="fill:#ffb47b;stroke:#ffffff;stroke-linejoin:miter;stroke-width:0.1;"/>
   </g>
   <g id="patch_3">
    <path d="M 282.436096 92.90617 
C 281.984418 92.392959 281.528712 91.883306 281.069022 91.377259 
C 280.609331 90.871212 280.14567 90.368786 279.678082 89.870027 
L 184.5 179.1 
L 282.436096 92.90617 
z
" style="fill:#b466b6;stroke:#ffffff;stroke-linejoin:miter;stroke-width:0.1;"/>
   </g>
   <g id="patch_4">
    <path d="M 279.678082 89.870027 
C 268.318907 77.753645 254.749853 67.917038 239.701426 60.889773 
C 224.653 53.862508 208.400186 49.772996 191.817975 48.841401 
C 175.235764 47.909807 158.627168 50.153153 142.886331 55.450666 
C 127.145494 60.748179 112.560054 69.003056 99.915236 79.770886 
C 87.270417 90.538715 76.797284 103.622733 69.059669 118.318546 
C 61.322053 133.014358 56.461349 149.053424 54.739237 165.572259 
C 53.017126 182.091094 54.465075 198.787846 59.005134 214.763623 
C 63.545193 230.7394 71.094399 245.702272 81.246332 258.846695 
C 91.398265 271.991118 103.967414 283.076899 118.277105 291.507222 
C 132.586796 299.937544 148.375542 305.558358 164.793338 308.067061 
C 181.211133 310.575763 197.957969 309.926511 214.132261 306.154258 
C 230.306552 302.382005 245.61274 295.555682 259.226796 286.042794 
C 272.840853 276.529906 284.514005 264.504283 293.617814 250.613342 
C 302.721622 236.7224 309.08973 221.219972 312.379303 204.940651 
C 315.668875 188.66133 315.819801 171.902592 312.823955 155.566666 
C 309.828109 139.230739 303.740235 123.616135 294.888081 109.563486 
L 184.5 179.1 
L 279.678082 89.870027 
z
" style="fill:#81bae2;stroke:#ffffff;stroke-linejoin:miter;stroke-width:0.1;"/>
   </g>
   <g id="patch_5">
    <path d="M 294.888081 109.563486 
C 293.311807 107.061177 291.650904 104.613188 289.908252 102.223763 
C 288.165599 99.834338 286.342203 97.504858 284.441226 95.239362 
L 184.5 179.1 
L 294.888081 109.563486 
z
" style="fill:#ff6464;stroke:#ffffff;stroke-linejoin:miter;stroke-width:0.1;"/>
   </g>
   <g id="matplotlib.axis_1"/>
   <g id="matplotlib.axis_2"/>
  </g>
 </g>
</svg>
