<?xml version="1.0" encoding="utf-8" standalone="no"?>
<!DOCTYPE svg PUBLIC "-//W3C//DTD SVG 1.1//EN"
  "http://www.w3.org/Graphics/SVG/1.1/DTD/svg11.dtd">
<!-- Created with matplotlib (https://matplotlib.org/) -->
<svg height="360pt" version="1.1" viewBox="0 0 360 360" width="360pt" xmlns="http://www.w3.org/2000/svg" xmlns:xlink="http://www.w3.org/1999/xlink">
 <defs>
  <style type="text/css">
*{stroke-linecap:butt;stroke-linejoin:round;}
  </style>
 </defs>
 <g id="figure_1">
  <g id="patch_1">
   <path d="M 0 360 
L 360 360 
L 360 0 
L 0 0 
z
" style="fill:#ffffff;"/>
  </g>
  <g id="axes_1">
   <g id="patch_2">
    <path d="M 284.441222 95.239357 
C 282.857481 93.351928 281.22059 91.509742 279.53252 89.715015 
C 277.844449 87.920289 276.105876 86.173742 274.318892 84.477477 
L 184.5 179.1 
L 284.441222 95.239357 
z
" style="fill:#ffb47b;stroke:#ffffff;stroke-linejoin:miter;stroke-width:0.1;"/>
   </g>
   <g id="patch_3">
    <path d="M 274.318892 84.477477 
C 270.633324 80.979011 266.746503 77.698862 262.6783 74.6538 
C 258.610098 71.608738 254.367459 68.803961 249.972075 66.25381 
L 184.5 179.1 
L 274.318892 84.477477 
z
" style="fill:#ff6464;stroke:#ffffff;stroke-linejoin:miter;stroke-width:0.1;"/>
   </g>
   <g id="patch_4">
    <path d="M 249.972075 66.25381 
C 235.976286 58.133612 220.591193 52.687576 204.603607 50.194219 
C 188.616021 47.700862 172.303209 48.203425 156.499428 51.676206 
C 140.695646 55.148987 125.674973 61.531759 112.205583 70.4981 
C 98.736193 79.464441 87.051682 90.858851 77.749607 104.098607 
C 68.447532 117.338363 61.689217 132.193853 57.820289 147.905349 
C 53.951362 163.616846 53.038919 179.911871 55.129624 195.957078 
C 57.220329 212.002286 62.277924 227.519409 70.043758 241.714886 
C 77.809592 255.910363 88.148984 268.538005 100.533167 278.952022 
C 112.91735 289.366038 127.131549 297.385823 142.448834 302.601234 
C 157.766119 307.816645 173.920847 310.137233 190.086849 309.444323 
C 206.252851 308.751412 222.149763 305.057018 236.964602 298.550077 
C 251.779441 292.043135 265.255277 282.836495 276.702941 271.400992 
C 288.150604 259.965489 297.371563 246.499446 303.894247 231.691531 
C 310.41693 216.883617 314.128218 200.99064 314.838311 184.825384 
C 315.548404 168.660128 313.244986 152.502942 308.045858 137.180122 
C 302.846731 121.857303 294.842059 107.634588 284.44121 95.239343 
L 184.5 179.1 
L 249.972075 66.25381 
z
" style="fill:#719bcb;stroke:#ffffff;stroke-linejoin:miter;stroke-width:0.1;"/>
   </g>
   <g id="matplotlib.axis_1"/>
   <g id="matplotlib.axis_2"/>
  </g>
 </g>
</svg>
